{"glyphs":{"0":{"ha":798,"x_min":87,"x_max":709,"o":"m 399 39 q 191 167 259 39 q 148 366 148 251 q 279 662 148 589 q 400 692 332 692 q 620 538 560 692 q 648 365 648 465 q 545 95 648 186 q 399 39 481 39 m 400 742 q 141 597 224 742 q 87 365 87 502 q 209 54 87 157 q 397 -11 289 -11 q 635 111 547 -11 q 709 365 709 216 q 564 699 709 606 q 400 742 495 742 z "},"1":{"ha":509,"x_min":41,"x_max":427,"o":"m 60 586 l 258 670 l 258 45 l 98 45 l 98 0 l 427 0 l 427 45 l 315 45 l 315 732 l 270 732 l 41 636 l 60 586 z "},"2":{"ha":576,"x_min":39,"x_max":499,"o":"m 499 1 l 499 53 l 140 53 l 297 231 q 338 277 311 245 q 464 442 438 385 q 484 526 484 486 q 381 709 484 650 q 258 742 326 742 q 50 639 127 742 q 43 628 46 632 l 91 602 q 240 690 145 682 q 256 692 250 692 q 396 621 349 692 q 423 525 423 579 q 335 347 423 450 q 267 273 313 323 l 39 30 l 39 1 l 499 1 z "},"3":{"ha":563,"x_min":14,"x_max":515,"o":"m 235 -193 q 449 -102 366 -193 q 515 81 515 -26 q 423 271 515 203 q 328 312 381 301 q 463 438 423 340 q 479 526 479 480 q 378 707 479 646 q 251 742 320 742 q 52 637 123 742 q 42 623 46 629 l 92 598 q 251 692 153 688 q 388 623 339 692 q 418 522 418 579 q 340 368 418 422 q 217 331 288 331 l 164 331 l 164 282 l 248 282 q 429 183 374 282 q 454 79 454 136 q 358 -106 454 -45 q 236 -141 304 -141 q 53 -68 136 -140 l 14 -109 q 235 -193 111 -193 z "},"4":{"ha":670,"x_min":38,"x_max":643,"o":"m 503 -183 l 503 65 l 643 65 l 643 115 l 503 115 l 503 732 l 453 732 l 38 106 l 47 64 l 446 65 l 446 -183 l 503 -183 m 110 114 l 446 625 l 446 115 l 110 114 z "},"5":{"ha":574,"x_min":38,"x_max":514,"o":"m 222 -193 q 467 -61 387 -193 q 514 111 514 16 q 422 335 514 252 q 228 403 345 403 q 144 393 183 403 l 144 682 l 456 682 l 456 732 l 87 732 l 87 332 q 210 354 151 354 q 423 236 359 354 q 454 110 454 179 q 374 -85 454 -14 q 228 -141 315 -141 q 72 -91 149 -140 l 38 -136 q 222 -193 125 -193 z "},"6":{"ha":709,"x_min":76,"x_max":628,"o":"m 628 286 q 513 537 628 454 q 366 585 446 585 q 174 492 251 585 q 136 434 152 465 q 243 808 137 694 q 396 875 305 875 q 555 800 496 873 l 595 833 q 400 925 517 920 q 119 694 201 925 q 76 400 76 570 q 187 56 76 164 q 353 -9 255 -9 q 576 113 496 -9 q 628 286 628 193 m 146 289 q 259 507 146 445 q 363 534 308 534 q 525 448 467 534 q 568 283 568 381 q 471 77 568 145 q 355 41 416 41 q 201 122 263 41 q 146 289 146 193 z "},"7":{"ha":529,"x_min":14,"x_max":505,"o":"m 505 688 l 505 732 l 14 732 l 14 675 l 439 675 q 129 -175 241 220 l 191 -190 q 505 688 315 254 z "},"8":{"ha":623,"x_min":45,"x_max":578,"o":"m 578 240 q 490 445 578 373 q 399 487 446 479 q 530 608 492 514 q 548 703 548 652 q 434 901 548 845 q 319 925 382 925 q 121 837 187 925 q 77 697 77 779 q 165 518 77 582 q 221 491 193 499 q 81 377 132 464 q 45 241 45 315 q 152 34 45 103 q 305 -9 220 -9 q 515 77 435 -9 q 578 240 578 146 m 103 243 q 203 437 103 380 q 311 464 252 464 q 483 374 426 464 q 518 241 518 319 q 427 73 518 130 q 311 41 374 41 q 142 121 202 41 q 103 243 103 174 m 136 699 q 237 864 136 823 q 315 878 273 878 q 473 789 431 878 q 492 703 492 751 q 396 529 492 574 q 315 513 358 513 q 161 594 210 513 q 136 699 136 639 z "},"9":{"ha":708,"x_min":77,"x_max":627,"o":"m 77 446 q 184 205 77 288 q 339 152 254 152 q 529 247 452 152 q 567 307 551 274 q 458 -79 567 37 q 308 -142 396 -142 q 164 -81 221 -142 q 153 -68 157 -73 l 113 -100 q 279 -191 174 -180 q 304 -193 293 -193 q 575 20 491 -193 q 627 342 627 155 q 494 700 627 605 q 351 742 433 742 q 127 621 205 742 q 77 446 77 543 m 349 692 q 506 613 445 692 q 556 450 556 547 q 449 232 556 297 q 340 202 399 202 q 182 286 240 202 q 137 450 137 353 q 247 666 137 606 q 349 692 294 692 z "},"A":{"ha":696,"x_min":14,"x_max":682,"o":"m 75 0 l 152 244 l 540 244 l 616 0 l 682 0 l 391 916 l 307 916 l 14 0 l 75 0 m 298 712 q 319 780 304 730 q 346 871 339 846 q 373 780 353 846 q 393 712 388 730 l 525 292 l 167 292 l 298 712 z "},"Æ":{"ha":1099,"x_min":14,"x_max":1024,"o":"m 80 0 l 222 244 l 586 245 l 586 0 l 1024 0 l 1024 50 l 643 50 l 643 454 l 972 454 l 972 505 l 643 505 l 643 865 l 1012 865 l 1012 916 l 549 916 l 14 0 l 80 0 m 453 642 q 519 757 475 681 q 586 873 564 836 l 586 293 l 250 292 l 453 642 z "},"Á":{"ha":696,"x_min":14,"x_max":682,"o":"m 75 0 l 152 244 l 540 244 l 616 0 l 682 0 l 391 916 l 307 916 l 14 0 l 75 0 m 298 712 q 319 780 304 730 q 346 871 339 846 q 373 780 353 846 q 393 712 388 730 l 525 292 l 167 292 l 298 712 m 499 1116 l 458 1165 l 274 1021 l 302 983 l 499 1116 z "},"Ă":{"ha":696,"x_min":14,"x_max":682,"o":"m 75 0 l 152 244 l 540 244 l 616 0 l 682 0 l 391 916 l 307 916 l 14 0 l 75 0 m 298 712 q 319 780 304 730 q 346 871 339 846 q 373 780 353 846 q 393 712 388 730 l 525 292 l 167 292 l 298 712 m 202 1141 q 283 1015 203 1048 q 347 1002 315 1002 q 473 1066 431 1002 q 498 1141 495 1099 l 454 1143 q 382 1054 445 1074 q 350 1048 366 1048 q 259 1101 288 1048 q 247 1146 250 1122 l 202 1141 z "},"Â":{"ha":696,"x_min":14,"x_max":682,"o":"m 75 0 l 152 244 l 540 244 l 616 0 l 682 0 l 391 916 l 307 916 l 14 0 l 75 0 m 298 712 q 319 780 304 730 q 346 871 339 846 q 373 780 353 846 q 393 712 388 730 l 525 292 l 167 292 l 298 712 m 355 1158 l 187 1013 l 216 978 l 351 1085 l 490 977 l 519 1016 l 355 1158 z "},"Ä":{"ha":696,"x_min":14,"x_max":682,"o":"m 75 0 l 152 244 l 540 244 l 616 0 l 682 0 l 391 916 l 307 916 l 14 0 l 75 0 m 298 712 q 319 780 304 730 q 346 871 339 846 q 373 780 353 846 q 393 712 388 730 l 525 292 l 167 292 l 298 712 m 279 1070 q 248 1119 279 1109 q 236 1120 241 1120 q 193 1082 201 1120 q 191 1070 191 1076 q 225 1021 191 1029 q 236 1020 231 1020 q 278 1058 270 1020 q 279 1070 279 1065 m 506 1070 q 472 1119 506 1111 q 461 1120 467 1120 q 419 1082 427 1120 q 418 1070 418 1076 q 449 1021 418 1031 q 461 1020 456 1020 q 505 1058 496 1020 q 506 1070 506 1065 z "},"À":{"ha":696,"x_min":14,"x_max":682,"o":"m 75 0 l 152 244 l 540 244 l 616 0 l 682 0 l 391 916 l 307 916 l 14 0 l 75 0 m 298 712 q 319 780 304 730 q 346 871 339 846 q 373 780 353 846 q 393 712 388 730 l 525 292 l 167 292 l 298 712 m 225 1116 l 266 1165 l 450 1021 l 422 983 l 225 1116 z "},"Ā":{"ha":696,"x_min":14,"x_max":682,"o":"m 75 0 l 152 244 l 540 244 l 616 0 l 682 0 l 391 916 l 307 916 l 14 0 l 75 0 m 298 712 q 319 780 304 730 q 346 871 339 846 q 373 780 353 846 q 393 712 388 730 l 525 292 l 167 292 l 298 712 m 183 1095 l 183 1047 l 515 1047 l 515 1095 l 183 1095 z "},"Ą":{"ha":696,"x_min":14,"x_max":705,"o":"m 298 712 q 319 780 304 730 q 346 871 339 846 q 373 780 353 846 q 393 712 388 730 l 525 292 l 167 292 l 298 712 m 705 -255 l 703 -214 q 659 -220 682 -220 q 570 -165 587 -220 q 566 -140 566 -153 q 669 -7 566 -66 q 682 0 675 -3 l 391 916 l 307 916 l 14 0 l 75 0 l 152 244 l 540 244 l 616 0 l 617 0 q 514 -148 515 -66 q 594 -255 514 -229 q 647 -262 620 -262 q 705 -255 674 -262 z "},"Å":{"ha":696,"x_min":14,"x_max":682,"o":"m 75 0 l 152 244 l 540 244 l 616 0 l 682 0 l 391 916 q 473 1010 461 939 q 476 1038 476 1024 q 403 1157 476 1127 q 353 1166 378 1166 q 244 1107 278 1166 q 227 1036 227 1076 q 302 917 227 945 q 307 916 305 916 l 14 0 l 75 0 m 298 712 q 319 780 304 730 q 346 871 339 846 q 373 780 353 846 q 393 712 388 730 l 525 292 l 167 292 l 298 712 m 271 1036 q 324 1123 271 1104 q 350 1127 338 1127 q 422 1080 401 1127 q 431 1036 431 1059 q 378 951 431 970 q 351 947 365 947 q 281 993 302 947 q 271 1036 271 1013 z "},"Ã":{"ha":696,"x_min":14,"x_max":682,"o":"m 75 0 l 152 244 l 540 244 l 616 0 l 682 0 l 391 916 l 307 916 l 14 0 l 75 0 m 298 712 q 319 780 304 730 q 346 871 339 846 q 373 780 353 846 q 393 712 388 730 l 525 292 l 167 292 l 298 712 m 431 1070 q 354 1097 407 1070 q 282 1119 315 1118 q 170 1066 222 1118 l 198 1038 q 278 1070 235 1070 q 355 1043 304 1070 q 433 1021 397 1021 q 532 1076 487 1023 l 503 1105 q 431 1070 471 1070 z "},"B":{"ha":682,"x_min":115,"x_max":618,"o":"m 618 263 q 534 438 618 373 q 426 483 488 473 q 566 593 519 507 q 593 701 593 644 q 458 897 593 846 q 317 918 399 918 q 115 916 179 918 l 115 0 q 260 -4 170 -4 q 618 263 617 -3 m 308 868 q 532 689 530 867 q 427 526 532 575 q 292 500 370 500 l 172 500 l 172 865 q 308 868 267 868 m 282 46 q 172 52 225 46 l 172 453 l 308 453 q 552 302 524 453 q 556 258 556 281 q 282 46 553 47 z "},"C":{"ha":685,"x_min":54,"x_max":674,"o":"m 400 45 q 157 218 229 45 q 118 456 118 316 q 251 823 118 722 q 400 872 315 872 q 620 712 555 869 l 674 732 q 461 920 612 891 q 403 925 433 925 q 129 770 224 925 q 54 456 54 647 q 193 62 54 184 q 393 -9 277 -9 q 655 83 515 -8 l 629 125 q 400 45 502 45 z "},"Ć":{"ha":685,"x_min":54,"x_max":674,"o":"m 400 45 q 157 218 229 45 q 118 456 118 316 q 251 823 118 722 q 400 872 315 872 q 620 712 555 869 l 674 732 q 461 920 612 891 q 403 925 433 925 q 129 770 224 925 q 54 456 54 647 q 193 62 54 184 q 393 -9 277 -9 q 655 83 515 -8 l 629 125 q 400 45 502 45 m 555 1116 l 514 1165 l 330 1021 l 358 983 l 555 1116 z "},"Č":{"ha":685,"x_min":54,"x_max":674,"o":"m 400 45 q 157 218 229 45 q 118 456 118 316 q 251 823 118 722 q 400 872 315 872 q 620 712 555 869 l 674 732 q 461 920 612 891 q 403 925 433 925 q 129 770 224 925 q 54 456 54 647 q 193 62 54 184 q 393 -9 277 -9 q 655 83 515 -8 l 629 125 q 400 45 502 45 m 401 977 l 570 1122 l 541 1157 l 406 1050 l 267 1158 l 237 1119 l 401 977 z "},"Ç":{"ha":685,"x_min":54,"x_max":674,"o":"m 370 -255 q 506 -183 471 -255 q 518 -130 518 -157 q 445 -12 518 -54 q 434 -7 439 -9 q 655 83 536 5 l 629 125 q 400 45 502 45 q 157 218 229 45 q 118 456 118 316 q 251 823 118 722 q 400 872 315 872 q 620 712 555 869 l 674 732 q 461 920 612 891 q 403 925 433 925 q 129 770 224 925 q 54 456 54 647 q 194 62 54 183 q 381 -9 273 -5 q 472 -113 463 -49 q 473 -125 473 -119 q 416 -199 473 -178 q 362 -209 392 -209 q 321 -205 343 -209 l 319 -250 q 370 -255 345 -255 z "},"D":{"ha":760,"x_min":115,"x_max":705,"o":"m 115 916 l 115 0 q 324 -4 240 -4 q 644 182 545 -4 q 705 456 705 297 q 543 859 705 745 q 327 920 454 920 q 208 917 289 920 q 115 916 148 916 m 324 47 q 172 50 231 47 l 172 865 q 327 868 289 868 q 613 661 541 868 q 643 456 643 571 q 511 107 643 212 q 324 47 434 47 z "},"Ď":{"ha":760,"x_min":115,"x_max":705,"o":"m 115 916 l 115 0 q 324 -4 240 -4 q 644 182 545 -4 q 705 456 705 297 q 543 859 705 745 q 327 920 454 920 q 208 917 289 920 q 115 916 148 916 m 324 47 q 172 50 231 47 l 172 865 q 327 868 289 868 q 613 661 541 868 q 643 456 643 571 q 511 107 643 212 q 324 47 434 47 m 347 977 l 515 1122 l 487 1157 l 351 1050 l 213 1158 l 183 1119 l 347 977 z "},"Đ":{"ha":762,"x_min":9,"x_max":708,"o":"m 9 503 l 9 456 l 118 456 l 118 0 q 327 -4 243 -4 q 647 182 548 -4 q 708 456 708 297 q 545 859 708 745 q 330 920 457 920 q 210 917 292 920 q 118 916 151 916 l 118 503 l 9 503 m 327 47 q 175 50 233 47 l 175 456 l 396 456 l 396 503 l 175 503 l 175 865 q 330 868 292 868 q 616 661 544 868 q 646 456 646 571 q 514 107 646 212 q 327 47 437 47 z "},"E":{"ha":628,"x_min":115,"x_max":553,"o":"m 553 50 l 172 50 l 172 454 l 502 454 l 502 505 l 172 505 l 172 865 l 541 865 l 541 916 l 115 916 l 115 0 l 553 0 l 553 50 z "},"É":{"ha":628,"x_min":115,"x_max":553,"o":"m 553 50 l 172 50 l 172 454 l 502 454 l 502 505 l 172 505 l 172 865 l 541 865 l 541 916 l 115 916 l 115 0 l 553 0 l 553 50 m 481 1116 l 441 1165 l 256 1021 l 285 983 l 481 1116 z "},"Ě":{"ha":628,"x_min":115,"x_max":553,"o":"m 553 50 l 172 50 l 172 454 l 502 454 l 502 505 l 172 505 l 172 865 l 541 865 l 541 916 l 115 916 l 115 0 l 553 0 l 553 50 m 328 977 l 496 1122 l 468 1157 l 332 1050 l 194 1158 l 164 1119 l 328 977 z "},"Ê":{"ha":628,"x_min":115,"x_max":553,"o":"m 553 50 l 172 50 l 172 454 l 502 454 l 502 505 l 172 505 l 172 865 l 541 865 l 541 916 l 115 916 l 115 0 l 553 0 l 553 50 m 338 1158 l 170 1013 l 198 978 l 334 1085 l 472 977 l 502 1016 l 338 1158 z "},"Ë":{"ha":628,"x_min":115,"x_max":553,"o":"m 553 50 l 172 50 l 172 454 l 502 454 l 502 505 l 172 505 l 172 865 l 541 865 l 541 916 l 115 916 l 115 0 l 553 0 l 553 50 m 262 1070 q 231 1119 262 1109 q 218 1120 224 1120 q 175 1082 183 1120 q 174 1070 174 1076 q 208 1021 174 1029 q 218 1020 213 1020 q 260 1058 252 1020 q 262 1070 262 1065 m 488 1070 q 454 1119 488 1111 q 444 1120 449 1120 q 401 1082 410 1120 q 400 1070 400 1076 q 431 1021 400 1031 q 444 1020 438 1020 q 487 1058 479 1020 q 488 1070 488 1065 z "},"Ė":{"ha":628,"x_min":115,"x_max":553,"o":"m 553 50 l 172 50 l 172 454 l 502 454 l 502 505 l 172 505 l 172 865 l 541 865 l 541 916 l 115 916 l 115 0 l 553 0 l 553 50 m 376 1072 q 342 1120 376 1112 q 331 1122 336 1122 q 288 1084 296 1122 q 286 1072 286 1077 q 320 1021 286 1029 q 331 1020 326 1020 q 374 1058 368 1020 q 376 1072 376 1066 z "},"È":{"ha":628,"x_min":115,"x_max":553,"o":"m 553 50 l 172 50 l 172 454 l 502 454 l 502 505 l 172 505 l 172 865 l 541 865 l 541 916 l 115 916 l 115 0 l 553 0 l 553 50 m 208 1116 l 248 1165 l 433 1021 l 404 983 l 208 1116 z "},"Ē":{"ha":628,"x_min":115,"x_max":553,"o":"m 553 50 l 172 50 l 172 454 l 502 454 l 502 505 l 172 505 l 172 865 l 541 865 l 541 916 l 115 916 l 115 0 l 553 0 l 553 50 m 165 1095 l 165 1047 l 498 1047 l 498 1095 l 165 1095 z "},"Ę":{"ha":628,"x_min":115,"x_max":576,"o":"m 576 -255 l 574 -214 q 530 -220 553 -220 q 441 -165 458 -220 q 437 -140 437 -153 q 540 -7 437 -66 q 553 0 547 -3 l 553 50 l 172 50 l 172 454 l 502 454 l 502 505 l 172 505 l 172 865 l 541 865 l 541 916 l 115 916 l 115 0 l 488 0 q 385 -148 387 -66 q 465 -255 385 -229 q 518 -262 491 -262 q 576 -255 545 -262 z "},"Ð":{"ha":762,"x_min":9,"x_max":708,"o":"m 9 503 l 9 456 l 118 456 l 118 0 q 327 -4 243 -4 q 647 182 548 -4 q 708 456 708 297 q 545 859 708 745 q 330 920 457 920 q 210 917 292 920 q 118 916 151 916 l 118 503 l 9 503 m 327 47 q 175 50 233 47 l 175 456 l 396 456 l 396 503 l 175 503 l 175 865 q 330 868 292 868 q 616 661 544 868 q 646 456 646 571 q 514 107 646 212 q 327 47 437 47 z "},"€":{"ha":762,"x_min":20,"x_max":688,"o":"m 688 76 l 662 121 q 446 45 548 45 q 222 205 293 45 q 183 355 194 271 l 541 355 l 551 403 l 178 403 q 176 458 176 422 q 178 505 176 490 l 581 505 l 590 552 l 182 552 q 331 844 208 773 q 441 872 381 872 q 624 777 553 872 q 636 760 631 768 l 682 793 q 484 922 610 903 q 444 925 464 925 q 175 745 264 925 q 121 552 134 661 l 20 552 l 20 505 l 115 505 q 114 450 114 486 q 115 403 114 418 l 20 403 l 20 355 l 119 355 q 279 39 145 132 q 438 -8 350 -8 q 688 76 562 -7 z "},"F":{"ha":600,"x_min":115,"x_max":545,"o":"m 545 916 l 115 916 l 115 0 l 172 0 l 172 468 l 506 468 l 506 518 l 172 518 l 172 865 l 545 865 l 545 916 z "},"G":{"ha":760,"x_min":54,"x_max":685,"o":"m 685 69 l 685 426 l 400 426 l 400 376 l 628 376 l 628 100 q 419 42 509 42 q 170 197 250 42 q 117 456 117 301 q 235 804 117 692 q 408 872 308 872 q 631 711 557 869 l 685 732 q 439 924 609 909 q 411 925 425 925 q 137 776 235 925 q 54 456 54 650 q 203 60 54 180 q 414 -11 292 -11 q 685 69 536 -9 z "},"Ğ":{"ha":760,"x_min":54,"x_max":685,"o":"m 685 69 l 685 426 l 400 426 l 400 376 l 628 376 l 628 100 q 419 42 509 42 q 170 197 250 42 q 117 456 117 301 q 235 804 117 692 q 408 872 308 872 q 631 711 557 869 l 685 732 q 439 924 609 909 q 411 925 425 925 q 137 776 235 925 q 54 456 54 650 q 203 60 54 180 q 414 -11 292 -11 q 685 69 536 -9 m 263 1141 q 345 1015 264 1048 q 408 1002 376 1002 q 534 1066 492 1002 q 559 1141 556 1099 l 515 1143 q 444 1054 506 1074 q 411 1048 427 1048 q 320 1101 349 1048 q 308 1146 311 1122 l 263 1141 z "},"H":{"ha":815,"x_min":115,"x_max":700,"o":"m 643 0 l 700 0 l 700 916 l 643 916 l 643 500 l 172 500 l 172 916 l 115 916 l 115 0 l 172 0 l 172 453 l 643 453 l 643 0 z "},"I":{"ha":301,"x_min":122,"x_max":179,"o":"m 122 916 l 122 0 l 179 0 l 179 916 l 122 916 z "},"Í":{"ha":301,"x_min":76,"x_max":301,"o":"m 122 916 l 122 0 l 179 0 l 179 916 l 122 916 m 301 1116 l 260 1165 l 76 1021 l 104 983 l 301 1116 z "},"Î":{"ha":283,"x_min":-7,"x_max":298,"o":"m 148 1158 l -7 1013 l 22 978 l 144 1085 l 269 977 l 298 1016 l 148 1158 m 122 916 l 122 0 l 179 0 l 179 916 l 122 916 z "},"Ï":{"ha":283,"x_min":-3,"x_max":285,"o":"m 85 1070 q 54 1119 85 1109 q 42 1120 47 1120 q -1 1082 7 1120 q -3 1070 -3 1076 q 31 1021 -3 1029 q 42 1020 37 1020 q 84 1058 76 1020 q 85 1070 85 1065 m 285 1070 q 251 1119 285 1111 q 240 1120 245 1120 q 198 1082 206 1120 q 197 1070 197 1076 q 228 1021 197 1031 q 240 1020 235 1020 q 283 1058 275 1020 q 285 1070 285 1065 m 122 916 l 122 0 l 179 0 l 179 916 l 122 916 z "},"İ":{"ha":283,"x_min":98,"x_max":187,"o":"m 122 916 l 122 0 l 179 0 l 179 916 l 122 916 m 187 1024 q 153 1073 187 1065 q 142 1074 148 1074 q 99 1036 107 1074 q 98 1024 98 1029 q 132 974 98 982 q 142 972 137 972 q 186 1010 179 972 q 187 1024 187 1019 z "},"Ì":{"ha":301,"x_min":27,"x_max":252,"o":"m 122 916 l 122 0 l 179 0 l 179 916 l 122 916 m 27 1116 l 68 1165 l 252 1021 l 224 983 l 27 1116 z "},"Ī":{"ha":283,"x_min":1,"x_max":282,"o":"m 1 1095 l 1 1047 l 282 1047 l 282 1095 l 1 1095 m 122 916 l 122 0 l 179 0 l 179 916 l 122 916 z "},"Į":{"ha":301,"x_min":11,"x_max":202,"o":"m 202 -255 l 199 -214 q 156 -220 179 -220 q 66 -165 84 -220 q 62 -140 62 -153 q 165 -7 62 -66 q 179 0 172 -3 l 179 916 l 122 916 l 122 5 q 11 -148 12 -61 q 91 -255 11 -229 q 144 -262 117 -262 q 202 -255 171 -262 z "},"J":{"ha":385,"x_min":12,"x_max":270,"o":"m 126 -9 q 255 77 220 -9 q 270 167 270 117 l 270 916 l 213 916 l 213 176 q 140 42 213 54 q 126 41 133 41 q 34 72 84 42 l 12 23 q 126 -9 68 -9 z "},"K":{"ha":697,"x_min":115,"x_max":690,"o":"m 686 35 q 637 66 659 33 q 632 75 635 71 l 381 487 l 661 916 l 600 916 l 335 507 l 172 507 l 172 916 l 115 916 l 115 0 l 172 0 l 172 460 l 334 460 l 587 47 q 666 -9 623 -8 q 690 -7 677 -9 l 686 35 z "},"L":{"ha":540,"x_min":115,"x_max":526,"o":"m 526 0 l 526 50 l 172 50 l 172 916 l 115 916 l 115 0 l 526 0 z "},"Ĺ":{"ha":540,"x_min":104,"x_max":526,"o":"m 526 0 l 526 50 l 172 50 l 172 916 l 115 916 l 115 0 l 526 0 m 330 1116 l 289 1165 l 104 1021 l 133 983 l 330 1116 z "},"Ľ":{"ha":540,"x_min":115,"x_max":526,"o":"m 526 0 l 526 50 l 172 50 l 172 916 l 115 916 l 115 0 l 526 0 m 494 864 q 454 922 494 914 q 445 924 449 924 q 400 888 410 924 q 399 872 399 880 q 435 822 400 834 q 384 707 429 770 l 403 688 q 490 834 473 750 q 494 864 492 850 z "},"Ł":{"ha":560,"x_min":-24,"x_max":526,"o":"m 526 0 l 526 50 l 172 50 l 172 433 l 370 515 l 354 556 l 172 480 l 172 916 l 115 916 l 115 456 l -24 397 l -9 357 l 115 408 l 115 0 l 526 0 z "},"M":{"ha":932,"x_min":33,"x_max":899,"o":"m 87 0 l 165 572 q 198 808 189 734 q 228 704 209 774 q 267 574 254 616 l 438 33 l 487 35 l 670 572 q 719 724 688 621 q 742 802 734 777 q 769 574 757 671 l 838 0 l 899 0 l 787 916 l 728 916 l 517 288 q 490 195 507 258 q 468 123 475 146 q 445 205 460 149 q 422 286 430 260 l 224 916 l 164 916 l 33 0 l 87 0 z "},"N":{"ha":829,"x_min":115,"x_max":713,"o":"m 713 0 l 713 916 l 656 916 l 656 117 l 171 925 l 115 916 l 115 0 l 172 0 l 172 811 l 661 -9 l 713 0 z "},"Ń":{"ha":829,"x_min":115,"x_max":713,"o":"m 713 0 l 713 916 l 656 916 l 656 117 l 171 925 l 115 916 l 115 0 l 172 0 l 172 811 l 661 -9 l 713 0 m 559 1116 l 518 1165 l 334 1021 l 362 983 l 559 1116 z "},"Ň":{"ha":829,"x_min":115,"x_max":713,"o":"m 713 0 l 713 916 l 656 916 l 656 117 l 171 925 l 115 916 l 115 0 l 172 0 l 172 811 l 661 -9 l 713 0 m 406 977 l 574 1122 l 545 1157 l 410 1050 l 271 1158 l 241 1119 l 406 977 z "},"Ñ":{"ha":829,"x_min":115,"x_max":713,"o":"m 713 0 l 713 916 l 656 916 l 656 117 l 171 925 l 115 916 l 115 0 l 172 0 l 172 811 l 661 -9 l 713 0 m 491 1070 q 414 1097 467 1070 q 342 1119 374 1118 q 229 1066 282 1118 l 258 1038 q 338 1070 294 1070 q 415 1043 363 1070 q 492 1021 457 1021 q 591 1076 547 1023 l 563 1105 q 491 1070 530 1070 z "},"O":{"ha":792,"x_min":54,"x_max":738,"o":"m 738 456 q 606 848 738 724 q 400 925 524 925 q 132 766 228 925 q 54 456 54 639 q 194 60 54 178 q 396 -9 277 -9 q 666 152 571 -9 q 738 456 738 277 m 117 456 q 224 796 117 682 q 399 872 296 872 q 632 701 560 872 q 675 456 675 598 q 564 113 675 222 q 396 43 495 43 q 157 217 229 43 q 117 456 117 317 z "},"Œ":{"ha":1053,"x_min":54,"x_max":978,"o":"m 429 -8 q 505 -4 449 -8 q 574 0 553 0 l 978 0 l 978 50 l 597 50 l 597 454 l 926 454 l 926 505 l 597 505 l 597 865 l 966 865 l 966 916 l 544 916 q 500 918 530 916 q 426 921 450 921 q 107 722 201 921 q 54 456 54 610 q 429 -8 57 -7 m 433 45 q 122 354 157 45 q 117 456 117 401 q 275 830 117 739 q 429 868 342 868 q 540 860 479 868 l 540 53 q 433 45 483 45 z "},"Ó":{"ha":792,"x_min":54,"x_max":738,"o":"m 738 456 q 606 848 738 724 q 400 925 524 925 q 132 766 228 925 q 54 456 54 639 q 194 60 54 178 q 396 -9 277 -9 q 666 152 571 -9 q 738 456 738 277 m 117 456 q 224 796 117 682 q 399 872 296 872 q 632 701 560 872 q 675 456 675 598 q 564 113 675 222 q 396 43 495 43 q 157 217 229 43 q 117 456 117 317 m 551 1103 l 510 1152 l 326 1008 l 354 970 l 551 1103 z "},"Ô":{"ha":792,"x_min":54,"x_max":738,"o":"m 738 456 q 606 848 738 724 q 400 925 524 925 q 132 766 228 925 q 54 456 54 639 q 194 60 54 178 q 396 -9 277 -9 q 666 152 571 -9 q 738 456 738 277 m 117 456 q 224 796 117 682 q 399 872 296 872 q 632 701 560 872 q 675 456 675 598 q 564 113 675 222 q 396 43 495 43 q 157 217 229 43 q 117 456 117 317 m 407 1145 l 239 1000 l 267 964 l 403 1072 l 541 963 l 571 1002 l 407 1145 z "},"Ö":{"ha":792,"x_min":54,"x_max":738,"o":"m 738 456 q 606 848 738 724 q 400 925 524 925 q 132 766 228 925 q 54 456 54 639 q 194 60 54 178 q 396 -9 277 -9 q 666 152 571 -9 q 738 456 738 277 m 117 456 q 224 796 117 682 q 399 872 296 872 q 632 701 560 872 q 675 456 675 598 q 564 113 675 222 q 396 43 495 43 q 157 217 229 43 q 117 456 117 317 m 331 1057 q 300 1105 331 1096 q 288 1107 293 1107 q 244 1069 252 1107 q 243 1057 243 1062 q 277 1008 243 1016 q 288 1006 282 1006 q 330 1044 321 1006 q 331 1057 331 1051 m 557 1057 q 524 1105 557 1097 q 513 1107 518 1107 q 471 1069 479 1107 q 469 1057 469 1062 q 500 1008 469 1017 q 513 1006 507 1006 q 556 1044 548 1006 q 557 1057 557 1051 z "},"Ò":{"ha":792,"x_min":54,"x_max":738,"o":"m 738 456 q 606 848 738 724 q 400 925 524 925 q 132 766 228 925 q 54 456 54 639 q 194 60 54 178 q 396 -9 277 -9 q 666 152 571 -9 q 738 456 738 277 m 117 456 q 224 796 117 682 q 399 872 296 872 q 632 701 560 872 q 675 456 675 598 q 564 113 675 222 q 396 43 495 43 q 157 217 229 43 q 117 456 117 317 m 277 1103 l 317 1152 l 502 1008 l 473 970 l 277 1103 z "},"Ő":{"ha":792,"x_min":54,"x_max":738,"o":"m 738 456 q 606 848 738 724 q 400 925 524 925 q 132 766 228 925 q 54 456 54 639 q 194 60 54 178 q 396 -9 277 -9 q 666 152 571 -9 q 738 456 738 277 m 117 456 q 224 796 117 682 q 399 872 296 872 q 632 701 560 872 q 675 456 675 598 q 564 113 675 222 q 396 43 495 43 q 157 217 229 43 q 117 456 117 317 m 464 1116 l 419 1162 l 245 1005 l 277 970 l 464 1116 m 686 1116 l 642 1162 l 468 1005 l 499 970 l 686 1116 z "},"Ō":{"ha":792,"x_min":54,"x_max":738,"o":"m 738 456 q 606 848 738 724 q 400 925 524 925 q 132 766 228 925 q 54 456 54 639 q 194 60 54 178 q 396 -9 277 -9 q 666 152 571 -9 q 738 456 738 277 m 117 456 q 224 796 117 682 q 399 872 296 872 q 632 701 560 872 q 675 456 675 598 q 564 113 675 222 q 396 43 495 43 q 157 217 229 43 q 117 456 117 317 m 235 1081 l 235 1034 l 567 1034 l 567 1081 l 235 1081 z "},"Ø":{"ha":792,"x_min":54,"x_max":738,"o":"m 570 1008 l 530 898 q 400 925 471 925 q 132 766 228 925 q 54 456 54 639 q 195 58 54 178 q 222 38 209 46 l 180 -79 l 227 -94 l 266 15 q 396 -9 323 -9 q 666 152 571 -9 q 738 456 738 277 q 612 842 738 718 q 572 875 593 861 l 614 994 l 570 1008 m 117 456 q 224 796 117 682 q 399 872 296 872 q 511 845 461 872 l 243 96 q 117 456 118 203 m 396 43 q 285 69 336 43 l 552 818 q 675 484 667 718 q 675 456 675 469 q 564 113 675 222 q 396 43 495 43 z "},"Õ":{"ha":792,"x_min":54,"x_max":738,"o":"m 738 456 q 606 848 738 724 q 400 925 524 925 q 132 766 228 925 q 54 456 54 639 q 194 60 54 178 q 396 -9 277 -9 q 666 152 571 -9 q 738 456 738 277 m 117 456 q 224 796 117 682 q 399 872 296 872 q 632 701 560 872 q 675 456 675 598 q 564 113 675 222 q 396 43 495 43 q 157 217 229 43 q 117 456 117 317 m 483 1057 q 406 1084 458 1057 q 334 1105 366 1104 q 221 1053 274 1104 l 250 1024 q 330 1057 286 1057 q 407 1029 355 1057 q 484 1008 449 1008 q 583 1062 538 1009 l 555 1092 q 483 1057 522 1057 z "},"P":{"ha":640,"x_min":115,"x_max":613,"o":"m 172 0 l 172 400 l 324 400 q 570 518 492 400 q 613 674 613 586 q 399 913 613 882 q 311 918 357 918 q 115 916 179 918 l 115 0 l 172 0 m 301 868 q 540 743 502 868 q 551 662 551 708 q 370 457 551 490 q 285 450 331 450 l 172 450 l 172 864 q 301 868 296 868 z "},"Q":{"ha":792,"x_min":54,"x_max":738,"o":"m 738 456 q 608 845 738 720 q 399 925 524 925 q 129 764 225 925 q 54 456 54 637 q 194 60 54 178 q 396 -9 277 -9 q 423 -8 414 -9 q 541 -148 426 -127 q 716 -127 617 -161 l 703 -81 q 511 -83 572 -129 q 477 1 477 -54 q 694 213 625 41 q 738 456 738 321 m 117 456 q 224 796 117 682 q 399 872 296 872 q 632 701 560 872 q 675 456 675 598 q 564 113 675 222 q 396 43 495 43 q 157 217 229 43 q 117 456 117 317 z "},"R":{"ha":677,"x_min":115,"x_max":650,"o":"m 172 0 l 172 414 l 311 414 q 357 415 342 414 l 543 47 q 621 -9 574 -8 q 650 -7 636 -9 l 646 35 l 640 35 q 589 75 606 38 l 412 425 q 608 598 570 458 q 617 677 617 635 q 415 910 617 876 q 311 918 368 918 q 115 916 179 918 l 115 0 l 172 0 m 301 868 q 536 773 490 868 q 555 669 555 731 q 298 464 552 465 l 172 464 l 172 864 q 301 868 296 868 z "},"Ŕ":{"ha":677,"x_min":115,"x_max":650,"o":"m 172 0 l 172 414 l 311 414 q 357 415 342 414 l 543 47 q 621 -9 574 -8 q 650 -7 636 -9 l 646 35 l 640 35 q 589 75 606 38 l 412 425 q 608 598 570 458 q 617 677 617 635 q 415 910 617 876 q 311 918 368 918 q 115 916 179 918 l 115 0 l 172 0 m 301 868 q 536 773 490 868 q 555 669 555 731 q 298 464 552 465 l 172 464 l 172 864 q 301 868 296 868 m 477 1116 l 437 1165 l 252 1021 l 281 983 l 477 1116 z "},"Ř":{"ha":677,"x_min":115,"x_max":650,"o":"m 172 0 l 172 414 l 311 414 q 357 415 342 414 l 543 47 q 621 -9 574 -8 q 650 -7 636 -9 l 646 35 l 640 35 q 589 75 606 38 l 412 425 q 608 598 570 458 q 617 677 617 635 q 415 910 617 876 q 311 918 368 918 q 115 916 179 918 l 115 0 l 172 0 m 301 868 q 536 773 490 868 q 555 669 555 731 q 298 464 552 465 l 172 464 l 172 864 q 301 868 296 868 m 324 977 l 492 1122 l 464 1157 l 328 1050 l 190 1158 l 160 1119 l 324 977 z "},"S":{"ha":612,"x_min":61,"x_max":547,"o":"m 544 229 q 425 441 544 363 q 292 511 404 454 q 160 620 189 564 q 142 696 142 655 q 232 850 142 802 q 330 875 278 875 q 486 793 433 875 q 498 773 492 783 l 547 798 q 382 921 502 901 q 335 925 358 925 q 144 849 218 925 q 83 696 83 785 q 197 496 83 571 q 328 427 214 486 q 465 313 434 374 q 484 229 484 275 q 387 60 484 106 q 294 41 345 41 q 91 113 195 42 l 61 66 q 290 -9 170 -9 q 499 83 429 -9 q 544 229 544 144 z "},"Ś":{"ha":612,"x_min":61,"x_max":547,"o":"m 544 229 q 425 441 544 363 q 292 511 404 454 q 160 620 189 564 q 142 696 142 655 q 232 850 142 802 q 330 875 278 875 q 486 793 433 875 q 498 773 492 783 l 547 798 q 382 921 502 901 q 335 925 358 925 q 144 849 218 925 q 83 696 83 785 q 197 496 83 571 q 328 427 214 486 q 465 313 434 374 q 484 229 484 275 q 387 60 484 106 q 294 41 345 41 q 91 113 195 42 l 61 66 q 290 -9 170 -9 q 499 83 429 -9 q 544 229 544 144 m 465 1116 l 425 1165 l 240 1021 l 269 983 l 465 1116 z "},"Š":{"ha":612,"x_min":61,"x_max":547,"o":"m 544 229 q 425 441 544 363 q 292 511 404 454 q 160 620 189 564 q 142 696 142 655 q 232 850 142 802 q 330 875 278 875 q 486 793 433 875 q 498 773 492 783 l 547 798 q 382 921 502 901 q 335 925 358 925 q 144 849 218 925 q 83 696 83 785 q 197 496 83 571 q 328 427 214 486 q 465 313 434 374 q 484 229 484 275 q 387 60 484 106 q 294 41 345 41 q 91 113 195 42 l 61 66 q 290 -9 170 -9 q 499 83 429 -9 q 544 229 544 144 m 312 977 l 480 1122 l 452 1157 l 316 1050 l 178 1158 l 148 1119 l 312 977 z "},"T":{"ha":553,"x_min":12,"x_max":538,"o":"m 12 917 l 12 867 l 247 867 l 247 0 l 304 0 l 304 867 l 538 867 l 538 917 l 12 917 z "},"Ť":{"ha":553,"x_min":12,"x_max":538,"o":"m 12 917 l 12 867 l 247 867 l 247 0 l 304 0 l 304 867 l 538 867 l 538 917 l 12 917 m 274 977 l 442 1122 l 414 1157 l 278 1050 l 140 1158 l 110 1119 l 274 977 z "},"Þ":{"ha":647,"x_min":115,"x_max":613,"o":"m 324 221 q 570 339 492 221 q 613 495 613 407 q 380 736 613 712 q 311 739 346 739 l 172 738 l 172 916 l 115 916 l 115 0 l 172 0 l 172 221 l 324 221 m 301 689 q 541 562 505 690 q 551 483 551 526 q 370 278 551 311 q 285 271 331 271 l 172 271 l 172 688 l 301 689 z "},"U":{"ha":817,"x_min":115,"x_max":701,"o":"m 701 319 l 701 916 l 644 916 l 644 319 q 422 42 644 53 q 404 42 412 42 q 176 267 203 42 q 172 338 172 301 l 172 916 l 115 916 l 115 338 q 327 -3 115 45 q 407 -11 365 -11 q 656 123 582 -11 q 701 319 701 203 z "},"Ú":{"ha":817,"x_min":115,"x_max":701,"o":"m 701 319 l 701 916 l 644 916 l 644 319 q 422 42 644 53 q 404 42 412 42 q 176 267 203 42 q 172 338 172 301 l 172 916 l 115 916 l 115 338 q 327 -3 115 45 q 407 -11 365 -11 q 656 123 582 -11 q 701 319 701 203 m 559 1116 l 518 1165 l 334 1021 l 362 983 l 559 1116 z "},"Û":{"ha":817,"x_min":115,"x_max":701,"o":"m 701 319 l 701 916 l 644 916 l 644 319 q 422 42 644 53 q 404 42 412 42 q 176 267 203 42 q 172 338 172 301 l 172 916 l 115 916 l 115 338 q 327 -3 115 45 q 407 -11 365 -11 q 656 123 582 -11 q 701 319 701 203 m 415 1158 l 247 1013 l 275 978 l 411 1085 l 549 977 l 579 1016 l 415 1158 z "},"Ü":{"ha":817,"x_min":115,"x_max":701,"o":"m 701 319 l 701 916 l 644 916 l 644 319 q 422 42 644 53 q 404 42 412 42 q 176 267 203 42 q 172 338 172 301 l 172 916 l 115 916 l 115 338 q 327 -3 115 45 q 407 -11 365 -11 q 656 123 582 -11 q 701 319 701 203 m 339 1070 q 308 1119 339 1109 q 296 1120 301 1120 q 252 1082 260 1120 q 251 1070 251 1076 q 285 1021 251 1029 q 296 1020 290 1020 q 338 1058 330 1020 q 339 1070 339 1065 m 566 1070 q 532 1119 566 1111 q 521 1120 526 1120 q 479 1082 487 1120 q 477 1070 477 1076 q 509 1021 477 1031 q 521 1020 515 1020 q 564 1058 556 1020 q 566 1070 566 1065 z "},"Ù":{"ha":817,"x_min":115,"x_max":701,"o":"m 701 319 l 701 916 l 644 916 l 644 319 q 422 42 644 53 q 404 42 412 42 q 176 267 203 42 q 172 338 172 301 l 172 916 l 115 916 l 115 338 q 327 -3 115 45 q 407 -11 365 -11 q 656 123 582 -11 q 701 319 701 203 m 285 1116 l 326 1165 l 510 1021 l 481 983 l 285 1116 z "},"Ű":{"ha":817,"x_min":115,"x_max":701,"o":"m 701 319 l 701 916 l 644 916 l 644 319 q 422 42 644 53 q 404 42 412 42 q 176 267 203 42 q 172 338 172 301 l 172 916 l 115 916 l 115 338 q 327 -3 115 45 q 407 -11 365 -11 q 656 123 582 -11 q 701 319 701 203 m 472 1130 l 427 1176 l 254 1019 l 285 983 l 472 1130 m 694 1130 l 650 1176 l 476 1019 l 507 983 l 694 1130 z "},"Ū":{"ha":817,"x_min":115,"x_max":701,"o":"m 701 319 l 701 916 l 644 916 l 644 319 q 422 42 644 53 q 404 42 412 42 q 176 267 203 42 q 172 338 172 301 l 172 916 l 115 916 l 115 338 q 327 -3 115 45 q 407 -11 365 -11 q 656 123 582 -11 q 701 319 701 203 m 243 1095 l 243 1047 l 575 1047 l 575 1095 l 243 1095 z "},"Ų":{"ha":817,"x_min":115,"x_max":701,"o":"m 701 319 l 701 916 l 644 916 l 644 319 q 422 42 644 53 q 404 42 412 42 q 176 267 203 42 q 172 338 172 301 l 172 916 l 115 916 l 115 338 q 327 -3 115 45 q 407 -11 365 -11 l 411 -11 q 324 -148 326 -73 q 404 -255 324 -229 q 457 -262 430 -262 q 515 -255 484 -262 l 513 -214 q 469 -220 492 -220 q 380 -165 397 -220 q 376 -140 376 -153 q 490 -1 378 -61 q 686 199 644 37 q 701 319 701 254 z "},"Ů":{"ha":817,"x_min":115,"x_max":701,"o":"m 701 319 l 701 916 l 644 916 l 644 319 q 422 42 644 53 q 404 42 412 42 q 176 267 203 42 q 172 338 172 301 l 172 916 l 115 916 l 115 338 q 327 -3 115 45 q 407 -11 365 -11 q 656 123 582 -11 q 701 319 701 203 m 538 1078 q 465 1198 538 1168 q 415 1207 441 1207 q 307 1147 340 1207 q 289 1077 289 1116 q 365 958 289 985 q 412 949 388 949 q 521 1008 486 949 q 538 1078 538 1039 m 334 1077 q 387 1164 334 1145 q 412 1168 400 1168 q 484 1120 464 1168 q 494 1077 494 1100 q 441 991 494 1010 q 414 987 427 987 q 343 1034 365 987 q 334 1077 334 1054 z "},"V":{"ha":696,"x_min":16,"x_max":680,"o":"m 381 0 l 680 916 l 621 916 l 414 270 q 349 50 376 151 q 279 273 331 110 l 80 916 l 16 916 l 308 0 l 381 0 z "},"W":{"ha":1006,"x_min":20,"x_max":986,"o":"m 286 0 l 458 601 q 505 798 481 685 q 548 601 536 646 l 708 0 l 769 0 l 986 916 l 930 916 l 779 273 q 753 142 770 239 q 739 75 743 95 q 696 271 712 213 l 530 884 l 483 882 l 308 273 q 259 68 290 214 q 222 270 228 244 l 80 916 l 20 916 l 224 0 l 286 0 z "},"X":{"ha":704,"x_min":9,"x_max":699,"o":"m 694 38 q 654 60 671 35 q 644 75 650 66 l 382 472 l 662 916 l 601 916 l 353 518 l 94 916 l 30 916 l 315 479 l 9 0 l 71 0 l 345 433 l 595 47 q 671 -8 633 -7 q 699 -4 685 -8 l 694 38 z "},"Y":{"ha":608,"x_min":1,"x_max":608,"o":"m 328 0 l 328 346 l 608 916 l 548 916 l 387 582 q 304 396 343 492 q 221 585 263 494 l 64 916 l 1 916 l 271 347 l 271 0 l 328 0 z "},"Ý":{"ha":608,"x_min":1,"x_max":608,"o":"m 328 0 l 328 346 l 608 916 l 548 916 l 387 582 q 304 396 343 492 q 221 585 263 494 l 64 916 l 1 916 l 271 347 l 271 0 l 328 0 m 456 1116 l 415 1165 l 231 1021 l 259 983 l 456 1116 z "},"Ÿ":{"ha":608,"x_min":1,"x_max":608,"o":"m 328 0 l 328 346 l 608 916 l 548 916 l 387 582 q 304 396 343 492 q 221 585 263 494 l 64 916 l 1 916 l 271 347 l 271 0 l 328 0 m 236 1070 q 205 1119 236 1109 q 193 1120 198 1120 q 149 1082 157 1120 q 148 1070 148 1076 q 182 1021 148 1029 q 193 1020 187 1020 q 235 1058 227 1020 q 236 1070 236 1065 m 463 1070 q 429 1119 463 1111 q 418 1120 423 1120 q 376 1082 384 1120 q 374 1070 374 1076 q 406 1021 374 1031 q 418 1020 412 1020 q 461 1058 453 1020 q 463 1070 463 1065 z "},"Z":{"ha":635,"x_min":45,"x_max":590,"o":"m 111 54 l 590 868 l 590 917 l 56 917 l 56 864 l 526 864 l 45 50 l 45 0 l 585 0 l 585 54 l 111 54 z "},"Ź":{"ha":635,"x_min":45,"x_max":590,"o":"m 111 54 l 590 868 l 590 917 l 56 917 l 56 864 l 526 864 l 45 50 l 45 0 l 585 0 l 585 54 l 111 54 m 473 1116 l 433 1165 l 248 1021 l 277 983 l 473 1116 z "},"Ž":{"ha":635,"x_min":45,"x_max":590,"o":"m 111 54 l 590 868 l 590 917 l 56 917 l 56 864 l 526 864 l 45 50 l 45 0 l 585 0 l 585 54 l 111 54 m 320 977 l 488 1122 l 460 1157 l 324 1050 l 186 1158 l 156 1119 l 320 977 z "},"Ż":{"ha":635,"x_min":45,"x_max":590,"o":"m 111 54 l 590 868 l 590 917 l 56 917 l 56 864 l 526 864 l 45 50 l 45 0 l 585 0 l 585 54 l 111 54 m 368 1072 q 334 1120 368 1112 q 323 1122 328 1122 q 279 1084 288 1122 q 278 1072 278 1077 q 312 1021 278 1029 q 323 1020 317 1020 q 366 1058 359 1020 q 368 1072 368 1066 z "},"a":{"ha":574,"x_min":31,"x_max":555,"o":"m 519 -9 q 555 -7 534 -9 l 552 35 q 530 34 543 34 q 465 88 476 34 q 461 140 461 109 l 461 494 q 351 673 461 629 q 266 688 312 688 q 60 624 157 686 l 84 581 q 264 640 178 640 q 401 540 377 640 q 407 490 407 517 l 407 377 q 309 384 369 384 q 62 289 133 384 q 31 191 31 244 q 142 5 31 47 q 227 -9 180 -9 q 391 66 323 -9 q 410 91 401 79 q 492 -8 420 3 q 519 -9 506 -9 m 236 38 q 91 168 102 38 q 90 191 90 180 q 279 339 90 330 q 307 339 293 339 q 407 332 366 339 l 407 212 q 315 60 407 109 q 236 38 274 38 z "},"á":{"ha":574,"x_min":31,"x_max":555,"o":"m 519 -9 q 555 -7 534 -9 l 552 35 q 530 34 543 34 q 465 88 476 34 q 461 140 461 109 l 461 494 q 351 673 461 629 q 266 688 312 688 q 60 624 157 686 l 84 581 q 264 640 178 640 q 401 540 377 640 q 407 490 407 517 l 407 377 q 309 384 369 384 q 62 289 133 384 q 31 191 31 244 q 142 5 31 47 q 227 -9 180 -9 q 391 66 323 -9 q 410 91 401 79 q 492 -8 420 3 q 519 -9 506 -9 m 236 38 q 91 168 102 38 q 90 191 90 180 q 279 339 90 330 q 307 339 293 339 q 407 332 366 339 l 407 212 q 315 60 407 109 q 236 38 274 38 m 419 920 l 378 968 l 194 825 l 222 787 l 419 920 z "},"ă":{"ha":574,"x_min":31,"x_max":555,"o":"m 519 -9 q 555 -7 534 -9 l 552 35 q 530 34 543 34 q 465 88 476 34 q 461 140 461 109 l 461 494 q 351 673 461 629 q 266 688 312 688 q 60 624 157 686 l 84 581 q 264 640 178 640 q 401 540 377 640 q 407 490 407 517 l 407 377 q 309 384 369 384 q 62 289 133 384 q 31 191 31 244 q 142 5 31 47 q 227 -9 180 -9 q 391 66 323 -9 q 410 91 401 79 q 492 -8 420 3 q 519 -9 506 -9 m 236 38 q 91 168 102 38 q 90 191 90 180 q 279 339 90 330 q 307 339 293 339 q 407 332 366 339 l 407 212 q 315 60 407 109 q 236 38 274 38 m 122 944 q 203 818 123 852 q 267 806 235 806 q 393 869 351 806 q 418 944 415 902 l 374 947 q 302 857 365 878 q 270 852 286 852 q 179 905 208 852 q 167 949 170 925 l 122 944 z "},"â":{"ha":574,"x_min":31,"x_max":555,"o":"m 519 -9 q 555 -7 534 -9 l 552 35 q 530 34 543 34 q 465 88 476 34 q 461 140 461 109 l 461 494 q 351 673 461 629 q 266 688 312 688 q 60 624 157 686 l 84 581 q 264 640 178 640 q 401 540 377 640 q 407 490 407 517 l 407 377 q 309 384 369 384 q 62 289 133 384 q 31 191 31 244 q 142 5 31 47 q 227 -9 180 -9 q 391 66 323 -9 q 410 91 401 79 q 492 -8 420 3 q 519 -9 506 -9 m 236 38 q 91 168 102 38 q 90 191 90 180 q 279 339 90 330 q 307 339 293 339 q 407 332 366 339 l 407 212 q 315 60 407 109 q 236 38 274 38 m 275 962 l 107 817 l 136 781 l 271 888 l 410 780 l 439 819 l 275 962 z "},"´":{"ha":454,"x_min":134,"x_max":359,"o":"m 359 920 l 319 968 l 134 825 l 163 787 l 359 920 z "},"ä":{"ha":574,"x_min":31,"x_max":555,"o":"m 519 -9 q 555 -7 534 -9 l 552 35 q 530 34 543 34 q 465 88 476 34 q 461 140 461 109 l 461 494 q 351 673 461 629 q 266 688 312 688 q 60 624 157 686 l 84 581 q 264 640 178 640 q 401 540 377 640 q 407 490 407 517 l 407 377 q 309 384 369 384 q 62 289 133 384 q 31 191 31 244 q 142 5 31 47 q 227 -9 180 -9 q 391 66 323 -9 q 410 91 401 79 q 492 -8 420 3 q 519 -9 506 -9 m 236 38 q 91 168 102 38 q 90 191 90 180 q 279 339 90 330 q 307 339 293 339 q 407 332 366 339 l 407 212 q 315 60 407 109 q 236 38 274 38 m 199 873 q 168 922 199 913 q 156 924 161 924 q 113 886 121 924 q 111 873 111 879 q 145 825 111 833 q 156 823 151 823 q 198 861 190 823 q 199 873 199 868 m 426 873 q 392 922 426 914 q 381 924 387 924 q 339 886 347 924 q 338 873 338 879 q 369 825 338 834 q 381 823 376 823 q 425 861 416 823 q 426 873 426 868 z "},"æ":{"ha":939,"x_min":35,"x_max":894,"o":"m 661 640 q 827 490 792 640 q 837 389 837 442 l 467 388 q 586 624 481 571 q 661 640 621 640 m 879 39 l 861 81 q 694 39 773 39 q 495 174 551 39 q 465 338 465 243 l 465 340 l 894 340 l 894 368 q 704 685 894 655 q 661 688 682 688 q 457 553 524 686 q 324 682 431 658 q 270 688 297 688 q 64 624 161 686 l 88 581 q 269 640 182 640 q 406 540 381 640 q 411 490 411 517 l 411 377 q 313 384 373 384 q 66 289 137 384 q 35 191 35 244 q 146 5 35 47 q 231 -9 184 -9 q 389 60 320 -9 q 445 148 426 98 q 647 -7 505 11 q 685 -9 666 -9 q 879 39 776 -8 m 240 38 q 95 168 106 38 q 94 191 94 180 q 283 339 94 330 q 311 339 297 339 q 411 332 370 339 l 411 212 q 319 60 411 109 q 240 38 278 38 z "},"à":{"ha":574,"x_min":31,"x_max":555,"o":"m 519 -9 q 555 -7 534 -9 l 552 35 q 530 34 543 34 q 465 88 476 34 q 461 140 461 109 l 461 494 q 351 673 461 629 q 266 688 312 688 q 60 624 157 686 l 84 581 q 264 640 178 640 q 401 540 377 640 q 407 490 407 517 l 407 377 q 309 384 369 384 q 62 289 133 384 q 31 191 31 244 q 142 5 31 47 q 227 -9 180 -9 q 391 66 323 -9 q 410 91 401 79 q 492 -8 420 3 q 519 -9 506 -9 m 236 38 q 91 168 102 38 q 90 191 90 180 q 279 339 90 330 q 307 339 293 339 q 407 332 366 339 l 407 212 q 315 60 407 109 q 236 38 274 38 m 145 920 l 186 968 l 370 825 l 342 787 l 145 920 z "},"ā":{"ha":574,"x_min":31,"x_max":555,"o":"m 519 -9 q 555 -7 534 -9 l 552 35 q 530 34 543 34 q 465 88 476 34 q 461 140 461 109 l 461 494 q 351 673 461 629 q 266 688 312 688 q 60 624 157 686 l 84 581 q 264 640 178 640 q 401 540 377 640 q 407 490 407 517 l 407 377 q 309 384 369 384 q 62 289 133 384 q 31 191 31 244 q 142 5 31 47 q 227 -9 180 -9 q 391 66 323 -9 q 410 91 401 79 q 492 -8 420 3 q 519 -9 506 -9 m 236 38 q 91 168 102 38 q 90 191 90 180 q 279 339 90 330 q 307 339 293 339 q 407 332 366 339 l 407 212 q 315 60 407 109 q 236 38 274 38 m 103 898 l 103 850 l 435 850 l 435 898 l 103 898 z "},"&":{"ha":882,"x_min":87,"x_max":814,"o":"m 227 821 q 302 937 228 910 q 350 945 326 945 q 456 876 430 945 q 465 821 465 850 q 357 623 465 726 q 321 590 340 608 q 227 821 227 735 m 370 41 q 191 122 256 41 q 144 262 144 182 q 252 463 144 359 q 308 511 274 483 q 602 168 410 368 q 389 42 521 52 q 370 41 378 41 m 741 483 l 685 483 q 633 221 685 331 q 351 548 450 412 q 502 726 469 650 q 522 821 522 773 q 427 977 522 936 q 349 993 391 993 q 197 916 244 993 q 171 819 171 875 q 279 553 172 715 q 127 397 165 457 q 87 262 87 331 q 203 35 87 110 q 361 -9 274 -9 q 613 104 509 -9 q 637 133 627 118 q 773 -3 642 127 l 814 35 q 742 109 793 57 q 670 182 694 156 q 741 483 741 307 z "},"ං":{"ha":369,"x_min":34,"x_max":335,"o":"m 84 361 q 184 203 95 212 q 285 361 281 214 q 199 515 285 503 q 184 517 191 517 q 84 377 91 517 q 84 361 84 369 m 34 361 q 117 549 34 502 q 184 567 148 567 q 320 463 283 567 q 335 361 335 416 q 184 153 332 155 q 34 361 35 156 z "},"ą":{"ha":578,"x_min":31,"x_max":566,"o":"m 566 -248 l 563 -208 q 519 -213 543 -213 q 425 -159 444 -213 q 420 -133 420 -145 q 529 -18 420 -61 q 559 -7 544 -12 l 555 -5 l 552 35 q 530 34 543 34 q 465 88 476 34 q 461 140 461 109 l 461 494 q 351 673 461 629 q 266 688 312 688 q 60 624 157 686 l 84 581 q 264 640 178 640 q 401 540 377 640 q 407 490 407 517 l 407 377 q 309 384 369 384 q 62 289 133 384 q 31 191 31 244 q 142 5 31 47 q 227 -9 180 -9 q 391 66 323 -9 q 410 91 401 79 q 483 -5 422 8 q 372 -123 387 -49 q 369 -145 369 -136 q 435 -241 369 -213 q 507 -255 468 -255 q 566 -248 534 -255 m 236 38 q 91 168 102 38 q 90 191 90 180 q 279 339 90 330 q 307 339 293 339 q 407 332 366 339 l 407 212 q 315 60 407 109 q 236 38 274 38 z "},"≈":{"ha":689,"x_min":68,"x_max":621,"o":"m 476 425 q 351 463 437 425 q 221 499 271 499 q 68 430 138 498 l 100 397 q 218 445 157 445 q 350 406 264 445 q 475 370 426 370 q 621 442 559 372 l 587 475 q 476 425 536 425 m 476 255 q 351 293 437 255 q 221 330 273 330 q 68 260 138 328 l 100 228 q 218 275 157 275 q 350 236 264 275 q 475 201 426 201 q 621 273 559 202 l 587 305 q 476 255 536 255 z "},"å":{"ha":574,"x_min":31,"x_max":555,"o":"m 519 -9 q 555 -7 534 -9 l 552 35 q 530 34 543 34 q 465 88 476 34 q 461 140 461 109 l 461 494 q 351 673 461 629 q 266 688 312 688 q 60 624 157 686 l 84 581 q 264 640 178 640 q 401 540 377 640 q 407 490 407 517 l 407 377 q 309 384 369 384 q 62 289 133 384 q 31 191 31 244 q 142 5 31 47 q 227 -9 180 -9 q 391 66 323 -9 q 410 91 401 79 q 492 -8 420 3 q 519 -9 506 -9 m 236 38 q 91 168 102 38 q 90 191 90 180 q 279 339 90 330 q 307 339 293 339 q 407 332 366 339 l 407 212 q 315 60 407 109 q 236 38 274 38 m 399 882 q 326 1001 399 971 q 275 1010 301 1010 q 167 951 201 1010 q 149 880 149 920 q 225 761 149 788 q 273 753 248 753 q 381 811 346 753 q 399 882 399 842 m 194 880 q 247 967 194 948 q 273 971 260 971 q 345 924 324 971 q 354 880 354 903 q 301 795 354 814 q 274 791 288 791 q 203 837 225 791 q 194 880 194 857 z "},"^":{"ha":690,"x_min":81,"x_max":609,"o":"m 346 925 l 81 537 l 119 513 l 345 845 l 570 514 l 609 541 l 346 925 z "},"~":{"ha":689,"x_min":68,"x_max":621,"o":"m 621 365 l 587 397 q 476 347 536 347 q 351 385 437 347 q 221 422 271 422 q 68 353 138 420 l 100 320 q 218 368 157 368 q 350 328 264 368 q 475 293 426 293 q 621 365 559 294 z "},"*":{"ha":505,"x_min":53,"x_max":454,"o":"m 264 804 l 283 914 q 251 974 293 971 q 216 967 235 974 l 236 804 l 264 804 m 227 793 l 126 846 q 57 830 69 878 q 54 799 54 817 l 218 769 l 227 793 m 224 760 l 142 680 q 140 608 95 633 q 165 598 151 602 l 244 742 l 224 760 m 259 742 l 311 640 q 363 605 332 593 q 395 636 381 613 l 281 758 l 259 742 m 285 770 l 393 788 q 441 836 453 795 q 423 867 435 850 l 275 796 l 285 770 z "},"@":{"ha":1040,"x_min":88,"x_max":959,"o":"m 764 -22 l 745 19 q 533 -20 647 -20 q 182 205 270 -22 q 144 441 144 304 q 275 772 145 648 q 541 873 385 873 q 826 742 724 873 q 906 491 906 639 q 743 189 905 190 q 680 239 688 189 q 677 267 677 252 l 677 552 q 579 696 677 663 q 513 707 548 707 q 336 656 415 705 l 358 620 q 511 665 430 665 q 624 575 609 665 q 625 549 625 563 l 625 463 q 541 467 586 467 q 331 369 376 467 q 317 305 317 339 q 401 161 317 202 q 476 145 437 145 q 625 218 568 145 q 629 224 628 221 q 738 145 646 146 q 941 330 894 145 q 959 492 959 400 q 822 821 959 701 q 543 918 708 918 q 213 779 342 920 q 88 441 90 643 q 292 -7 88 113 q 532 -65 392 -65 q 764 -22 658 -66 m 483 187 q 380 262 401 187 q 374 308 374 283 q 540 427 377 426 q 625 423 585 427 l 625 326 q 552 205 625 243 q 483 187 518 187 z "},"ã":{"ha":574,"x_min":31,"x_max":555,"o":"m 519 -9 q 555 -7 534 -9 l 552 35 q 530 34 543 34 q 465 88 476 34 q 461 140 461 109 l 461 494 q 351 673 461 629 q 266 688 312 688 q 60 624 157 686 l 84 581 q 264 640 178 640 q 401 540 377 640 q 407 490 407 517 l 407 377 q 309 384 369 384 q 62 289 133 384 q 31 191 31 244 q 142 5 31 47 q 227 -9 180 -9 q 391 66 323 -9 q 410 91 401 79 q 492 -8 420 3 q 519 -9 506 -9 m 236 38 q 91 168 102 38 q 90 191 90 180 q 279 339 90 330 q 307 339 293 339 q 407 332 366 339 l 407 212 q 315 60 407 109 q 236 38 274 38 m 351 873 q 274 901 327 873 q 202 922 235 921 q 90 869 142 921 l 118 841 q 198 873 155 873 q 275 846 224 873 q 353 825 317 825 q 452 879 407 826 l 423 909 q 351 873 391 873 z "},"b":{"ha":659,"x_min":114,"x_max":595,"o":"m 595 370 q 488 643 595 559 q 361 688 431 688 q 168 563 237 686 l 168 983 l 114 983 l 114 46 q 323 -9 209 -8 q 536 122 460 -9 q 595 370 595 225 m 168 76 l 168 399 q 264 616 168 553 q 353 642 305 642 q 494 553 441 642 q 537 370 537 480 q 435 80 537 165 q 315 38 382 38 q 168 76 240 38 z "},"\\":{"ha":518,"x_min":34,"x_max":481,"o":"m 429 -95 l 481 -94 l 84 983 l 34 983 l 429 -95 z "},"|":{"ha":430,"x_min":190,"x_max":240,"o":"m 193 983 l 190 -95 l 240 -95 l 240 983 l 193 983 z "},"{":{"ha":349,"x_min":54,"x_max":319,"o":"m 319 -237 l 316 -191 q 278 -193 304 -193 q 206 -136 218 -193 q 202 -77 202 -113 l 202 296 q 136 403 201 382 q 202 511 201 427 l 202 875 q 241 983 202 966 q 278 990 256 990 q 316 989 307 990 l 319 1035 q 267 1039 296 1039 q 159 968 179 1039 q 149 878 149 935 l 149 519 q 90 427 149 441 q 54 425 73 425 l 54 382 q 146 323 133 382 q 149 288 149 307 l 149 -80 q 198 -227 149 -197 q 267 -241 225 -241 q 319 -237 297 -241 z "},"}":{"ha":349,"x_min":30,"x_max":294,"o":"m 30 1032 l 33 986 q 71 987 45 987 q 142 930 130 987 q 146 872 146 907 l 146 499 q 213 392 148 412 q 146 283 148 368 l 146 -80 q 107 -189 146 -171 q 71 -195 92 -195 q 33 -194 42 -195 l 30 -240 q 81 -244 53 -244 q 190 -174 170 -244 q 199 -83 199 -140 l 199 275 q 259 368 199 354 q 294 370 275 370 l 294 412 q 202 472 216 412 q 199 507 199 488 l 199 875 q 151 1021 199 991 q 81 1036 123 1036 q 30 1032 52 1036 z "},"[":{"ha":361,"x_min":122,"x_max":320,"o":"m 320 -232 l 320 -187 l 175 -187 l 175 983 l 320 983 l 320 1028 l 122 1028 l 122 -232 l 320 -232 z "},"]":{"ha":361,"x_min":41,"x_max":239,"o":"m 41 1035 l 41 990 l 186 990 l 186 -180 l 41 -180 l 41 -225 l 239 -225 l 239 1035 l 41 1035 z "},"˘":{"ha":511,"x_min":107,"x_max":403,"o":"m 107 944 q 189 818 109 852 q 252 806 220 806 q 378 869 336 806 q 403 944 400 902 l 359 947 q 288 857 350 878 q 255 852 271 852 q 164 905 193 852 q 152 949 155 925 l 107 944 z "},"¦":{"ha":430,"x_min":190,"x_max":240,"o":"m 193 313 l 190 -95 l 240 -95 l 240 313 l 193 313 m 193 983 l 190 576 l 240 576 l 240 983 l 193 983 z "},"•":{"ha":461,"x_min":122,"x_max":339,"o":"m 339 399 q 283 498 339 467 q 231 511 259 511 q 134 453 164 511 q 122 399 122 427 q 178 301 122 332 q 231 288 202 288 q 326 345 296 288 q 339 399 339 370 z "},"c":{"ha":513,"x_min":54,"x_max":509,"o":"m 496 46 l 477 87 q 311 38 389 38 q 133 184 179 38 q 113 338 113 251 q 213 613 113 544 q 301 640 252 640 q 465 526 406 639 l 509 548 q 358 681 463 655 q 305 688 332 688 q 99 555 167 688 q 54 339 54 467 q 175 28 54 113 q 300 -9 229 -9 q 496 46 399 -8 z "},"ć":{"ha":513,"x_min":54,"x_max":509,"o":"m 496 46 l 477 87 q 311 38 389 38 q 133 184 179 38 q 113 338 113 251 q 213 613 113 544 q 301 640 252 640 q 465 526 406 639 l 509 548 q 358 681 463 655 q 305 688 332 688 q 99 555 167 688 q 54 339 54 467 q 175 28 54 113 q 300 -9 229 -9 q 496 46 399 -8 m 460 920 l 419 968 l 235 825 l 263 787 l 460 920 z "},"ˇ":{"ha":604,"x_min":136,"x_max":468,"o":"m 300 780 l 468 925 l 439 960 l 304 853 l 165 962 l 136 922 l 300 780 z "},"č":{"ha":513,"x_min":54,"x_max":509,"o":"m 496 46 l 477 87 q 311 38 389 38 q 133 184 179 38 q 113 338 113 251 q 213 613 113 544 q 301 640 252 640 q 465 526 406 639 l 509 548 q 358 681 463 655 q 305 688 332 688 q 99 555 167 688 q 54 339 54 467 q 175 28 54 113 q 300 -9 229 -9 q 496 46 399 -8 m 307 780 l 475 925 l 446 960 l 311 853 l 172 962 l 142 922 l 307 780 z "},"ç":{"ha":513,"x_min":54,"x_max":509,"o":"m 266 -255 q 401 -183 366 -255 q 414 -130 414 -157 q 338 -12 414 -53 q 331 -8 334 -9 q 496 46 420 3 l 477 87 q 311 38 389 38 q 133 184 179 38 q 113 338 113 251 q 213 613 113 544 q 301 640 252 640 q 465 526 406 639 l 509 548 q 358 681 463 655 q 305 688 332 688 q 99 555 167 688 q 54 339 54 467 q 172 30 54 115 q 274 -8 218 -3 q 368 -114 359 -47 q 369 -125 369 -119 q 312 -199 369 -178 q 258 -209 288 -209 q 217 -205 239 -209 l 214 -250 q 266 -255 240 -255 z "},"¸":{"ha":473,"x_min":140,"x_max":339,"o":"m 191 -255 q 327 -183 292 -255 q 339 -130 339 -157 q 264 -12 339 -54 q 217 7 243 0 l 161 7 q 289 -95 264 -26 q 294 -125 294 -111 q 237 -199 294 -178 q 183 -209 213 -209 q 142 -205 164 -209 l 140 -250 q 191 -255 165 -255 z "},"¢":{"ha":583,"x_min":61,"x_max":515,"o":"m 503 73 l 484 114 q 317 65 396 65 q 142 198 191 65 q 119 351 119 264 q 212 608 119 536 q 308 640 254 640 q 449 563 391 640 q 472 526 463 545 l 515 555 q 338 686 450 671 q 327 688 332 688 l 327 789 l 282 789 l 282 686 q 96 537 155 670 q 61 353 61 457 q 179 56 61 137 q 282 19 225 24 l 282 -91 l 327 -91 l 327 18 q 503 73 416 26 z "},"ˆ":{"ha":604,"x_min":136,"x_max":468,"o":"m 304 962 l 136 817 l 164 781 l 300 888 l 438 780 l 468 819 l 304 962 z "},":":{"ha":285,"x_min":95,"x_max":190,"o":"m 190 475 q 153 525 190 518 q 142 526 148 526 q 96 486 103 526 q 95 475 95 480 q 142 422 103 429 q 189 464 183 422 q 190 475 190 469 m 190 46 q 153 96 190 90 q 142 98 148 98 q 96 57 103 98 q 95 46 95 52 q 142 -7 103 0 q 189 35 183 -7 q 190 46 190 41 z "},",":{"ha":229,"x_min":38,"x_max":156,"o":"m 156 34 q 115 96 156 87 q 104 98 110 98 q 57 61 68 98 q 54 42 54 52 q 94 -11 57 1 q 38 -136 87 -66 l 60 -156 q 152 0 133 -90 q 156 34 156 19 z "},"©":{"ha":1027,"x_min":64,"x_max":968,"o":"m 968 471 q 837 806 968 673 q 518 936 708 936 q 189 798 320 936 q 64 469 64 663 q 198 129 64 263 q 517 0 327 0 q 844 138 715 -1 q 968 471 968 274 m 708 209 l 689 250 q 528 201 601 201 q 357 326 403 201 q 335 460 335 384 q 434 712 335 650 q 518 735 472 735 q 652 659 595 735 q 677 621 667 642 l 720 650 q 557 779 661 760 q 522 783 540 783 q 319 656 384 783 q 277 461 277 575 q 393 187 277 262 q 517 153 448 153 q 708 209 610 155 m 121 471 q 245 781 121 661 q 518 890 358 890 q 807 760 693 891 q 911 469 910 640 q 788 153 911 275 q 518 46 678 45 q 225 178 339 46 q 121 471 121 298 z "},"¤":{"ha":736,"x_min":68,"x_max":662,"o":"m 632 338 q 568 551 631 467 l 661 661 l 627 690 l 537 585 q 366 647 467 647 q 193 582 264 646 l 103 690 l 69 662 l 163 549 q 91 338 91 460 q 155 126 92 208 l 68 23 l 102 -7 l 184 94 q 359 31 255 31 q 540 102 468 33 l 628 -4 l 662 24 l 568 134 q 632 338 632 220 m 149 338 q 225 541 149 464 q 365 600 283 600 q 543 481 486 600 q 574 338 574 416 q 496 132 574 206 q 361 79 439 79 q 180 195 237 79 q 149 338 149 259 z "},"d":{"ha":648,"x_min":52,"x_max":600,"o":"m 294 38 q 153 126 205 38 q 110 308 110 199 q 212 598 110 513 q 332 640 264 640 q 479 604 406 640 l 479 266 q 374 57 479 109 q 294 38 338 38 m 479 983 l 479 654 q 324 688 400 688 q 111 556 187 688 q 52 308 52 453 q 159 35 52 119 q 286 -9 216 -9 q 479 106 414 -8 q 562 -8 479 -3 q 600 -7 579 -9 l 597 35 q 537 69 548 30 q 533 121 533 88 l 533 983 l 479 983 z "},"†":{"ha":608,"x_min":41,"x_max":567,"o":"m 328 -75 l 334 370 l 330 628 l 567 625 l 567 675 l 330 673 l 334 944 l 274 944 l 278 673 l 41 675 l 41 625 l 278 628 l 274 370 l 279 -75 l 328 -75 z "},"‡":{"ha":608,"x_min":41,"x_max":567,"o":"m 567 194 l 567 244 l 330 241 l 334 438 l 330 628 l 567 625 l 567 675 l 330 673 l 334 944 l 274 944 l 278 673 l 41 675 l 41 625 l 278 628 l 274 438 l 278 241 l 41 244 l 41 194 l 278 197 l 274 -75 l 334 -75 l 330 197 l 567 194 z "},"ď":{"ha":671,"x_min":52,"x_max":712,"o":"m 294 38 q 153 126 205 38 q 110 308 110 199 q 212 598 110 513 q 332 640 264 640 q 479 604 406 640 l 479 266 q 374 57 479 109 q 294 38 338 38 m 479 983 l 479 654 q 324 688 400 688 q 111 556 187 688 q 52 308 52 453 q 159 35 52 119 q 286 -9 216 -9 q 479 106 414 -8 q 562 -8 479 -3 q 600 -7 579 -9 l 597 35 q 537 69 548 30 q 533 121 533 88 l 533 983 l 479 983 m 712 891 q 673 949 712 941 q 663 951 667 951 q 618 916 628 951 q 617 899 617 907 q 654 849 618 861 q 602 734 647 798 l 621 715 q 708 861 692 777 q 712 891 711 878 z "},"đ":{"ha":648,"x_min":52,"x_max":631,"o":"m 258 838 l 258 791 l 479 791 l 479 654 q 324 688 400 688 q 111 556 187 688 q 52 308 52 453 q 159 35 52 119 q 286 -9 216 -9 q 479 106 414 -8 q 562 -8 479 -3 q 600 -7 579 -9 l 597 35 q 537 69 548 30 q 533 121 533 88 l 533 791 l 631 791 l 631 838 l 533 838 l 533 983 l 479 983 l 479 838 l 258 838 m 294 38 q 153 126 205 38 q 110 308 110 199 q 212 598 110 513 q 332 640 264 640 q 479 604 406 640 l 479 266 q 374 57 479 109 q 294 38 338 38 z "},"°":{"ha":468,"x_min":81,"x_max":387,"o":"m 236 993 q 107 926 151 993 q 81 834 81 886 q 164 696 81 734 q 231 681 195 681 q 361 746 316 681 q 387 837 387 785 q 304 978 387 939 q 236 993 271 993 m 233 726 q 141 781 170 726 q 129 840 129 807 q 195 941 129 918 q 233 948 214 948 q 327 892 298 948 q 339 833 339 865 q 274 734 339 758 q 233 726 254 726 z "},"¨":{"ha":505,"x_min":95,"x_max":410,"o":"m 183 873 q 152 922 183 913 q 140 924 145 924 q 96 886 104 924 q 95 873 95 879 q 129 825 95 833 q 140 823 134 823 q 182 861 174 823 q 183 873 183 868 m 410 873 q 376 922 410 914 q 365 924 370 924 q 323 886 331 924 q 321 873 321 879 q 353 825 321 834 q 365 823 359 823 q 408 861 400 823 q 410 873 410 868 z "},"÷":{"ha":681,"x_min":54,"x_max":627,"o":"m 627 324 l 627 374 l 54 374 l 54 324 l 627 324 m 388 145 q 351 195 388 189 q 340 197 346 197 q 294 156 301 197 q 293 145 293 151 q 340 92 301 99 q 387 134 381 92 q 388 145 388 140 m 388 549 q 351 600 388 593 q 340 601 346 601 q 294 560 301 601 q 293 549 293 555 q 340 496 301 503 q 387 538 381 496 q 388 549 388 544 z "},"$":{"ha":686,"x_min":109,"x_max":586,"o":"m 377 -118 l 377 -7 q 560 111 511 8 q 582 213 582 156 q 465 412 582 339 q 335 479 446 423 q 205 585 232 529 q 191 650 191 614 q 282 795 191 753 q 372 814 324 814 q 538 720 494 812 l 586 745 q 400 863 537 853 q 377 864 388 864 l 377 972 l 332 972 l 332 861 q 160 755 213 844 q 132 650 132 708 q 243 464 132 533 q 370 399 259 453 q 506 289 476 347 q 522 213 522 254 q 411 50 522 84 q 339 41 377 41 q 138 107 233 42 l 109 62 q 332 -9 210 -9 l 332 -118 l 377 -118 z "},"˙":{"ha":334,"x_min":122,"x_max":212,"o":"m 212 875 q 178 924 212 916 q 167 925 172 925 q 123 887 132 925 q 122 875 122 880 q 156 825 122 833 q 167 823 161 823 q 210 861 203 823 q 212 875 212 869 z "},"ı":{"ha":285,"x_min":115,"x_max":168,"o":"m 168 0 l 168 678 l 115 678 l 115 0 l 168 0 z "},"◌":{"ha":895,"x_min":45,"x_max":850,"o":"m 92 225 q 123 270 92 258 q 140 273 132 273 q 184 241 172 273 q 187 225 187 233 q 156 180 187 193 q 140 178 148 178 q 95 209 107 178 q 92 225 92 217 m 222 95 q 254 140 222 127 q 270 142 262 142 q 315 111 302 142 q 317 95 317 103 q 286 50 317 62 q 270 47 278 47 q 225 79 237 47 q 222 95 222 87 m 708 225 q 739 270 708 258 q 755 273 747 273 q 800 241 788 273 q 803 225 803 233 q 772 180 803 193 q 755 178 764 178 q 711 209 723 178 q 708 225 708 217 m 578 95 q 609 140 578 127 q 625 142 617 142 q 670 111 658 142 q 673 95 673 103 q 642 50 673 62 q 625 47 633 47 q 581 79 593 47 q 578 95 578 87 m 92 581 q 123 625 92 613 q 140 628 132 628 q 184 597 172 628 q 187 581 187 589 q 156 536 187 548 q 140 533 148 533 q 95 564 107 533 q 92 581 92 572 m 222 711 q 254 755 222 743 q 270 758 262 758 q 315 727 302 758 q 317 711 317 719 q 286 666 317 678 q 270 663 278 663 q 225 694 237 663 q 222 711 222 703 m 708 581 q 739 625 708 613 q 755 628 747 628 q 800 597 788 628 q 803 581 803 589 q 772 536 803 548 q 755 533 764 533 q 711 564 723 533 q 708 581 708 572 m 578 711 q 609 755 578 743 q 625 758 617 758 q 670 727 658 758 q 673 711 673 719 q 642 666 673 678 q 625 663 633 663 q 581 694 593 663 q 578 711 578 703 m 45 403 q 76 448 45 435 q 92 450 84 450 q 137 419 125 450 q 140 403 140 411 q 109 358 140 370 q 92 355 100 355 q 47 387 60 355 q 45 403 45 395 m 755 403 q 787 448 755 435 q 803 450 795 450 q 848 419 836 450 q 850 403 850 411 q 819 358 850 370 q 803 355 811 355 q 758 387 770 355 q 755 403 755 395 m 400 758 q 431 803 400 791 q 448 806 439 806 q 492 774 480 806 q 495 758 495 766 q 464 713 495 726 q 448 711 456 711 q 403 742 415 711 q 400 758 400 750 m 400 47 q 431 92 400 80 q 448 95 439 95 q 492 64 480 95 q 495 47 495 56 q 464 3 495 15 q 448 0 456 0 q 403 31 415 0 q 400 47 400 39 z "},"e":{"ha":587,"x_min":58,"x_max":545,"o":"m 530 39 l 513 81 q 346 39 425 39 q 146 174 202 39 q 117 338 117 243 l 117 340 l 545 340 l 545 368 q 355 685 545 655 q 312 688 334 688 q 103 552 172 688 q 58 339 58 463 q 193 30 58 114 q 336 -9 255 -9 q 530 39 427 -8 m 312 640 q 479 490 444 640 q 488 389 488 442 l 118 388 q 240 625 133 574 q 312 640 274 640 z "},"é":{"ha":587,"x_min":58,"x_max":545,"o":"m 530 39 l 513 81 q 346 39 425 39 q 146 174 202 39 q 117 338 117 243 l 117 340 l 545 340 l 545 368 q 355 685 545 655 q 312 688 334 688 q 103 552 172 688 q 58 339 58 463 q 193 30 58 114 q 336 -9 255 -9 q 530 39 427 -8 m 312 640 q 479 490 444 640 q 488 389 488 442 l 118 388 q 240 625 133 574 q 312 640 274 640 m 473 920 l 433 968 l 248 825 l 277 787 l 473 920 z "},"ě":{"ha":587,"x_min":58,"x_max":545,"o":"m 530 39 l 513 81 q 346 39 425 39 q 146 174 202 39 q 117 338 117 243 l 117 340 l 545 340 l 545 368 q 355 685 545 655 q 312 688 334 688 q 103 552 172 688 q 58 339 58 463 q 193 30 58 114 q 336 -9 255 -9 q 530 39 427 -8 m 312 640 q 479 490 444 640 q 488 389 488 442 l 118 388 q 240 625 133 574 q 312 640 274 640 m 320 780 l 488 925 l 460 960 l 324 853 l 186 962 l 156 922 l 320 780 z "},"ê":{"ha":587,"x_min":58,"x_max":545,"o":"m 530 39 l 513 81 q 346 39 425 39 q 146 174 202 39 q 117 338 117 243 l 117 340 l 545 340 l 545 368 q 355 685 545 655 q 312 688 334 688 q 103 552 172 688 q 58 339 58 463 q 193 30 58 114 q 336 -9 255 -9 q 530 39 427 -8 m 312 640 q 479 490 444 640 q 488 389 488 442 l 118 388 q 240 625 133 574 q 312 640 274 640 m 330 962 l 161 817 l 190 781 l 326 888 l 464 780 l 494 819 l 330 962 z "},"ë":{"ha":587,"x_min":58,"x_max":545,"o":"m 530 39 l 513 81 q 346 39 425 39 q 146 174 202 39 q 117 338 117 243 l 117 340 l 545 340 l 545 368 q 355 685 545 655 q 312 688 334 688 q 103 552 172 688 q 58 339 58 463 q 193 30 58 114 q 336 -9 255 -9 q 530 39 427 -8 m 312 640 q 479 490 444 640 q 488 389 488 442 l 118 388 q 240 625 133 574 q 312 640 274 640 m 254 873 q 222 922 254 913 q 210 924 216 924 q 167 886 175 924 q 165 873 165 879 q 199 825 165 833 q 210 823 205 823 q 252 861 244 823 q 254 873 254 868 m 480 873 q 446 922 480 914 q 435 924 441 924 q 393 886 401 924 q 392 873 392 879 q 423 825 392 834 q 435 823 430 823 q 479 861 471 823 q 480 873 480 868 z "},"ė":{"ha":587,"x_min":58,"x_max":545,"o":"m 530 39 l 513 81 q 346 39 425 39 q 146 174 202 39 q 117 338 117 243 l 117 340 l 545 340 l 545 368 q 355 685 545 655 q 312 688 334 688 q 103 552 172 688 q 58 339 58 463 q 193 30 58 114 q 336 -9 255 -9 q 530 39 427 -8 m 312 640 q 479 490 444 640 q 488 389 488 442 l 118 388 q 240 625 133 574 q 312 640 274 640 m 368 875 q 334 924 368 916 q 323 925 328 925 q 279 887 288 925 q 278 875 278 880 q 312 825 278 833 q 323 823 317 823 q 366 861 359 823 q 368 875 368 869 z "},"è":{"ha":587,"x_min":58,"x_max":545,"o":"m 530 39 l 513 81 q 346 39 425 39 q 146 174 202 39 q 117 338 117 243 l 117 340 l 545 340 l 545 368 q 355 685 545 655 q 312 688 334 688 q 103 552 172 688 q 58 339 58 463 q 193 30 58 114 q 336 -9 255 -9 q 530 39 427 -8 m 312 640 q 479 490 444 640 q 488 389 488 442 l 118 388 q 240 625 133 574 q 312 640 274 640 m 199 920 l 240 968 l 425 825 l 396 787 l 199 920 z "},"…":{"ha":749,"x_min":75,"x_max":658,"o":"m 414 46 q 377 96 414 90 q 366 98 372 98 q 320 57 327 98 q 319 46 319 52 q 366 -7 327 0 q 412 35 407 -7 q 414 46 414 41 m 658 46 q 621 96 658 90 q 610 98 616 98 q 564 57 571 98 q 563 46 563 52 q 610 -7 571 0 q 656 35 651 -7 q 658 46 658 41 m 170 46 q 133 96 170 90 q 122 98 127 98 q 76 57 83 98 q 75 46 75 52 q 122 -7 83 0 q 168 35 163 -7 q 170 46 170 41 z "},"ē":{"ha":587,"x_min":58,"x_max":545,"o":"m 530 39 l 513 81 q 346 39 425 39 q 146 174 202 39 q 117 338 117 243 l 117 340 l 545 340 l 545 368 q 355 685 545 655 q 312 688 334 688 q 103 552 172 688 q 58 339 58 463 q 193 30 58 114 q 336 -9 255 -9 q 530 39 427 -8 m 312 640 q 479 490 444 640 q 488 389 488 442 l 118 388 q 240 625 133 574 q 312 640 274 640 m 157 898 l 157 850 l 490 850 l 490 898 l 157 898 z "},"—":{"ha":1356,"x_min":-1,"x_max":1358,"o":"m -1 433 l -1 381 l 1358 381 l 1358 433 l -1 433 z "},"–":{"ha":678,"x_min":-1,"x_max":680,"o":"m -1 433 l -1 381 l 680 381 l 680 433 l -1 433 z "},"ę":{"ha":587,"x_min":58,"x_max":545,"o":"m 524 -255 l 521 -214 q 477 -220 500 -220 q 387 -160 400 -220 q 384 -138 384 -149 q 458 -4 384 -68 q 506 28 480 15 q 518 34 510 30 q 530 39 526 38 l 513 81 q 346 39 425 39 q 146 174 202 39 q 117 338 117 243 l 117 340 l 545 340 l 545 368 q 355 685 545 655 q 312 688 334 688 q 103 552 172 688 q 58 339 58 463 q 193 30 58 114 q 336 -9 255 -9 q 415 -1 376 -9 q 332 -148 336 -65 q 404 -252 332 -225 q 465 -262 431 -262 q 524 -255 492 -262 m 312 640 q 479 490 444 640 q 488 389 488 442 l 118 388 q 240 625 133 574 q 312 640 274 640 z "},"=":{"ha":738,"x_min":102,"x_max":636,"o":"m 636 410 l 636 460 l 102 460 l 102 410 l 636 410 m 636 240 l 636 290 l 102 290 l 102 240 l 636 240 z "},"℮":{"ha":981,"x_min":68,"x_max":926,"o":"m 221 161 l 221 483 l 926 483 q 766 846 926 722 q 509 933 655 933 q 160 761 283 933 q 68 457 68 631 q 227 81 68 213 q 498 -14 340 -14 q 865 146 712 -12 l 833 180 q 547 35 718 52 q 506 34 525 34 q 221 161 332 35 m 776 777 l 776 530 l 221 530 l 221 760 q 490 886 321 878 q 509 886 500 886 q 776 777 670 884 z "},"ð":{"ha":650,"x_min":54,"x_max":597,"o":"m 597 431 q 431 911 597 772 q 427 916 429 914 l 530 989 l 505 1024 l 388 943 q 216 987 313 987 q 106 972 159 987 l 119 926 q 216 939 163 939 q 342 910 285 939 l 213 819 l 237 781 l 382 884 q 536 525 518 780 q 387 640 490 614 q 334 647 359 647 q 109 522 186 647 q 54 319 54 435 q 170 38 54 123 q 324 -9 235 -9 q 597 431 595 -7 m 114 317 q 198 547 114 469 q 328 597 254 597 q 511 469 458 597 q 537 328 537 407 q 445 83 537 159 q 324 41 393 41 q 140 171 194 41 q 114 317 114 235 z "},"!":{"ha":326,"x_min":113,"x_max":208,"o":"m 193 945 l 126 945 l 137 210 l 182 210 l 193 945 m 208 46 q 171 96 208 90 q 160 98 165 98 q 114 57 121 98 q 113 46 113 52 q 160 -7 121 0 q 206 35 201 -7 q 208 46 208 41 z "},"¡":{"ha":326,"x_min":118,"x_max":213,"o":"m 133 -264 l 199 -264 l 189 471 l 144 471 l 133 -264 m 118 635 q 155 585 118 591 q 165 583 160 583 q 212 624 205 583 q 213 635 213 629 q 165 688 205 681 q 119 646 125 688 q 118 635 118 640 z "},"f":{"ha":392,"x_min":45,"x_max":419,"o":"m 389 631 l 389 678 l 202 678 l 202 795 q 288 944 202 933 q 301 945 296 945 q 396 916 345 944 l 419 955 q 301 993 361 993 q 165 903 203 993 q 148 811 148 863 l 148 678 l 45 678 l 45 631 l 148 631 l 148 0 l 202 0 l 202 631 l 389 631 z "},"ﬁ":{"ha":648,"x_min":41,"x_max":551,"o":"m 198 0 l 198 631 l 479 631 l 479 0 l 532 0 l 532 678 l 198 678 l 198 795 q 283 944 198 933 q 297 945 292 945 q 373 925 334 944 l 396 966 q 297 993 349 993 q 161 903 199 993 q 144 811 144 863 l 144 678 l 41 678 l 41 631 l 144 631 l 144 0 l 198 0 m 551 875 q 517 924 551 916 q 506 925 511 925 q 463 887 471 925 q 461 875 461 880 q 495 825 461 833 q 506 823 500 823 q 549 861 543 823 q 551 875 551 869 z "},"ﬂ":{"ha":675,"x_min":41,"x_max":656,"o":"m 377 631 l 377 678 l 198 678 l 198 795 q 283 944 198 933 q 297 945 292 945 q 373 925 334 944 l 396 966 q 297 993 349 993 q 161 903 199 993 q 144 811 144 863 l 144 678 l 41 678 l 41 631 l 144 631 l 144 0 l 198 0 l 198 631 l 377 631 m 656 8 l 642 49 q 591 37 613 37 q 533 118 534 39 l 533 983 l 479 983 l 479 111 q 548 -3 479 20 q 585 -8 566 -8 q 656 8 618 -8 z "},"ƒ":{"ha":572,"x_min":-68,"x_max":559,"o":"m 195 -106 l 279 509 l 471 509 l 471 556 l 286 556 l 319 795 q 450 945 342 944 q 540 925 488 945 l 559 966 q 452 993 506 993 q 296 899 347 993 q 267 811 274 860 l 232 556 l 80 556 l 80 509 l 225 509 l 144 -90 q 28 -240 114 -232 q -46 -218 -8 -239 l -68 -259 q 27 -288 -19 -288 q 165 -198 117 -288 q 195 -106 187 -157 z "},"⁄":{"ha":718,"x_min":39,"x_max":658,"o":"m 95 -15 l 39 -14 l 605 997 l 658 997 l 95 -15 z "},"g":{"ha":608,"x_min":60,"x_max":576,"o":"m 307 267 q 178 336 225 267 q 146 450 146 385 q 233 623 146 574 q 305 642 267 642 q 433 570 388 642 q 464 450 464 519 q 380 286 464 334 q 307 267 345 267 m 307 688 q 142 608 205 688 q 95 450 95 543 q 190 254 96 316 q 111 160 119 225 q 110 148 110 153 q 170 60 110 87 q 174 58 172 58 q 60 -107 61 -14 q 165 -262 60 -214 q 300 -288 224 -288 q 534 -193 463 -288 q 572 -77 572 -142 q 465 76 572 33 q 347 95 414 95 l 228 94 q 164 136 179 94 q 160 156 160 146 q 217 228 160 206 q 232 233 225 232 q 305 221 266 221 q 469 301 410 221 q 515 450 515 362 q 437 642 514 575 l 576 640 l 576 688 l 362 680 q 307 688 335 688 m 300 -240 q 130 -168 175 -240 q 114 -107 114 -140 q 227 47 115 -15 l 240 47 l 347 50 q 503 -19 461 53 q 518 -77 518 -46 q 404 -225 518 -187 q 300 -240 358 -240 z "},"ğ":{"ha":608,"x_min":60,"x_max":576,"o":"m 307 267 q 178 336 225 267 q 146 450 146 385 q 233 623 146 574 q 305 642 267 642 q 433 570 388 642 q 464 450 464 519 q 380 286 464 334 q 307 267 345 267 m 307 688 q 142 608 205 688 q 95 450 95 543 q 190 254 96 316 q 111 160 119 225 q 110 148 110 153 q 170 60 110 87 q 174 58 172 58 q 60 -107 61 -14 q 165 -262 60 -214 q 300 -288 224 -288 q 534 -193 463 -288 q 572 -77 572 -142 q 465 76 572 33 q 347 95 414 95 l 228 94 q 164 136 179 94 q 160 156 160 146 q 217 228 160 206 q 232 233 225 232 q 305 221 266 221 q 469 301 410 221 q 515 450 515 362 q 437 642 514 575 l 576 640 l 576 688 l 362 680 q 307 688 335 688 m 300 -240 q 130 -168 175 -240 q 114 -107 114 -140 q 227 47 115 -15 l 240 47 l 347 50 q 503 -19 461 53 q 518 -77 518 -46 q 404 -225 518 -187 q 300 -240 358 -240 m 168 944 q 250 818 170 852 q 313 806 281 806 q 439 869 397 806 q 464 944 461 902 l 420 947 q 349 857 411 878 q 316 852 332 852 q 225 905 254 852 q 213 949 216 925 l 168 944 z "},"ß":{"ha":724,"x_min":41,"x_max":663,"o":"m 663 184 q 562 363 663 289 q 506 401 543 377 q 407 486 426 452 q 392 536 392 510 q 454 637 392 587 q 532 700 524 693 q 589 834 589 758 q 483 972 589 930 q 370 993 431 993 q 170 886 225 993 q 144 764 144 833 l 144 678 l 41 678 l 41 631 l 144 631 l 144 0 l 198 0 l 198 758 q 321 944 198 917 q 369 949 343 949 q 513 892 468 949 q 533 831 533 865 q 463 700 533 757 q 433 678 453 692 q 351 597 369 632 q 338 536 338 568 q 425 392 338 456 q 475 358 441 380 q 585 264 560 302 q 609 184 609 228 q 538 52 609 90 q 484 38 513 38 q 351 81 425 39 l 328 37 q 481 -9 408 -9 q 623 58 570 -9 q 663 184 663 111 z "},"`":{"ha":468,"x_min":138,"x_max":363,"o":"m 138 920 l 179 968 l 363 825 l 335 787 l 138 920 z "},">":{"ha":579,"x_min":109,"x_max":498,"o":"m 498 345 l 145 688 l 109 644 l 426 343 l 109 28 l 144 -9 l 498 345 z "},"≥":{"ha":614,"x_min":88,"x_max":526,"o":"m 526 437 l 119 715 l 90 670 l 441 435 l 88 193 l 117 153 l 526 437 m 522 41 l 522 91 l 95 91 l 95 41 l 522 41 z "},"«":{"ha":621,"x_min":75,"x_max":519,"o":"m 312 559 l 277 593 l 75 357 l 273 122 l 309 157 l 137 358 l 312 559 m 519 559 l 484 593 l 277 357 l 480 122 l 517 157 l 339 358 l 519 559 z "},"»":{"ha":621,"x_min":75,"x_max":519,"o":"m 282 156 l 317 122 l 519 358 l 321 593 l 285 557 l 457 357 l 282 156 m 75 156 l 110 122 l 317 358 l 114 593 l 77 557 l 255 357 l 75 156 z "},"‹":{"ha":335,"x_min":41,"x_max":281,"o":"m 281 559 l 245 593 l 41 357 l 241 122 l 278 157 l 103 358 l 281 559 z "},"›":{"ha":335,"x_min":54,"x_max":294,"o":"m 54 156 l 90 122 l 294 358 l 94 593 l 57 557 l 232 357 l 54 156 z "},"h":{"ha":674,"x_min":115,"x_max":620,"o":"m 617 35 q 557 69 568 30 q 553 121 553 88 l 553 467 q 433 675 553 633 q 357 688 399 688 q 170 562 231 688 q 168 557 168 559 l 170 983 l 115 983 l 115 0 l 170 0 l 170 399 q 263 616 170 552 q 354 643 305 643 q 491 534 463 643 q 499 463 499 502 l 499 113 q 572 -8 499 3 q 620 -7 594 -11 l 617 35 z "},"˝":{"ha":616,"x_min":107,"x_max":548,"o":"m 326 933 l 281 979 l 107 822 l 138 787 l 326 933 m 548 933 l 503 979 l 330 822 l 361 787 l 548 933 z "},"-":{"ha":441,"x_min":64,"x_max":377,"o":"m 64 387 l 64 339 l 377 339 l 377 387 l 64 387 z "},"i":{"ha":285,"x_min":98,"x_max":187,"o":"m 168 0 l 168 678 l 115 678 l 115 0 l 168 0 m 187 875 q 153 924 187 916 q 142 925 148 925 q 99 887 107 925 q 98 875 98 880 q 132 825 98 833 q 142 823 137 823 q 186 861 179 823 q 187 875 187 869 z "},"í":{"ha":285,"x_min":72,"x_max":297,"o":"m 168 0 l 168 678 l 115 678 l 115 0 l 168 0 m 297 920 l 256 968 l 72 825 l 100 787 l 297 920 z "},"î":{"ha":285,"x_min":-8,"x_max":298,"o":"m 149 962 l -8 811 l 24 781 l 145 887 l 266 780 l 298 815 l 149 962 m 168 0 l 168 678 l 115 678 l 115 0 l 168 0 z "},"ï":{"ha":285,"x_min":1,"x_max":283,"o":"m 90 873 q 58 922 90 913 q 46 924 52 924 q 3 886 11 924 q 1 873 1 879 q 35 825 1 833 q 46 823 41 823 q 88 861 80 823 q 90 873 90 868 m 283 873 q 250 922 283 914 q 239 924 244 924 q 197 886 205 924 q 195 873 195 879 q 227 825 195 834 q 239 823 233 823 q 282 861 274 823 q 283 873 283 868 m 168 0 l 168 678 l 115 678 l 115 0 l 168 0 z "},"ì":{"ha":285,"x_min":-1,"x_max":224,"o":"m 168 0 l 168 678 l 115 678 l 115 0 l 168 0 m -1 920 l 39 968 l 224 825 l 195 787 l -1 920 z "},"ī":{"ha":285,"x_min":1,"x_max":283,"o":"m 1 898 l 1 850 l 283 850 l 283 898 l 1 898 m 168 0 l 168 678 l 115 678 l 115 0 l 168 0 z "},"∞":{"ha":1137,"x_min":81,"x_max":1055,"o":"m 846 164 q 1025 263 968 164 q 1055 376 1055 316 q 981 537 1055 480 q 863 575 932 575 q 674 494 774 575 q 614 442 655 477 q 572 406 586 418 q 370 559 450 528 q 290 575 330 575 q 111 476 168 575 q 81 363 81 423 q 160 199 81 254 q 282 164 210 164 q 475 252 366 164 q 528 296 492 266 q 567 330 553 319 q 783 175 699 202 q 846 164 815 164 m 850 214 q 654 326 770 214 q 608 370 635 343 q 754 490 715 467 q 860 525 811 525 q 979 446 941 525 q 997 369 997 410 q 933 239 997 282 q 850 214 898 214 m 286 214 q 159 296 198 214 q 142 372 142 331 q 205 500 142 458 q 286 525 240 525 q 481 411 361 525 q 529 365 500 393 q 487 330 515 353 q 336 224 385 241 q 286 214 311 214 z "},"∫":{"ha":387,"x_min":14,"x_max":359,"o":"m 225 -58 q 205 656 225 34 q 201 781 202 730 q 296 970 198 968 q 346 960 320 970 l 359 1009 q 296 1020 328 1020 q 159 905 195 1020 q 144 792 144 856 q 164 76 144 700 q 168 -49 167 3 q 75 -239 171 -237 q 26 -229 56 -239 l 14 -278 q 73 -289 43 -289 q 205 -184 164 -289 q 225 -58 225 -130 z "},"į":{"ha":285,"x_min":0,"x_max":191,"o":"m 187 875 q 153 924 187 916 q 142 925 148 925 q 99 887 107 925 q 98 875 98 880 q 132 825 98 833 q 142 823 137 823 q 186 861 179 823 q 187 875 187 869 m 191 -255 l 189 -214 q 145 -220 168 -220 q 56 -165 73 -220 q 52 -140 52 -153 q 155 -7 52 -66 q 168 0 161 -3 l 168 678 l 115 678 l 115 7 q 0 -148 1 -61 q 80 -255 0 -229 q 133 -262 106 -262 q 191 -255 160 -262 z "},"j":{"ha":292,"x_min":-96,"x_max":194,"o":"m 175 -95 l 175 678 l 121 678 l 121 -98 q 46 -237 121 -218 q 22 -240 34 -240 q -72 -209 -20 -239 l -96 -251 q 24 -288 -31 -288 q 156 -198 117 -288 q 175 -95 175 -153 m 194 878 q 160 926 194 918 q 149 928 155 928 q 106 890 114 928 q 104 878 104 883 q 138 827 104 836 q 149 826 144 826 q 193 864 186 826 q 194 878 194 872 z "},"k":{"ha":578,"x_min":115,"x_max":571,"o":"m 547 -9 q 571 -7 559 -9 l 567 34 l 555 34 q 524 58 538 34 q 514 75 519 65 l 336 387 l 543 678 l 481 678 l 302 420 l 170 420 l 170 983 l 115 983 l 115 0 l 170 0 l 170 376 l 283 376 l 469 49 q 547 -9 505 -8 z "},"l":{"ha":308,"x_min":115,"x_max":293,"o":"m 221 -8 q 293 8 255 -8 l 278 49 q 228 37 250 37 q 170 118 171 39 l 170 983 l 115 983 l 115 111 q 184 -3 115 20 q 221 -8 202 -8 z "},"ĺ":{"ha":308,"x_min":72,"x_max":297,"o":"m 221 -8 q 293 8 255 -8 l 278 49 q 228 37 250 37 q 170 118 171 39 l 170 983 l 115 983 l 115 111 q 184 -3 115 20 q 221 -8 202 -8 m 297 1171 l 256 1219 l 72 1076 l 100 1038 l 297 1171 z "},"ľ":{"ha":308,"x_min":115,"x_max":349,"o":"m 221 -8 q 293 8 255 -8 l 278 49 q 228 37 250 37 q 170 118 171 39 l 170 983 l 115 983 l 115 111 q 184 -3 115 20 q 221 -8 202 -8 m 349 891 q 309 949 349 941 q 300 951 304 951 q 255 916 264 951 q 254 899 254 907 q 290 849 255 861 q 239 734 283 798 l 258 715 q 345 861 328 777 q 349 891 347 878 z "},"<":{"ha":579,"x_min":81,"x_max":471,"o":"m 81 334 l 434 -9 l 471 34 l 153 335 l 471 650 l 435 688 l 81 334 z "},"≤":{"ha":614,"x_min":88,"x_max":526,"o":"m 522 41 l 522 91 l 95 91 l 95 41 l 522 41 m 88 431 l 495 153 l 525 198 l 174 433 l 526 675 l 498 715 l 88 431 z "},"¬":{"ha":643,"x_min":47,"x_max":582,"o":"m 582 159 l 582 374 l 47 374 l 47 324 l 526 324 l 526 159 l 582 159 z "},"◊":{"ha":682,"x_min":37,"x_max":646,"o":"m 365 -4 l 646 458 l 354 920 l 319 920 l 37 463 l 326 -4 l 365 -4 m 350 65 l 99 468 l 335 853 l 585 450 l 350 65 z "},"ł":{"ha":312,"x_min":-24,"x_max":315,"o":"m 221 -8 q 293 8 255 -8 l 278 49 q 228 37 250 37 q 170 118 171 39 l 170 431 l 315 492 l 298 533 l 170 479 l 170 983 l 115 983 l 115 456 l -24 397 l -8 357 l 115 408 l 115 111 q 184 -3 115 20 q 221 -8 202 -8 z "},"m":{"ha":1042,"x_min":115,"x_max":985,"o":"m 918 467 q 806 674 918 629 q 728 688 770 688 q 548 559 606 688 q 540 537 544 548 q 406 681 510 655 q 354 688 381 688 q 174 571 235 688 q 167 556 170 563 l 165 678 l 115 678 l 115 0 l 170 0 l 170 395 q 260 613 170 547 q 351 643 302 643 q 484 540 453 643 q 495 458 495 503 l 495 0 l 549 0 l 549 395 q 639 613 549 548 q 726 643 680 643 q 850 548 818 643 q 864 458 864 509 l 864 113 q 937 -8 864 3 q 985 -7 959 -11 l 982 35 q 922 69 933 30 q 918 121 918 88 l 918 467 z "},"¯":{"ha":481,"x_min":75,"x_max":407,"o":"m 75 898 l 75 850 l 407 850 l 407 898 l 75 898 z "},"−":{"ha":704,"x_min":95,"x_max":609,"o":"m 95 324 l 609 324 l 609 374 l 95 374 l 95 324 z "},"×":{"ha":595,"x_min":88,"x_max":507,"o":"m 88 524 l 263 350 l 90 176 l 125 141 l 298 315 l 471 141 l 507 178 l 335 351 l 507 524 l 472 559 l 300 387 l 125 560 l 88 524 z "},"n":{"ha":671,"x_min":118,"x_max":623,"o":"m 620 35 q 560 69 571 30 q 556 121 556 88 l 556 467 q 435 675 556 633 q 359 688 401 688 q 170 555 228 686 l 168 678 l 118 678 l 118 0 l 172 0 l 172 395 q 264 613 172 548 q 357 643 308 643 q 492 536 463 643 q 502 458 502 500 l 502 113 q 575 -8 502 3 q 594 -9 585 -9 q 623 -7 605 -9 l 620 35 z "},"ń":{"ha":671,"x_min":118,"x_max":623,"o":"m 620 35 q 560 69 571 30 q 556 121 556 88 l 556 467 q 435 675 556 633 q 359 688 401 688 q 170 555 228 686 l 168 678 l 118 678 l 118 0 l 172 0 l 172 395 q 264 613 172 548 q 357 643 308 643 q 492 536 463 643 q 502 458 502 500 l 502 113 q 575 -8 502 3 q 594 -9 585 -9 q 623 -7 605 -9 l 620 35 m 491 920 l 450 968 l 266 825 l 294 787 l 491 920 z "},"ň":{"ha":671,"x_min":118,"x_max":623,"o":"m 620 35 q 560 69 571 30 q 556 121 556 88 l 556 467 q 435 675 556 633 q 359 688 401 688 q 170 555 228 686 l 168 678 l 118 678 l 118 0 l 172 0 l 172 395 q 264 613 172 548 q 357 643 308 643 q 492 536 463 643 q 502 458 502 500 l 502 113 q 575 -8 502 3 q 594 -9 585 -9 q 623 -7 605 -9 l 620 35 m 338 780 l 506 925 l 477 960 l 342 853 l 203 962 l 174 922 l 338 780 z "},"≠":{"ha":738,"x_min":102,"x_max":636,"o":"m 636 240 l 636 290 l 376 290 l 419 410 l 636 410 l 636 460 l 437 460 l 495 624 l 445 624 l 385 460 l 102 460 l 102 410 l 368 410 l 324 290 l 102 290 l 102 240 l 307 240 l 244 68 l 297 68 l 358 240 l 636 240 z "},"ñ":{"ha":671,"x_min":118,"x_max":623,"o":"m 620 35 q 560 69 571 30 q 556 121 556 88 l 556 467 q 435 675 556 633 q 359 688 401 688 q 170 555 228 686 l 168 678 l 118 678 l 118 0 l 172 0 l 172 395 q 264 613 172 548 q 357 643 308 643 q 492 536 463 643 q 502 458 502 500 l 502 113 q 575 -8 502 3 q 594 -9 585 -9 q 623 -7 605 -9 l 620 35 m 423 873 q 346 901 399 873 q 274 922 307 921 q 161 869 214 921 l 190 841 q 270 873 227 873 q 347 846 296 873 q 425 825 389 825 q 524 879 479 826 l 495 909 q 423 873 463 873 z "},"#":{"ha":887,"x_min":26,"x_max":861,"o":"m 403 916 l 327 654 l 119 654 l 119 613 l 315 613 l 232 326 l 26 326 l 26 285 l 220 285 l 137 0 l 190 0 l 273 285 l 507 286 l 425 0 l 477 0 l 560 286 l 766 286 l 766 326 l 571 326 l 654 613 l 861 613 l 861 654 l 666 654 l 741 916 l 689 916 l 613 654 l 378 654 l 454 916 l 403 916 m 518 326 l 283 326 l 368 613 l 602 613 l 518 326 z "},"o":{"ha":650,"x_min":54,"x_max":595,"o":"m 324 38 q 138 179 190 38 q 113 338 113 248 q 205 595 113 514 q 328 640 258 640 q 511 500 460 640 q 537 338 537 430 q 438 75 537 151 q 324 38 389 38 m 330 688 q 104 553 180 688 q 54 338 54 463 q 187 24 54 104 q 323 -9 245 -9 q 551 132 479 -9 q 595 338 595 218 q 475 644 595 559 q 330 688 414 688 z "},"ó":{"ha":650,"x_min":54,"x_max":595,"o":"m 324 38 q 138 179 190 38 q 113 338 113 248 q 205 595 113 514 q 328 640 258 640 q 511 500 460 640 q 537 338 537 430 q 438 75 537 151 q 324 38 389 38 m 330 688 q 104 553 180 688 q 54 338 54 463 q 187 24 54 104 q 323 -9 245 -9 q 551 132 479 -9 q 595 338 595 218 q 475 644 595 559 q 330 688 414 688 m 479 920 l 438 968 l 254 825 l 282 787 l 479 920 z "},"ô":{"ha":650,"x_min":54,"x_max":595,"o":"m 324 38 q 138 179 190 38 q 113 338 113 248 q 205 595 113 514 q 328 640 258 640 q 511 500 460 640 q 537 338 537 430 q 438 75 537 151 q 324 38 389 38 m 330 688 q 104 553 180 688 q 54 338 54 463 q 187 24 54 104 q 323 -9 245 -9 q 551 132 479 -9 q 595 338 595 218 q 475 644 595 559 q 330 688 414 688 m 335 962 l 167 817 l 195 781 l 331 888 l 469 780 l 499 819 l 335 962 z "},"ö":{"ha":650,"x_min":54,"x_max":595,"o":"m 324 38 q 138 179 190 38 q 113 338 113 248 q 205 595 113 514 q 328 640 258 640 q 511 500 460 640 q 537 338 537 430 q 438 75 537 151 q 324 38 389 38 m 330 688 q 104 553 180 688 q 54 338 54 463 q 187 24 54 104 q 323 -9 245 -9 q 551 132 479 -9 q 595 338 595 218 q 475 644 595 559 q 330 688 414 688 m 259 873 q 228 922 259 913 q 216 924 221 924 q 172 886 180 924 q 171 873 171 879 q 205 825 171 833 q 216 823 210 823 q 258 861 250 823 q 259 873 259 868 m 486 873 q 452 922 486 914 q 441 924 446 924 q 399 886 407 924 q 397 873 397 879 q 429 825 397 834 q 441 823 435 823 q 484 861 476 823 q 486 873 486 868 z "},"œ":{"ha":1069,"x_min":54,"x_max":1024,"o":"m 1009 39 l 991 81 q 825 39 903 39 q 625 174 681 39 q 595 338 595 243 l 595 340 l 1024 340 l 1024 368 q 834 685 1024 655 q 791 688 812 688 q 582 545 646 688 q 567 506 574 526 q 350 686 513 675 q 330 688 339 688 q 104 553 180 688 q 54 338 54 463 q 187 24 54 104 q 323 -9 245 -9 q 555 149 487 -9 q 564 175 560 163 q 765 -5 617 19 q 815 -9 789 -9 q 1009 39 906 -8 m 791 640 q 958 490 922 640 q 967 389 967 442 l 597 388 q 719 625 612 574 q 791 640 753 640 m 113 338 q 205 595 113 514 q 328 640 258 640 q 511 500 460 640 q 537 338 537 430 q 438 75 537 151 q 324 38 389 38 q 138 179 190 38 q 113 338 113 248 z "},"˛":{"ha":378,"x_min":95,"x_max":286,"o":"m 286 -255 l 283 -214 q 240 -220 263 -220 q 151 -165 168 -220 q 146 -140 146 -153 q 250 -7 146 -66 q 263 0 256 -3 l 212 8 q 95 -148 96 -61 q 175 -255 95 -229 q 228 -262 201 -262 q 286 -255 255 -262 z "},"ò":{"ha":650,"x_min":54,"x_max":595,"o":"m 324 38 q 138 179 190 38 q 113 338 113 248 q 205 595 113 514 q 328 640 258 640 q 511 500 460 640 q 537 338 537 430 q 438 75 537 151 q 324 38 389 38 m 330 688 q 104 553 180 688 q 54 338 54 463 q 187 24 54 104 q 323 -9 245 -9 q 551 132 479 -9 q 595 338 595 218 q 475 644 595 559 q 330 688 414 688 m 205 920 l 245 968 l 430 825 l 401 787 l 205 920 z "},"ő":{"ha":650,"x_min":54,"x_max":614,"o":"m 324 38 q 138 179 190 38 q 113 338 113 248 q 205 595 113 514 q 328 640 258 640 q 511 500 460 640 q 537 338 537 430 q 438 75 537 151 q 324 38 389 38 m 330 688 q 104 553 180 688 q 54 338 54 463 q 187 24 54 104 q 323 -9 245 -9 q 551 132 479 -9 q 595 338 595 218 q 475 644 595 559 q 330 688 414 688 m 392 933 l 347 979 l 174 822 l 205 787 l 392 933 m 614 933 l 570 979 l 396 822 l 427 787 l 614 933 z "},"ō":{"ha":650,"x_min":54,"x_max":595,"o":"m 324 38 q 138 179 190 38 q 113 338 113 248 q 205 595 113 514 q 328 640 258 640 q 511 500 460 640 q 537 338 537 430 q 438 75 537 151 q 324 38 389 38 m 330 688 q 104 553 180 688 q 54 338 54 463 q 187 24 54 104 q 323 -9 245 -9 q 551 132 479 -9 q 595 338 595 218 q 475 644 595 559 q 330 688 414 688 m 163 898 l 163 850 l 495 850 l 495 898 l 163 898 z "},"½":{"ha":1061,"x_min":20,"x_max":1006,"o":"m 252 -15 l 815 997 l 762 997 l 197 -14 l 252 -15 m 1006 0 l 1006 47 l 745 47 l 856 175 q 887 209 867 187 q 989 346 970 298 q 998 396 998 372 q 914 537 998 492 q 826 559 873 559 q 662 473 722 557 l 704 449 q 823 515 749 514 q 930 457 897 515 q 945 396 945 430 q 875 260 945 340 q 826 208 864 248 l 659 26 l 659 0 l 1006 0 m 37 800 l 180 861 l 180 408 l 62 408 l 62 366 l 315 366 l 315 408 l 232 408 l 232 916 l 193 916 l 20 844 l 37 800 z "},"¼":{"ha":1016,"x_min":20,"x_max":975,"o":"m 909 0 l 909 141 l 975 141 l 975 184 l 909 184 l 909 552 l 853 552 l 595 174 l 601 140 l 857 141 l 857 0 l 909 0 m 252 -15 l 815 997 l 762 997 l 197 -14 l 252 -15 m 37 800 l 180 861 l 180 408 l 62 408 l 62 366 l 315 366 l 315 408 l 232 408 l 232 916 l 193 916 l 20 844 l 37 800 m 857 184 l 656 184 l 857 479 l 857 184 z "},"¹":{"ha":416,"x_min":41,"x_max":335,"o":"m 57 800 l 201 861 l 201 408 l 83 408 l 83 366 l 335 366 l 335 408 l 252 408 l 252 916 l 213 916 l 41 844 l 57 800 z "},"ª":{"ha":435,"x_min":34,"x_max":416,"o":"m 391 416 q 416 418 407 416 l 414 458 q 399 457 407 457 q 353 507 357 457 q 353 525 353 517 l 353 784 q 264 916 353 886 q 205 925 237 925 q 53 880 126 924 l 75 842 q 202 883 141 883 q 300 808 285 883 q 302 780 302 795 l 302 703 q 237 707 271 707 q 52 627 99 707 q 34 563 34 597 q 122 425 34 454 q 176 416 148 416 q 302 479 254 416 q 309 490 307 486 q 376 418 319 423 q 391 416 384 416 m 183 458 q 90 536 102 458 q 87 563 87 549 q 186 663 87 647 q 235 667 209 667 q 302 663 271 667 l 302 578 q 233 471 302 502 q 183 458 208 458 z "},"º":{"ha":503,"x_min":54,"x_max":449,"o":"m 251 458 q 119 572 152 458 q 107 670 107 617 q 180 860 107 807 q 254 883 213 883 q 385 765 353 883 q 396 670 396 722 q 316 476 396 524 q 251 458 286 458 m 255 925 q 84 814 138 925 q 54 670 54 751 q 167 433 54 486 q 250 416 203 416 q 425 536 374 416 q 449 670 449 595 q 347 902 449 845 q 255 925 307 925 z "},"ø":{"ha":650,"x_min":54,"x_max":595,"o":"m 460 791 l 418 674 q 330 688 374 688 q 104 553 180 688 q 54 338 54 463 q 182 28 54 110 q 186 26 184 27 l 149 -79 l 195 -94 l 231 5 q 323 -9 274 -9 q 551 132 479 -9 q 595 338 595 218 q 471 648 595 563 q 461 654 465 651 l 505 776 l 460 791 m 113 338 q 205 595 113 514 q 328 640 258 640 q 401 627 366 640 l 205 79 q 113 338 113 156 m 324 38 q 247 53 282 38 l 442 601 q 537 338 537 525 q 438 75 537 151 q 324 38 389 38 z "},"õ":{"ha":650,"x_min":54,"x_max":595,"o":"m 324 38 q 138 179 190 38 q 113 338 113 248 q 205 595 113 514 q 328 640 258 640 q 511 500 460 640 q 537 338 537 430 q 438 75 537 151 q 324 38 389 38 m 330 688 q 104 553 180 688 q 54 338 54 463 q 187 24 54 104 q 323 -9 245 -9 q 551 132 479 -9 q 595 338 595 218 q 475 644 595 559 q 330 688 414 688 m 411 873 q 334 901 387 873 q 262 922 294 921 q 149 869 202 921 l 178 841 q 258 873 214 873 q 335 846 283 873 q 412 825 377 825 q 511 879 467 826 l 483 909 q 411 873 450 873 z "},"p":{"ha":658,"x_min":114,"x_max":595,"o":"m 315 38 q 168 77 247 38 l 168 399 q 258 609 168 544 q 353 640 302 640 q 494 553 441 640 q 537 370 537 480 q 435 81 537 168 q 315 38 384 38 m 168 -278 l 168 20 q 320 -9 244 -9 q 537 123 460 -9 q 595 370 595 227 q 488 643 595 559 q 361 688 431 688 q 168 562 235 686 l 167 678 l 114 678 l 114 -278 l 168 -278 z "},"¶":{"ha":589,"x_min":34,"x_max":473,"o":"m 338 0 l 338 916 l 256 916 q 61 817 118 916 q 34 715 34 770 q 210 522 34 548 q 281 517 244 517 l 281 0 l 338 0 m 473 0 l 473 916 l 416 916 l 416 0 l 473 0 z "},"(":{"ha":350,"x_min":104,"x_max":330,"o":"m 160 399 q 330 1005 161 728 l 281 1028 q 104 396 104 736 q 281 -232 106 56 l 330 -208 q 160 399 160 71 z "},")":{"ha":350,"x_min":27,"x_max":252,"o":"m 197 414 q 27 -193 195 84 l 76 -216 q 252 416 252 76 q 76 1044 251 757 l 27 1020 q 197 414 197 742 z "},"∂":{"ha":726,"x_min":88,"x_max":644,"o":"m 644 423 q 464 868 644 718 q 334 947 406 917 l 312 899 q 543 675 472 840 q 583 467 583 579 q 582 434 583 445 q 410 576 526 556 q 372 579 391 579 q 141 454 222 579 q 88 269 88 372 q 194 38 88 117 q 340 -9 258 -9 q 587 153 505 -9 q 644 423 644 266 m 148 273 q 260 502 148 435 q 368 530 311 530 q 521 452 463 530 q 567 301 567 389 q 458 75 567 144 q 342 39 404 39 q 187 123 241 39 q 148 273 148 184 z "},"%":{"ha":1065,"x_min":41,"x_max":1024,"o":"m 254 513 q 113 616 153 513 q 94 727 94 665 q 209 932 94 901 q 255 937 231 937 q 406 802 377 937 q 412 726 412 766 q 334 537 412 593 q 254 513 297 513 m 255 983 q 69 868 125 983 q 41 726 41 807 q 137 505 41 572 q 252 469 187 469 q 425 567 363 469 q 465 726 465 635 q 350 963 465 906 q 255 983 308 983 m 812 34 q 671 137 712 34 q 652 248 652 186 q 760 453 652 416 q 814 461 785 461 q 963 331 932 461 q 971 247 971 293 q 892 58 971 114 q 812 34 856 34 m 814 505 q 628 389 684 505 q 600 247 600 328 q 696 26 600 94 q 811 -9 746 -9 q 983 88 922 -9 q 1024 247 1024 156 q 909 484 1024 427 q 814 505 867 505 m 278 -15 l 222 -14 l 788 997 l 841 997 l 278 -15 z "},".":{"ha":244,"x_min":75,"x_max":170,"o":"m 170 46 q 133 96 170 90 q 122 98 127 98 q 76 57 83 98 q 75 46 75 52 q 122 -7 83 0 q 168 35 163 -7 q 170 46 170 41 z "},"·":{"ha":244,"x_min":68,"x_max":176,"o":"m 122 327 q 174 365 163 327 q 176 385 176 376 q 136 442 176 433 q 122 444 129 444 q 71 406 81 444 q 68 385 68 395 q 109 328 68 338 q 122 327 117 327 z "},"‰":{"ha":1568,"x_min":41,"x_max":1534,"o":"m 1322 35 q 1181 138 1222 35 q 1162 250 1162 186 q 1270 454 1162 418 q 1324 463 1295 463 q 1473 332 1442 463 q 1481 248 1481 294 q 1402 60 1481 115 q 1322 35 1366 35 m 1324 506 q 1138 391 1194 506 q 1109 248 1109 330 q 1206 27 1109 95 q 1321 -8 1256 -8 q 1493 90 1432 -8 q 1534 248 1534 157 q 1419 486 1534 429 q 1324 506 1377 506 m 254 513 q 113 616 153 513 q 94 727 94 665 q 209 932 94 901 q 255 937 231 937 q 406 802 377 937 q 412 726 412 766 q 334 537 412 593 q 254 513 297 513 m 255 983 q 69 868 125 983 q 41 726 41 807 q 137 505 41 572 q 252 469 187 469 q 425 567 363 469 q 465 726 465 635 q 350 963 465 906 q 255 983 308 983 m 812 34 q 671 137 712 34 q 652 248 652 186 q 760 453 652 416 q 814 461 785 461 q 963 331 932 461 q 971 247 971 293 q 892 58 971 114 q 812 34 856 34 m 814 505 q 628 389 684 505 q 600 247 600 328 q 696 26 600 94 q 811 -9 746 -9 q 983 88 922 -9 q 1024 247 1024 156 q 909 484 1024 427 q 814 505 867 505 m 278 -15 l 222 -14 l 788 997 l 841 997 l 278 -15 z "},"π":{"ha":707,"x_min":54,"x_max":686,"o":"m 651 631 l 651 678 l 54 678 l 54 631 l 142 631 l 142 0 l 197 0 l 194 631 l 509 631 l 509 111 q 578 -3 509 20 q 614 -8 595 -8 q 686 8 648 -8 l 671 49 q 621 37 643 37 q 563 118 564 39 l 563 631 l 651 631 z "},"+":{"ha":616,"x_min":41,"x_max":575,"o":"m 575 324 l 575 374 l 336 374 l 336 610 l 281 610 l 281 374 l 41 374 l 41 324 l 281 324 l 281 88 l 336 88 l 336 324 l 575 324 z "},"±":{"ha":656,"x_min":54,"x_max":602,"o":"m 602 41 l 602 91 l 54 91 l 54 41 l 602 41 m 602 395 l 602 445 l 357 445 l 357 661 l 301 661 l 301 445 l 54 445 l 54 395 l 301 395 l 301 179 l 357 179 l 357 395 l 602 395 z "},"∏":{"ha":830,"x_min":47,"x_max":783,"o":"m 590 -237 l 647 -237 l 647 871 l 783 871 l 783 921 l 47 921 l 47 871 l 183 871 l 183 -237 l 240 -237 l 240 871 l 590 871 l 590 -237 z "},"q":{"ha":648,"x_min":53,"x_max":534,"o":"m 53 308 q 160 35 53 119 q 288 -9 217 -9 q 480 118 414 -8 l 480 -305 l 534 -305 l 534 632 q 326 688 439 686 q 113 556 189 688 q 53 308 53 453 m 480 602 l 480 282 q 389 69 480 134 q 296 38 346 38 q 153 127 206 38 q 111 308 111 199 q 214 600 111 515 q 334 640 266 640 q 480 602 408 640 z "},"?":{"ha":576,"x_min":37,"x_max":495,"o":"m 175 193 q 164 260 164 235 q 258 419 164 342 q 317 464 277 434 q 454 587 419 538 q 495 716 495 647 q 393 922 495 849 q 252 967 330 967 q 53 864 132 967 q 37 841 43 852 l 84 817 q 235 916 134 907 q 248 916 241 916 q 396 841 340 916 q 435 715 435 787 q 342 543 435 616 q 281 499 323 528 q 155 389 187 435 q 115 259 115 334 q 127 183 115 227 l 175 193 m 208 46 q 171 96 208 90 q 160 98 165 98 q 114 57 121 98 q 113 46 113 52 q 160 -7 121 0 q 206 35 201 -7 q 208 46 208 41 z "},"¿":{"ha":576,"x_min":81,"x_max":540,"o":"m 401 488 q 412 420 412 446 q 319 262 412 339 q 259 217 300 247 q 122 94 157 142 q 81 -35 81 34 q 183 -241 81 -168 q 324 -286 247 -286 q 524 -183 445 -286 q 540 -160 533 -171 l 492 -136 q 342 -235 442 -227 q 328 -235 335 -235 q 180 -160 236 -235 q 141 -34 141 -106 q 235 138 141 65 q 296 182 254 153 q 422 292 389 245 q 461 422 461 349 q 449 498 461 454 l 401 488 m 369 635 q 406 585 369 591 q 416 583 411 583 q 463 624 456 583 q 464 635 464 629 q 416 688 456 681 q 370 646 376 688 q 369 635 369 640 z "},"\"":{"ha":370,"x_min":68,"x_max":304,"o":"m 134 983 l 68 983 l 80 728 l 122 728 l 134 983 m 304 983 l 237 983 l 250 728 l 292 728 l 304 983 z "},"„":{"ha":391,"x_min":38,"x_max":317,"o":"m 317 34 q 277 96 317 87 q 266 98 271 98 q 218 61 229 98 q 216 42 216 52 q 255 -11 218 1 q 199 -136 248 -66 l 221 -156 q 313 0 294 -90 q 317 34 317 19 m 156 34 q 115 96 156 87 q 104 98 110 98 q 57 61 68 98 q 54 42 54 52 q 94 -11 57 1 q 38 -136 87 -66 l 60 -156 q 152 0 133 -90 q 156 34 156 19 z "},"“":{"ha":384,"x_min":73,"x_max":346,"o":"m 73 808 q 114 746 73 755 q 125 745 119 745 q 172 781 161 745 q 175 800 175 791 q 136 853 172 841 q 191 978 142 909 l 170 998 q 77 842 96 932 q 73 808 73 823 m 228 808 q 269 746 228 755 q 279 745 274 745 q 327 781 316 745 q 330 800 330 791 q 290 853 327 841 q 346 978 297 909 l 324 998 q 232 842 251 932 q 228 808 228 825 z "},"”":{"ha":414,"x_min":68,"x_max":340,"o":"m 340 920 q 300 982 340 972 q 289 983 294 983 q 241 947 252 983 q 239 928 239 937 q 278 875 241 887 q 222 750 271 819 l 244 730 q 336 886 317 796 q 340 920 340 903 m 186 920 q 145 982 186 972 q 134 983 140 983 q 87 947 98 983 q 84 928 84 937 q 123 875 87 887 q 68 750 117 819 l 90 730 q 182 886 163 796 q 186 920 186 903 z "},"‘":{"ha":225,"x_min":73,"x_max":191,"o":"m 73 808 q 114 746 73 755 q 125 745 119 745 q 172 781 161 745 q 175 800 175 791 q 136 853 172 841 q 191 978 142 909 l 170 998 q 77 842 96 932 q 73 808 73 823 z "},"’":{"ha":236,"x_min":47,"x_max":165,"o":"m 165 920 q 125 982 165 972 q 114 983 119 983 q 66 947 77 983 q 64 928 64 937 q 103 875 66 887 q 47 750 96 819 l 69 730 q 161 886 142 796 q 165 920 165 905 z "},"‚":{"ha":229,"x_min":38,"x_max":156,"o":"m 156 34 q 115 96 156 87 q 104 98 110 98 q 57 61 68 98 q 54 42 54 52 q 94 -11 57 1 q 38 -136 87 -66 l 60 -156 q 152 0 133 -90 q 156 34 156 19 z "},"'":{"ha":202,"x_min":68,"x_max":134,"o":"m 134 983 l 68 983 l 80 728 l 122 728 l 134 983 z "},"r":{"ha":385,"x_min":115,"x_max":385,"o":"m 170 0 l 170 406 q 243 605 170 540 q 332 639 283 639 q 378 632 353 639 l 385 680 q 338 688 361 688 q 186 597 244 688 q 167 560 175 579 l 165 678 l 115 678 l 115 0 l 170 0 z "},"ŕ":{"ha":385,"x_min":115,"x_max":385,"o":"m 170 0 l 170 406 q 243 605 170 540 q 332 639 283 639 q 378 632 353 639 l 385 680 q 338 688 361 688 q 186 597 244 688 q 167 560 175 579 l 165 678 l 115 678 l 115 0 l 170 0 m 355 920 l 315 968 l 130 825 l 159 787 l 355 920 z "},"√":{"ha":846,"x_min":0,"x_max":846,"o":"m 363 -163 l 651 955 l 846 955 l 846 1002 l 609 1002 l 345 -69 l 133 511 l 0 460 l 16 416 l 100 448 l 323 -163 l 363 -163 z "},"ř":{"ha":419,"x_min":53,"x_max":385,"o":"m 170 0 l 170 406 q 243 605 170 540 q 332 639 283 639 q 378 632 353 639 l 385 680 q 338 688 361 688 q 186 597 244 688 q 167 560 175 579 l 165 678 l 115 678 l 115 0 l 170 0 m 217 780 l 385 925 l 357 960 l 221 853 l 83 962 l 53 922 l 217 780 z "},"®":{"ha":1029,"x_min":61,"x_max":966,"o":"m 404 145 l 404 430 l 500 430 l 521 430 l 648 179 q 708 138 670 140 q 732 141 723 138 l 730 174 l 723 174 q 696 195 707 174 q 694 198 694 197 l 574 438 q 708 575 689 465 q 712 616 712 595 q 500 784 709 783 q 353 781 397 784 l 353 145 l 404 145 m 494 742 q 655 646 636 742 q 658 610 658 629 q 538 476 658 495 q 492 472 515 472 l 404 472 l 404 739 q 448 741 418 739 q 494 742 479 742 m 966 471 q 834 806 966 673 q 515 936 705 936 q 186 798 317 936 q 61 469 61 663 q 195 129 61 263 q 514 0 324 0 q 841 138 712 -1 q 966 471 966 274 m 118 471 q 243 781 118 661 q 515 890 355 890 q 804 760 690 891 q 909 469 907 640 q 785 153 909 275 q 515 46 675 45 q 222 178 336 46 q 118 471 118 298 z "},"˚":{"ha":521,"x_min":136,"x_max":385,"o":"m 385 882 q 312 1001 385 971 q 262 1010 288 1010 q 153 951 187 1010 q 136 880 136 920 q 212 761 136 788 q 259 753 235 753 q 368 811 332 753 q 385 882 385 842 m 180 880 q 233 967 180 948 q 259 971 247 971 q 331 924 311 971 q 340 880 340 903 q 288 795 340 814 q 260 791 274 791 q 190 837 212 791 q 180 880 180 857 z "},"s":{"ha":511,"x_min":56,"x_max":450,"o":"m 446 171 q 345 332 446 270 q 275 369 323 346 q 155 450 182 415 q 130 522 130 481 q 205 629 130 600 q 262 640 232 640 q 396 576 350 640 q 404 563 400 570 l 450 587 q 296 686 403 673 q 266 688 281 688 q 110 621 165 688 q 76 522 76 578 q 175 365 76 426 q 244 330 197 353 q 366 248 338 283 q 392 171 392 214 q 319 53 392 87 q 254 38 288 38 q 80 99 168 39 l 56 56 q 251 -9 146 -9 q 410 61 353 -9 q 446 171 446 107 z "},"ś":{"ha":511,"x_min":56,"x_max":450,"o":"m 446 171 q 345 332 446 270 q 275 369 323 346 q 155 450 182 415 q 130 522 130 481 q 205 629 130 600 q 262 640 232 640 q 396 576 350 640 q 404 563 400 570 l 450 587 q 296 686 403 673 q 266 688 281 688 q 110 621 165 688 q 76 522 76 578 q 175 365 76 426 q 244 330 197 353 q 366 248 338 283 q 392 171 392 214 q 319 53 392 87 q 254 38 288 38 q 80 99 168 39 l 56 56 q 251 -9 146 -9 q 410 61 353 -9 q 446 171 446 107 m 393 920 l 353 968 l 168 825 l 197 787 l 393 920 z "},"š":{"ha":538,"x_min":56,"x_max":458,"o":"m 446 171 q 345 332 446 270 q 275 369 323 346 q 155 450 182 415 q 130 522 130 481 q 205 629 130 600 q 262 640 232 640 q 396 576 350 640 q 404 563 400 570 l 450 587 q 296 686 403 673 q 266 688 281 688 q 110 621 165 688 q 76 522 76 578 q 175 365 76 426 q 244 330 197 353 q 366 248 338 283 q 392 171 392 214 q 319 53 392 87 q 254 38 288 38 q 80 99 168 39 l 56 56 q 251 -9 146 -9 q 410 61 353 -9 q 446 171 446 107 m 290 780 l 458 925 l 430 960 l 294 853 l 156 962 l 126 922 l 290 780 z "},"§":{"ha":524,"x_min":68,"x_max":456,"o":"m 122 505 q 165 600 123 566 q 283 495 187 576 q 395 355 377 416 q 401 313 401 334 q 372 217 400 252 q 245 328 342 252 q 133 453 153 401 q 122 505 122 479 m 456 315 q 349 513 456 415 q 289 563 330 530 q 171 682 197 640 q 148 760 148 722 q 222 868 148 840 q 278 878 250 878 q 385 841 340 876 l 418 876 q 282 925 361 925 q 127 857 183 925 q 94 760 94 815 q 136 635 95 694 q 68 503 69 589 q 172 316 68 407 q 232 269 191 300 q 351 153 324 197 q 376 73 376 114 q 302 -47 376 -14 q 239 -61 273 -61 q 114 -26 183 -60 l 92 -73 q 235 -109 167 -109 q 403 -27 350 -109 q 430 73 430 16 q 400 179 429 130 q 456 315 456 232 z "},";":{"ha":285,"x_min":79,"x_max":197,"o":"m 197 34 q 156 96 197 87 q 145 98 151 98 q 98 61 109 98 q 95 42 95 52 q 134 -11 98 1 q 79 -136 127 -66 l 100 -156 q 193 0 174 -90 q 197 34 197 19 m 190 448 q 153 498 190 491 q 142 499 148 499 q 96 458 103 499 q 95 448 95 453 q 142 395 103 401 q 189 437 183 395 q 190 448 190 442 z "},"අ":{"ha":742,"x_min":45,"x_max":697,"o":"m 559 480 q 496 495 528 481 l 496 574 q 578 722 503 656 q 620 749 601 742 q 614 716 614 735 q 639 608 614 692 q 648 557 648 575 q 559 480 646 481 m 446 -278 l 496 -278 l 496 28 q 670 148 586 60 q 675 153 674 152 l 644 187 q 510 87 572 115 q 496 81 503 84 l 496 449 q 566 434 532 434 q 696 534 682 434 q 697 557 697 545 q 670 666 697 586 q 656 726 656 704 q 680 780 658 762 l 665 812 q 486 684 549 787 q 370 796 460 774 q 327 802 349 802 q 195 736 241 802 q 168 643 168 697 q 202 536 168 583 q 58 376 96 490 q 45 288 45 332 q 161 57 45 136 q 346 4 240 4 q 445 14 393 4 l 446 -278 m 214 643 q 282 747 214 720 q 327 755 304 755 q 437 682 408 755 q 449 616 449 652 q 442 559 449 594 l 442 557 l 312 557 q 247 551 279 557 q 214 643 214 587 m 346 54 q 137 151 206 54 q 95 288 95 209 q 174 460 95 395 q 312 507 232 507 l 444 507 l 445 65 q 346 54 399 54 z "},"ආ":{"ha":1042,"x_min":45,"x_max":1004,"o":"m 559 473 q 496 488 528 475 l 496 567 q 578 715 503 650 q 620 742 601 735 q 614 709 614 728 q 639 601 614 685 q 648 551 648 568 q 559 473 646 475 m 446 -285 l 496 -285 l 496 22 q 670 141 586 53 q 675 146 674 145 l 644 180 q 528 88 579 115 q 496 75 511 81 l 496 442 q 566 427 532 427 q 696 528 682 427 q 697 551 697 538 q 670 659 697 579 q 656 719 656 697 q 680 773 658 754 l 665 806 q 486 677 549 780 q 370 789 460 768 q 327 795 349 795 q 195 730 241 795 q 168 636 168 690 q 202 529 168 576 q 58 369 96 483 q 45 281 45 326 q 161 50 45 129 q 346 -3 240 -3 q 445 7 393 -3 l 446 -285 m 214 636 q 282 741 214 713 q 327 749 304 749 q 437 675 408 749 q 449 609 449 646 q 442 552 449 587 l 442 551 l 312 551 q 247 544 279 551 q 214 636 214 585 m 346 47 q 138 142 208 47 q 95 281 95 201 q 174 453 95 388 q 312 500 232 500 l 444 500 l 445 58 q 346 47 399 47 m 727 697 l 764 667 q 823 699 787 696 q 940 543 910 699 q 954 385 954 475 q 864 83 954 134 q 823 72 844 72 q 764 103 785 75 l 727 73 q 823 22 762 22 q 977 170 929 22 q 1004 385 1004 258 q 899 724 1004 647 q 823 749 864 749 q 727 697 761 747 z "},"ඈ":{"ha":1100,"x_min":45,"x_max":1072,"o":"m 559 480 q 496 495 528 481 l 496 574 q 578 722 503 656 q 620 749 601 742 q 614 716 614 735 q 639 608 614 692 q 648 557 648 575 q 559 480 646 481 m 446 -278 l 496 -278 l 496 28 q 670 148 586 60 q 675 153 674 152 l 644 187 q 510 87 572 115 q 496 81 503 84 l 496 449 q 566 434 532 434 q 696 534 682 434 q 697 557 697 545 q 670 666 697 586 q 656 726 656 704 q 680 780 658 762 l 665 812 q 486 684 549 787 q 370 796 460 774 q 327 802 349 802 q 195 736 241 802 q 168 643 168 697 q 202 536 168 583 q 58 376 96 490 q 45 288 45 332 q 161 57 45 136 q 346 4 240 4 q 445 14 393 4 l 446 -278 m 214 643 q 282 747 214 720 q 327 755 304 755 q 437 682 408 755 q 449 616 449 652 q 442 559 449 594 l 442 557 l 312 557 q 247 551 279 557 q 214 643 214 587 m 346 54 q 137 151 206 54 q 95 288 95 209 q 174 460 95 395 q 312 507 232 507 l 444 507 l 445 65 q 346 54 399 54 m 713 214 q 844 9 713 38 q 891 4 865 4 q 1072 216 1062 4 q 1072 239 1072 227 l 1021 239 q 956 72 1021 117 q 891 54 928 54 q 766 170 785 54 q 764 214 764 191 q 845 382 764 301 q 987 453 918 452 l 987 503 l 811 503 l 987 686 l 987 736 l 738 736 l 738 686 l 913 686 l 738 503 l 738 453 l 849 453 q 720 269 745 380 q 713 214 713 240 z "},"ඇ":{"ha":1076,"x_min":45,"x_max":1061,"o":"m 559 480 q 496 495 528 481 l 496 574 q 578 722 503 656 q 620 749 601 742 q 614 716 614 735 q 639 608 614 692 q 648 557 648 575 q 559 480 646 481 m 446 -278 l 496 -278 l 496 28 q 670 148 586 60 q 675 153 674 152 l 644 187 q 510 87 572 115 q 496 81 503 84 l 496 449 q 566 434 532 434 q 696 534 682 434 q 697 557 697 545 q 670 666 697 586 q 656 726 656 704 q 680 780 658 762 l 665 812 q 486 684 549 787 q 370 796 460 774 q 327 802 349 802 q 195 736 241 802 q 168 643 168 697 q 202 536 168 583 q 58 376 96 490 q 45 288 45 332 q 161 57 45 136 q 346 4 240 4 q 445 14 393 4 l 446 -278 m 214 643 q 282 747 214 720 q 327 755 304 755 q 437 682 408 755 q 449 616 449 652 q 442 559 449 594 l 442 557 l 312 557 q 247 551 279 557 q 214 643 214 587 m 346 54 q 137 151 206 54 q 95 288 95 209 q 174 460 95 395 q 312 507 232 507 l 444 507 l 445 65 q 346 54 399 54 m 692 214 q 826 9 692 41 q 880 4 852 4 q 1061 216 1051 4 q 1061 239 1061 227 l 1010 239 q 945 72 1010 117 q 880 54 917 54 q 746 170 765 54 q 742 214 742 191 q 822 425 742 301 q 990 662 827 434 q 1006 686 998 675 l 1006 736 l 757 736 l 757 686 l 943 686 q 772 441 787 464 q 692 214 692 313 z "},"ඓ":{"ha":1282,"x_min":45,"x_max":1255,"o":"m 315 365 q 363 446 315 419 q 407 457 385 457 l 408 457 q 487 410 460 457 q 499 365 499 388 q 450 283 499 311 q 407 273 429 273 q 326 321 353 273 q 315 365 315 343 m 264 365 q 327 248 264 292 q 345 239 336 243 q 407 224 376 224 q 518 290 479 224 q 521 294 519 293 l 521 278 q 446 94 521 156 q 330 54 397 54 q 123 205 182 54 q 95 380 95 279 q 184 651 95 547 q 354 731 256 730 q 522 637 450 730 l 563 669 q 382 780 498 766 q 354 781 369 781 q 117 644 206 781 q 45 380 45 532 q 167 57 45 153 q 330 4 235 4 q 536 129 471 4 q 571 278 571 197 q 483 486 571 430 q 407 507 448 507 q 289 444 332 507 q 264 365 264 407 m 1131 712 q 1004 770 1042 712 q 989 818 989 793 q 1024 932 989 863 q 1042 981 1040 964 q 1172 716 1127 873 q 1131 712 1152 712 m 940 818 q 1013 696 940 742 q 1130 666 1065 666 q 1183 671 1160 666 q 1204 464 1204 564 q 1043 84 1204 168 q 916 54 986 54 q 685 194 736 54 q 669 282 669 236 q 738 456 669 400 q 804 480 770 480 l 981 480 q 985 525 985 500 q 888 696 985 652 q 815 711 854 711 q 685 644 726 711 q 666 570 666 612 q 673 528 666 549 l 601 528 l 601 480 l 700 480 q 643 406 667 461 q 620 281 620 350 q 705 73 620 151 q 916 4 784 4 q 1217 217 1137 4 q 1255 464 1255 320 q 1126 941 1255 732 q 994 1095 1067 1034 l 963 1058 q 981 1043 974 1050 q 997 1005 997 1025 q 968 926 997 987 q 940 818 940 865 m 712 570 q 781 661 712 643 q 815 665 798 665 q 928 586 901 665 q 939 528 937 560 l 720 528 q 712 570 712 547 z "},"ඖ":{"ha":1191,"x_min":45,"x_max":1146,"o":"m 45 340 q 129 30 45 95 q 212 4 164 4 q 365 126 332 4 q 372 156 369 141 q 449 24 381 62 q 532 4 486 4 q 700 168 666 4 q 716 397 716 247 q 449 1005 716 936 q 358 1016 406 1016 q 153 930 240 1016 q 91 838 110 888 l 137 821 q 258 943 168 902 q 358 966 308 966 q 655 598 608 966 q 666 397 666 509 q 625 110 666 180 q 532 54 591 56 q 400 225 419 54 q 395 305 396 255 l 349 305 q 307 104 340 157 q 212 54 273 56 q 95 298 100 54 q 95 340 95 317 q 159 640 95 571 q 206 663 180 663 q 279 568 275 655 q 277 529 279 552 q 275 502 275 511 q 347 385 275 407 q 382 381 365 381 q 491 545 491 382 q 382 709 488 707 q 301 666 328 708 q 206 711 269 709 q 57 500 91 711 q 45 340 45 427 m 327 578 q 324 608 327 590 q 382 661 339 659 q 442 545 442 659 q 382 430 439 433 q 324 502 326 431 q 326 548 324 514 q 327 578 327 571 m 768 480 q 873 336 770 338 q 945 395 933 336 q 949 430 947 406 q 975 500 955 488 q 1002 507 987 507 q 1096 301 1096 506 q 978 54 1095 56 q 948 58 962 54 q 924 68 935 61 q 909 81 914 76 q 898 95 905 85 l 892 104 l 852 80 q 882 39 878 43 q 978 4 920 4 q 1146 301 1145 7 q 1002 557 1143 556 q 930 531 955 557 q 904 472 906 505 q 896 413 902 439 q 873 387 890 387 q 818 480 818 388 q 875 629 818 602 q 937 640 901 640 l 937 690 q 787 609 819 690 q 768 480 768 562 z "},"බ":{"ha":753,"x_min":45,"x_max":709,"o":"m 45 298 q 210 4 46 5 q 327 77 288 5 q 484 4 374 4 q 697 229 659 4 q 709 397 709 301 q 425 1009 709 951 q 350 1016 389 1016 q 142 929 231 1016 q 83 838 102 887 l 129 821 q 251 944 161 903 q 350 966 300 966 q 652 553 616 966 q 659 397 659 480 q 547 65 659 115 q 484 53 518 53 q 354 141 377 53 q 349 186 349 163 q 393 315 349 245 q 445 425 437 382 q 449 467 449 446 q 266 659 446 658 q 68 486 118 659 q 45 298 45 407 m 210 53 q 95 298 95 56 q 232 606 95 574 q 266 610 248 610 q 400 467 399 608 q 357 346 400 411 q 304 231 312 278 q 300 186 300 209 q 304 138 300 160 q 239 58 286 77 q 210 53 224 53 z "},"භ":{"ha":879,"x_min":45,"x_max":836,"o":"m 606 54 q 503 117 538 56 q 524 214 524 164 q 456 349 524 324 q 423 354 441 354 l 418 354 q 446 492 446 406 q 549 731 446 699 q 597 738 572 738 q 768 571 731 738 q 784 396 784 499 q 606 54 783 56 m 323 323 l 339 283 q 372 301 361 293 q 414 315 393 315 q 472 239 464 315 q 473 214 473 227 q 403 79 473 122 q 308 54 363 54 q 134 157 187 54 q 109 278 109 210 q 118 358 109 319 q 259 500 155 494 l 396 500 l 396 499 q 323 323 395 363 m 58 273 q 168 42 58 113 q 308 4 228 4 q 472 69 414 5 q 606 4 522 5 q 836 396 834 7 q 643 784 836 751 q 597 788 621 788 q 429 684 476 787 q 301 798 399 776 q 258 802 279 802 q 127 736 172 802 q 100 643 100 697 q 123 549 100 593 l 45 549 l 45 500 l 132 500 q 68 366 90 467 q 58 273 58 320 m 149 643 q 216 745 149 719 q 258 753 236 753 q 378 682 346 753 q 392 616 392 652 l 392 549 l 175 549 q 149 643 149 587 z "},"ච":{"ha":711,"x_min":45,"x_max":666,"o":"m 64 281 q 148 69 64 146 q 342 4 221 4 q 627 218 549 4 q 666 480 666 326 q 340 1016 658 1009 q 155 940 233 1016 q 88 838 111 897 l 134 821 q 262 951 172 916 q 340 966 300 966 q 614 480 613 963 q 457 81 614 167 q 342 54 406 54 q 127 194 175 54 q 113 282 113 236 q 182 456 113 400 q 248 480 214 480 l 425 480 q 429 525 429 500 q 332 696 429 652 q 259 711 298 711 q 129 644 170 711 q 110 570 110 612 q 117 528 110 549 l 45 528 l 45 480 l 144 480 q 88 407 113 463 q 64 281 64 351 m 156 570 q 225 661 156 643 q 259 665 241 665 q 372 586 345 665 q 382 528 381 560 l 164 528 q 156 570 156 547 z "},"ඡ":{"ha":817,"x_min":45,"x_max":772,"o":"m 369 616 l 369 545 l 262 545 q 179 532 220 545 q 134 643 134 575 q 201 747 134 720 q 245 755 222 755 q 358 681 330 755 q 369 616 369 651 m 522 545 l 415 545 l 415 616 q 494 749 415 720 q 537 755 514 755 q 654 662 617 755 q 669 578 669 620 q 661 498 669 536 q 522 545 604 545 m 499 312 q 419 374 434 312 q 415 403 415 389 q 460 491 415 465 q 468 495 465 494 l 522 495 q 644 442 601 494 q 530 316 604 338 q 499 312 514 312 m 95 304 q 178 475 95 427 q 262 495 214 495 l 392 495 q 363 404 363 456 q 423 286 363 324 q 499 266 456 266 q 674 389 614 267 q 689 304 689 353 q 570 85 689 156 q 392 41 495 41 q 140 152 220 41 q 95 304 95 217 m 45 304 q 176 49 45 133 q 392 -9 266 -9 q 678 113 583 -9 q 739 304 739 193 q 699 454 738 392 q 713 578 713 515 q 635 770 713 712 q 625 777 629 774 q 768 1009 750 911 q 772 1053 772 1031 l 723 1053 q 621 845 723 960 q 576 798 601 823 q 537 802 557 802 q 397 727 444 802 q 392 718 395 722 q 245 802 345 800 q 115 736 160 802 q 88 643 88 697 q 138 510 90 564 q 45 304 46 441 z "},"ද":{"ha":570,"x_min":45,"x_max":610,"o":"m 214 643 q 282 747 214 720 q 327 755 304 755 q 437 682 408 755 q 449 616 449 652 q 442 559 449 594 l 442 557 l 312 557 q 247 551 279 557 q 214 643 214 587 m 45 288 q 159 53 45 132 q 256 11 203 22 q 235 -77 235 -28 q 309 -228 235 -175 q 415 -262 355 -262 q 595 -167 530 -262 q 610 -142 604 -155 l 571 -113 q 415 -213 507 -209 q 304 -149 340 -213 q 285 -77 285 -115 q 308 4 286 -28 l 316 4 q 526 104 446 4 q 541 125 534 115 l 502 155 q 317 57 430 61 q 145 137 209 57 q 95 288 95 199 q 174 460 95 395 q 312 507 232 507 l 476 507 q 495 616 495 563 q 401 785 495 742 q 327 802 366 802 q 195 736 241 802 q 168 643 168 697 q 202 536 168 583 q 58 376 96 490 q 45 288 45 332 z "},"ඩ":{"ha":762,"x_min":45,"x_max":718,"o":"m 45 243 q 153 15 45 57 q 213 4 180 4 q 366 126 334 4 q 373 156 370 141 q 473 14 388 45 q 533 4 502 4 q 701 168 667 4 q 718 397 718 247 q 450 1005 718 936 q 359 1016 407 1016 q 155 930 241 1016 q 92 838 111 888 l 138 821 q 259 943 170 902 q 359 966 309 966 q 656 598 609 966 q 667 397 667 509 q 627 110 667 180 q 533 54 593 56 q 400 232 419 54 q 396 305 397 262 l 350 305 q 308 104 342 157 q 213 54 274 56 q 99 183 119 54 q 95 243 95 212 q 182 465 95 416 q 245 480 210 480 l 431 480 q 434 525 434 495 q 339 696 434 652 q 266 711 305 711 q 134 643 174 711 q 117 570 117 610 q 123 528 117 549 l 45 528 l 45 480 l 118 480 q 49 305 64 438 q 45 243 45 273 m 161 570 q 231 661 161 642 q 266 665 247 665 q 377 589 349 665 q 388 528 387 562 l 170 528 q 161 570 161 547 z "},"ඪ":{"ha":762,"x_min":45,"x_max":726,"o":"m 597 712 q 469 770 507 712 q 454 818 454 793 q 490 932 454 863 q 507 981 506 964 q 632 715 591 876 q 597 712 608 712 m 406 818 q 479 696 406 742 q 595 666 530 666 q 643 670 620 666 q 675 343 675 526 q 636 106 675 165 q 533 54 601 56 q 400 232 419 54 q 396 305 397 262 l 350 305 q 308 104 342 157 q 213 54 274 56 q 99 183 119 54 q 95 243 95 212 q 182 465 95 416 q 245 480 210 480 l 431 480 q 434 525 434 495 q 339 696 434 652 q 266 711 305 711 q 134 643 174 711 q 117 570 117 610 q 123 528 117 549 l 45 528 l 45 480 l 118 480 q 49 305 64 438 q 45 243 45 273 q 153 15 45 57 q 213 4 180 4 q 366 126 334 4 q 373 156 370 141 q 473 14 388 45 q 533 4 502 4 q 711 156 677 4 q 726 343 726 221 q 547 1008 726 783 q 460 1095 507 1058 l 429 1058 q 446 1043 442 1047 q 464 1005 464 1025 q 435 926 464 987 q 406 818 406 865 m 161 570 q 231 661 161 642 q 266 665 247 665 q 377 589 349 665 q 388 528 387 562 l 170 528 q 161 570 161 547 z "},"ධ":{"ha":765,"x_min":45,"x_max":722,"o":"m 45 290 q 84 475 45 395 q 228 604 137 585 q 256 606 243 606 q 334 586 294 605 l 312 543 q 256 557 282 557 q 133 463 182 557 q 126 449 129 456 q 95 290 95 381 q 164 71 95 121 q 216 54 189 54 q 347 225 328 54 q 353 305 351 255 l 399 305 q 441 104 407 157 q 536 54 475 56 q 663 221 640 54 q 671 397 671 283 q 434 958 671 899 q 362 966 400 966 q 189 891 262 966 q 142 821 157 859 l 96 838 q 235 985 133 935 q 362 1016 297 1016 q 708 620 652 1016 q 722 397 722 521 q 680 91 722 175 q 536 4 633 5 q 382 126 415 4 q 376 156 378 141 q 298 24 366 62 q 216 4 262 4 q 56 176 90 4 q 45 290 45 229 z "},"එ":{"ha":726,"x_min":45,"x_max":699,"o":"m 575 712 q 448 770 486 712 q 433 818 433 793 q 468 932 433 863 q 486 981 484 964 q 616 716 571 873 q 575 712 595 712 m 384 818 q 457 696 384 742 q 574 666 509 666 q 627 671 604 666 q 648 464 648 564 q 487 84 648 168 q 359 54 430 54 q 129 194 180 54 q 113 282 113 236 q 182 456 113 400 q 248 480 214 480 l 425 480 q 429 525 429 500 q 332 696 429 652 q 259 711 298 711 q 129 644 170 711 q 110 570 110 612 q 117 528 110 549 l 45 528 l 45 480 l 144 480 q 87 406 111 461 q 64 281 64 350 q 149 73 64 151 q 359 4 228 4 q 661 217 581 4 q 699 464 699 320 q 570 941 699 732 q 438 1095 511 1034 l 407 1058 q 425 1043 418 1050 q 441 1005 441 1025 q 412 926 441 987 q 384 818 384 865 m 156 570 q 225 661 156 643 q 259 665 241 665 q 372 586 345 665 q 382 528 381 560 l 164 528 q 156 570 156 547 z "},"ඒ":{"ha":726,"x_min":45,"x_max":836,"o":"m 697 905 q 667 907 682 905 l 667 1124 l 671 1124 q 780 1069 758 1124 q 788 1016 788 1046 q 697 905 779 911 m 625 1171 l 625 941 q 629 806 625 910 q 574 935 616 867 q 438 1095 515 1029 l 407 1058 q 425 1043 418 1050 q 441 1005 441 1025 q 412 926 441 987 q 384 818 384 865 q 457 696 384 742 q 574 666 509 666 q 627 671 604 666 q 648 464 648 564 q 487 84 648 168 q 359 54 430 54 q 129 194 180 54 q 113 282 113 236 q 182 456 113 400 q 248 480 214 480 l 425 480 q 429 525 429 500 q 332 696 429 652 q 259 711 298 711 q 129 644 170 711 q 110 570 110 612 q 117 528 110 549 l 45 528 l 45 480 l 144 480 q 87 406 111 461 q 64 281 64 350 q 149 73 64 151 q 359 4 228 4 q 661 217 581 4 q 699 464 699 320 q 673 689 699 583 l 673 859 q 697 857 682 857 q 827 954 802 857 q 836 1016 836 982 q 673 1171 829 1169 l 625 1171 m 575 712 q 448 770 486 712 q 433 818 433 793 q 468 932 433 863 q 486 981 484 964 q 616 716 571 873 q 575 712 595 712 m 156 570 q 225 661 156 643 q 259 665 241 665 q 372 586 345 665 q 382 528 381 560 l 164 528 q 156 570 156 547 z "},"ෆ":{"ha":774,"x_min":45,"x_max":731,"o":"m 45 396 q 118 755 45 673 q 228 802 161 802 q 381 680 349 802 q 388 650 385 665 q 488 792 403 761 q 548 802 515 802 q 716 616 681 802 q 731 396 731 532 q 460 4 728 5 l 460 54 q 681 396 680 57 q 567 750 681 727 q 548 751 557 751 q 415 571 434 751 q 411 502 412 544 l 365 502 q 315 713 358 661 q 228 751 281 751 q 95 444 103 751 q 95 396 95 420 q 316 54 96 56 l 316 4 q 45 396 46 7 z "},"ග":{"ha":863,"x_min":45,"x_max":818,"o":"m 590 54 q 483 121 518 56 q 507 236 507 172 q 446 385 507 334 q 411 406 429 400 q 429 502 429 445 l 429 544 q 496 711 429 658 q 581 738 533 738 q 751 571 715 738 q 768 396 768 499 q 590 54 766 56 m 311 374 l 327 335 q 382 368 355 346 q 450 288 431 357 q 457 236 457 262 q 389 81 457 132 q 296 54 350 54 q 96 374 98 57 q 273 738 98 736 q 378 671 346 738 q 391 635 388 652 q 378 544 378 593 q 378 528 378 538 q 380 502 380 511 q 311 374 378 406 m 45 374 q 296 4 46 5 q 453 72 396 5 q 590 4 503 5 q 818 396 817 7 q 621 785 818 755 q 581 788 601 788 q 422 700 479 787 q 273 788 376 787 q 45 374 46 785 z "},"ඝ":{"ha":788,"x_min":45,"x_max":745,"o":"m 568 549 l 425 549 l 425 616 q 503 749 425 720 q 547 755 524 755 q 646 701 616 755 q 659 643 659 674 q 623 540 658 583 q 568 549 598 549 m 378 616 l 378 549 l 171 549 q 142 643 142 591 q 210 747 142 720 q 255 755 232 755 q 368 681 339 755 q 378 616 378 651 m 109 256 q 191 476 109 425 q 259 494 221 494 l 566 494 q 692 311 675 494 q 694 256 694 283 q 618 62 694 107 q 562 47 593 47 q 500 90 517 47 q 496 115 496 103 q 515 186 496 140 q 525 232 525 210 q 401 324 515 321 q 279 248 288 324 q 278 232 278 240 q 296 165 278 210 q 307 115 307 140 q 267 53 307 69 q 241 47 254 47 q 119 161 149 47 q 109 256 109 205 m 58 263 q 149 31 58 94 q 241 4 190 4 q 343 64 311 4 q 357 122 357 91 q 336 201 357 151 q 328 233 328 220 q 401 281 331 281 q 475 233 473 278 q 457 178 475 222 q 446 122 446 149 q 503 19 446 52 q 562 4 530 4 q 726 134 682 4 q 745 263 745 191 q 678 499 745 422 q 661 517 669 510 q 704 643 704 572 q 618 787 704 746 q 547 802 585 802 q 403 720 448 802 q 401 718 401 719 q 255 802 354 800 q 125 736 170 802 q 98 643 98 697 q 121 549 98 593 l 45 549 l 45 500 l 132 500 q 62 326 77 458 q 58 263 58 293 z "},"හ":{"ha":853,"x_min":45,"x_max":808,"o":"m 581 54 q 476 117 510 56 q 498 214 498 163 q 431 347 498 321 q 397 354 416 354 l 391 354 q 419 492 419 406 q 519 730 419 696 q 571 738 544 738 q 743 567 705 738 q 758 396 758 496 q 581 54 757 56 m 297 323 l 313 283 q 345 301 331 292 q 387 315 366 315 q 445 245 434 315 q 448 214 448 231 q 377 79 448 122 q 282 54 338 54 q 99 221 125 54 q 95 285 95 252 q 179 491 95 454 q 224 500 199 500 l 369 500 l 369 499 q 297 323 368 362 m 45 285 q 178 24 45 83 q 282 4 224 4 q 446 69 385 5 q 581 4 494 5 q 808 396 807 7 q 612 785 808 755 q 571 788 591 788 q 401 684 452 787 q 286 796 376 774 q 243 802 264 802 q 111 736 157 802 q 84 643 84 697 q 127 517 85 574 q 45 285 45 445 m 130 643 q 198 747 130 720 q 243 755 220 755 q 353 682 324 755 q 365 616 365 652 l 365 549 l 221 549 q 167 540 189 549 q 130 643 130 583 z "},"්":{"ha":8,"x_min":-134,"x_max":76,"o":"m -62 905 q -92 907 -77 905 l -92 1124 l -87 1124 q 28 1016 27 1120 q -62 905 19 911 m -134 1171 l -134 623 l -87 623 l -87 859 q -62 857 -77 857 q 68 954 42 857 q 76 1016 76 982 q -87 1171 69 1169 l -134 1171 z "},"ඉ":{"ha":696,"x_min":45,"x_max":651,"o":"m 145 -187 q 308 -271 214 -270 q 464 -183 418 -271 q 484 -95 484 -142 q 412 49 484 14 q 391 57 401 54 q 628 285 571 111 q 651 437 651 354 q 487 769 651 686 q 340 802 422 802 q 90 670 171 802 q 45 509 45 597 q 95 321 46 392 q 218 243 136 252 q 239 241 229 241 q 376 313 327 241 q 404 407 404 357 q 336 543 403 491 q 239 575 292 575 q 100 496 145 575 q 92 479 96 487 q 91 509 91 490 q 176 696 91 625 q 340 751 245 751 q 560 625 494 751 q 601 437 601 549 q 449 140 601 233 q 273 90 368 90 l 274 38 q 305 37 296 38 q 433 -73 425 27 q 434 -95 434 -84 q 369 -208 434 -176 q 308 -221 340 -221 q 183 -155 236 -220 l 145 -187 m 119 407 q 178 510 119 475 q 239 526 206 526 q 340 468 305 526 q 357 407 357 439 q 300 304 357 339 q 239 288 271 288 q 136 346 171 288 q 119 407 119 374 z "},"ඊ":{"ha":674,"x_min":60,"x_max":651,"o":"m 557 1001 q 589 956 557 967 q 604 954 597 954 q 648 985 636 954 q 651 1001 651 993 q 618 1044 651 1035 q 604 1047 610 1047 q 560 1016 571 1047 q 557 1001 557 1008 m 240 1001 q 271 956 240 967 q 286 954 279 954 q 330 986 320 954 q 332 1001 332 993 q 301 1044 332 1034 q 286 1047 293 1047 q 243 1016 254 1047 q 240 1001 240 1008 m 60 351 q 175 53 60 145 q 339 -1 244 -1 q 572 144 495 -1 q 623 369 623 240 q 583 564 623 481 q 392 708 519 694 q 366 709 378 709 q 259 688 302 709 q 457 926 415 842 q 488 1047 488 987 l 439 1047 q 339 841 439 955 q 240 738 307 804 q 60 372 68 566 q 60 351 60 361 m 110 351 l 110 354 q 178 570 111 480 q 366 661 248 659 q 537 543 481 661 q 572 369 572 469 q 480 104 572 193 q 339 49 420 49 q 144 179 202 49 q 110 351 110 252 z "},"ජ":{"ha":817,"x_min":45,"x_max":772,"o":"m 369 616 l 369 545 l 262 545 q 179 532 220 545 q 134 643 134 575 q 201 747 134 720 q 245 755 222 755 q 358 681 330 755 q 369 616 369 651 m 522 545 l 415 545 l 415 616 q 494 749 415 720 q 537 755 514 755 q 636 701 606 755 q 650 643 650 674 q 605 530 648 578 q 522 545 566 545 m 95 304 q 178 475 95 427 q 262 495 214 495 l 522 495 q 674 391 635 495 q 689 304 689 351 q 570 85 689 156 q 392 41 495 41 q 140 152 220 41 q 95 304 95 217 m 45 304 q 176 49 45 133 q 392 -9 266 -9 q 678 113 583 -9 q 739 304 739 193 q 655 503 739 435 q 646 510 650 507 q 696 643 696 566 q 625 777 694 735 q 768 1009 750 911 q 772 1053 772 1031 l 723 1053 q 621 845 723 960 q 576 798 601 823 q 537 802 557 802 q 397 727 444 802 q 392 718 395 722 q 245 802 345 800 q 115 736 160 802 q 88 643 88 697 q 138 510 90 564 q 45 304 46 441 z "},"ඣ":{"ha":1374,"x_min":45,"x_max":1331,"o":"m 652 290 q 738 33 652 100 q 825 4 776 4 q 978 126 945 4 q 985 156 982 141 q 1085 14 1000 45 q 1145 4 1114 4 q 1314 172 1280 4 q 1331 397 1331 250 q 1046 1009 1331 951 q 971 1016 1010 1016 q 768 932 854 1016 q 705 838 724 888 l 751 821 q 872 944 783 903 q 971 966 920 966 q 1274 553 1237 966 q 1280 397 1280 480 q 1240 111 1280 182 q 1145 54 1206 56 q 1012 232 1031 54 q 1008 305 1009 262 l 962 305 q 911 94 955 146 q 825 54 878 54 q 711 198 736 54 q 703 290 703 241 q 735 449 703 380 q 852 556 779 547 q 865 557 860 557 q 921 543 890 556 l 943 586 q 865 606 902 606 q 849 605 854 606 q 597 776 772 774 q 373 658 481 774 q 264 792 355 762 q 208 802 236 802 q 76 736 122 802 q 49 643 49 697 q 171 463 49 515 q 205 450 187 456 l 45 250 l 79 210 q 88 214 85 214 q 102 176 102 213 q 100 156 102 170 q 100 142 100 146 q 214 4 109 8 q 321 72 296 4 q 328 107 328 90 q 376 23 330 53 q 442 4 406 4 q 600 266 600 5 q 469 563 600 507 q 399 576 435 576 q 365 571 378 576 l 377 587 q 597 726 487 724 q 787 617 722 726 q 800 591 795 604 q 692 475 734 556 q 652 290 652 393 m 442 54 q 353 216 355 56 l 353 231 l 304 231 l 304 216 q 214 54 300 56 q 146 142 148 57 l 146 174 q 118 259 145 256 l 302 492 q 399 526 343 526 q 532 404 496 526 q 549 266 549 346 q 442 54 544 61 m 95 643 q 163 747 95 720 q 208 755 184 755 q 317 682 289 755 q 330 616 330 652 l 330 608 l 235 487 q 95 643 96 521 z "},"ඥ":{"ha":1287,"x_min":45,"x_max":1328,"o":"m 952 -77 q 1025 -228 952 -175 q 1131 -262 1073 -262 q 1317 -160 1251 -262 q 1328 -142 1322 -151 l 1289 -113 q 1131 -213 1222 -208 q 1020 -146 1057 -213 q 1002 -77 1002 -114 q 1024 4 1004 -28 l 1034 4 q 1242 103 1161 4 q 1259 125 1252 114 l 1218 155 q 1034 57 1152 58 q 863 137 926 57 q 812 288 812 199 q 891 460 812 395 q 1029 507 949 507 l 1194 507 q 1213 616 1213 563 q 1116 787 1213 743 q 1043 802 1082 802 q 910 732 954 802 q 906 726 907 728 q 766 788 859 787 q 617 703 671 787 q 469 788 570 787 q 315 711 370 787 q 203 785 283 784 q 62 598 98 785 q 45 385 45 510 q 174 14 45 60 q 197 8 186 9 l 197 58 q 115 180 144 68 q 95 385 95 263 q 168 722 95 659 q 203 735 186 735 q 279 661 269 735 q 281 647 281 654 q 241 374 241 545 q 492 4 243 5 q 682 126 631 4 q 704 236 704 178 q 643 385 704 334 q 608 406 625 400 q 625 502 625 445 q 624 528 625 511 q 624 544 624 540 q 689 712 624 659 q 766 738 723 738 q 871 689 838 738 q 886 643 886 667 q 918 536 886 579 q 776 374 812 490 q 762 288 762 331 q 880 50 762 129 q 972 11 922 23 q 952 -77 952 -28 m 930 643 q 998 747 930 720 q 1043 755 1020 755 q 1154 685 1123 755 q 1166 616 1166 654 q 1158 557 1166 600 l 1029 557 q 963 551 997 557 q 930 643 930 591 m 507 374 l 524 335 q 579 368 552 346 q 647 288 628 357 q 654 236 654 262 q 589 84 654 134 q 492 54 548 54 q 292 374 293 57 q 469 738 293 736 q 575 673 543 738 q 587 639 583 655 q 574 544 574 597 q 574 528 574 538 q 575 502 575 511 q 507 374 574 406 z "},"ක":{"ha":933,"x_min":45,"x_max":888,"o":"m 45 250 l 79 210 q 88 214 85 214 q 102 176 102 213 q 100 156 102 170 q 100 142 100 146 q 214 4 109 8 q 321 72 296 4 q 328 107 328 90 q 376 23 330 53 q 442 4 406 4 q 553 61 514 5 q 684 4 595 4 q 888 369 887 7 q 726 773 888 685 q 610 802 674 802 q 372 659 496 800 q 263 793 354 764 q 208 802 236 802 q 76 736 122 802 q 49 643 49 697 q 171 463 49 515 q 205 450 187 456 l 45 250 m 684 54 q 579 115 604 56 q 600 266 600 178 q 469 563 600 507 q 399 576 435 576 q 365 571 378 576 l 377 587 q 559 743 480 718 q 610 751 586 751 q 804 598 747 751 q 838 369 838 507 q 732 66 838 119 q 684 54 709 54 m 442 54 q 353 216 355 56 l 353 231 l 304 231 l 304 216 q 214 54 300 56 q 146 142 148 57 l 146 174 q 118 259 145 256 l 302 492 q 399 526 343 526 q 532 404 496 526 q 549 266 549 346 q 442 54 544 61 m 95 643 q 163 747 95 720 q 208 755 184 755 q 317 682 289 755 q 330 616 330 652 l 330 608 l 235 487 q 95 643 96 521 z "},"ඛ":{"ha":753,"x_min":45,"x_max":709,"o":"m 201 53 q 95 298 95 56 q 232 606 95 574 q 266 610 248 610 q 393 528 373 610 q 400 467 400 502 q 361 343 400 411 q 328 275 336 300 q 297 133 302 203 q 201 53 264 54 m 45 298 q 201 4 46 5 q 300 47 264 5 q 319 -76 307 -20 l 369 -72 q 346 107 346 9 q 351 182 346 155 q 362 152 355 172 q 376 114 370 126 q 502 5 414 16 q 528 4 515 4 q 709 397 708 11 q 425 1009 709 951 q 350 1016 389 1016 q 142 929 231 1016 q 83 838 102 887 l 129 821 q 251 944 161 903 q 350 966 300 966 q 652 553 616 966 q 659 397 659 480 q 591 91 659 182 q 528 53 563 54 q 420 126 453 53 q 416 134 418 130 q 401 172 411 146 q 366 244 381 224 q 372 256 368 248 q 376 269 374 264 q 416 343 378 277 q 449 467 449 400 q 346 648 449 617 q 266 659 312 659 q 68 486 118 659 q 45 298 45 407 z "},"ල":{"ha":772,"x_min":45,"x_max":727,"o":"m 45 282 q 184 719 45 586 q 404 802 273 802 q 671 654 583 802 q 727 450 727 562 q 620 172 727 250 q 499 136 568 136 q 347 229 391 136 q 330 309 330 267 q 401 446 330 400 q 418 454 411 450 l 289 454 l 289 500 l 507 500 l 507 450 q 387 353 414 431 q 380 309 380 331 q 438 203 380 239 q 499 186 468 186 q 675 412 662 186 q 677 450 677 431 q 581 684 677 594 q 404 751 505 751 q 146 562 228 751 q 95 282 95 442 q 233 -99 95 8 q 399 -152 304 -152 q 632 -30 555 -152 q 667 50 656 8 l 715 42 q 548 -172 677 -113 q 399 -202 481 -202 q 92 7 180 -202 q 45 282 45 122 z "},"ළ":{"ha":732,"x_min":45,"x_max":688,"o":"m 45 180 q 149 -115 45 -8 q 372 -205 236 -205 q 662 -33 579 -205 q 688 39 678 3 l 640 47 q 514 -119 612 -64 q 372 -155 452 -155 q 137 -9 212 -155 q 95 180 95 75 q 186 419 95 338 q 227 448 206 437 q 213 388 213 422 q 308 240 213 281 q 415 221 354 221 q 590 301 543 221 q 608 365 608 331 l 557 365 q 479 279 557 300 q 415 271 450 271 q 267 355 292 271 q 263 388 263 370 q 290 463 263 446 q 302 467 297 467 l 633 467 q 651 609 651 547 q 571 793 651 760 q 529 802 551 802 q 422 713 442 800 q 307 802 396 800 q 184 699 212 802 q 178 636 178 669 q 224 500 179 549 q 73 338 122 458 q 45 180 45 264 m 228 636 q 277 745 228 719 q 307 751 292 751 q 387 677 370 751 q 393 637 391 659 q 397 590 397 613 l 397 517 l 302 517 q 283 515 290 517 q 233 595 250 521 q 228 636 228 617 m 446 590 q 448 637 446 620 q 529 751 458 750 q 604 618 604 749 q 594 517 604 572 l 446 517 l 446 590 z "},"ම":{"ha":727,"x_min":45,"x_max":684,"o":"m 362 359 q 290 433 298 359 q 288 471 288 449 q 293 529 288 487 q 300 600 300 576 q 297 632 300 614 q 354 658 316 658 q 423 593 401 658 q 433 524 433 562 q 380 362 433 378 q 362 359 370 359 m 45 396 q 134 102 45 210 q 359 4 217 4 q 644 218 567 4 q 684 480 684 326 q 358 1016 675 1009 q 172 940 251 1016 q 106 838 129 897 l 152 821 q 277 949 187 913 q 358 966 316 966 q 632 480 631 963 q 475 81 632 167 q 359 54 423 54 q 115 247 174 54 q 94 396 94 317 q 197 656 95 655 q 252 591 251 654 q 245 529 252 572 q 240 471 240 488 q 362 312 243 313 q 480 524 480 313 q 397 697 480 663 q 354 705 376 705 q 275 677 308 704 q 197 703 250 703 q 45 429 53 703 q 45 396 45 412 z "},"ා":{"ha":321,"x_min":0,"x_max":277,"o":"m 0 697 q 96 749 35 749 q 250 601 202 749 q 277 385 277 513 q 172 46 277 123 q 96 22 137 22 q 0 73 34 23 l 37 103 q 96 72 60 75 q 213 228 183 72 q 227 385 227 296 q 137 688 227 636 q 96 699 117 699 q 37 667 58 696 l 0 697 z "},"ෑ":{"ha":403,"x_min":0,"x_max":358,"o":"m 0 214 q 130 9 0 38 q 178 4 152 4 q 358 216 349 4 q 358 239 358 227 l 308 239 q 243 72 308 117 q 178 54 214 54 q 53 170 72 54 q 50 214 50 191 q 132 382 50 301 q 274 453 205 452 l 274 503 l 98 503 l 274 686 l 274 736 l 24 736 l 24 686 l 199 686 l 24 503 l 24 453 l 136 453 q 7 269 31 380 q 0 214 0 240 z "},"ැ":{"ha":373,"x_min":0,"x_max":369,"o":"m 0 214 q 79 439 0 313 q 251 686 96 465 l 65 686 l 65 736 l 315 736 l 315 686 q 231 570 285 643 q 77 330 106 395 q 50 214 50 270 q 157 57 50 76 q 189 54 174 54 q 313 179 290 54 q 319 239 319 209 l 369 239 q 189 4 355 14 q 7 142 39 4 q 0 214 0 176 z "},"ෛ":{"ha":1141,"x_min":37,"x_max":1141,"o":"m 307 365 q 355 446 307 419 q 399 457 377 457 l 400 457 q 479 410 452 457 q 491 365 491 388 q 442 283 491 311 q 399 273 420 273 q 317 321 345 273 q 307 365 307 343 m 256 365 q 319 248 256 292 q 336 239 328 243 q 399 224 368 224 q 510 290 471 224 q 513 294 511 293 l 513 278 q 438 94 513 156 q 321 54 389 54 q 115 205 174 54 q 87 380 87 279 q 176 651 87 547 q 346 731 248 730 q 514 637 442 730 l 555 669 q 374 780 490 766 q 346 781 359 781 q 109 644 198 781 q 37 380 37 532 q 159 57 37 153 q 321 4 227 4 q 528 129 463 4 q 563 278 563 197 q 475 486 563 430 q 399 507 439 507 q 281 444 324 507 q 256 365 256 407 m 884 365 q 933 446 884 419 q 977 457 955 457 l 978 457 q 1057 410 1029 457 q 1069 365 1069 388 q 1020 283 1069 311 q 977 273 998 273 q 895 321 922 273 q 884 365 884 343 m 834 365 q 897 248 834 292 q 914 239 906 243 q 977 224 945 224 q 1088 290 1048 224 q 1090 294 1089 293 l 1090 278 q 1016 94 1090 156 q 899 54 967 54 q 693 205 751 54 q 665 380 665 279 q 754 651 665 547 q 924 731 826 730 q 1092 637 1020 730 l 1133 669 q 952 780 1067 766 q 924 781 937 781 q 686 644 776 781 q 614 380 614 532 q 736 57 614 153 q 899 4 804 4 q 1105 129 1040 4 q 1141 278 1141 197 q 1053 486 1141 430 q 977 507 1017 507 q 859 444 902 507 q 834 365 834 407 z "},"ෞ":{"ha":1179,"x_min":37,"x_max":1095,"o":"m 307 365 q 355 446 307 419 q 399 457 377 457 l 400 457 q 479 410 452 457 q 491 365 491 388 q 442 283 491 311 q 399 273 420 273 q 317 321 345 273 q 307 365 307 343 m 256 365 q 319 248 256 292 q 336 239 328 243 q 399 224 368 224 q 510 290 471 224 q 513 294 511 293 l 513 278 q 438 94 513 156 q 321 54 389 54 q 115 205 174 54 q 87 380 87 279 q 176 651 87 547 q 346 731 248 730 q 514 637 442 730 l 555 669 q 374 780 490 766 q 346 781 359 781 q 109 644 198 781 q 37 380 37 532 q 159 57 37 153 q 321 4 227 4 q 528 129 463 4 q 563 278 563 197 q 475 486 563 430 q 399 507 439 507 q 281 444 324 507 q 256 365 256 407 m 716 480 q 822 336 719 338 q 894 395 882 336 q 898 430 895 406 q 924 500 903 488 q 951 507 936 507 q 1044 301 1044 506 q 926 54 1043 56 q 897 58 910 54 q 873 68 883 61 q 858 81 863 76 q 846 95 853 85 l 841 104 l 800 80 q 830 39 826 43 q 926 4 868 4 q 1095 301 1093 7 q 951 557 1092 556 q 879 531 903 557 q 852 472 854 505 q 844 413 850 439 q 822 387 838 387 q 766 480 766 388 q 823 629 766 602 q 886 640 849 640 l 886 690 q 735 609 768 690 q 716 480 716 562 z "},"ෙ":{"ha":595,"x_min":37,"x_max":563,"o":"m 307 365 q 355 446 307 419 q 399 457 377 457 l 400 457 q 479 410 452 457 q 491 365 491 388 q 442 283 491 311 q 399 273 420 273 q 317 321 345 273 q 307 365 307 343 m 256 365 q 319 248 256 292 q 336 239 328 243 q 399 224 368 224 q 510 290 471 224 q 513 294 511 293 l 513 278 q 438 94 513 156 q 321 54 389 54 q 115 205 174 54 q 87 380 87 279 q 176 651 87 547 q 346 731 248 730 q 514 637 442 730 l 555 669 q 374 780 490 766 q 346 781 359 781 q 109 644 198 781 q 37 380 37 532 q 159 57 37 153 q 321 4 227 4 q 528 129 463 4 q 563 278 563 197 q 475 486 563 430 q 399 507 439 507 q 281 444 324 507 q 256 365 256 407 z "},"ේ":{"ha":808,"x_min":37,"x_max":727,"o":"m 307 365 q 355 446 307 419 q 399 457 377 457 l 400 457 q 479 410 452 457 q 491 365 491 388 q 442 283 491 311 q 399 273 420 273 q 317 321 345 273 q 307 365 307 343 m 256 365 q 319 248 256 292 q 336 239 328 243 q 399 224 368 224 q 510 290 471 224 q 513 294 511 293 l 513 278 q 438 94 513 156 q 321 54 389 54 q 115 205 174 54 q 87 380 87 279 q 176 651 87 547 q 346 731 248 730 q 514 637 442 730 l 517 640 l 517 623 l 564 623 l 564 859 q 589 857 574 857 q 719 954 693 857 q 727 1016 727 982 q 564 1171 720 1169 l 517 1171 l 517 713 q 346 781 444 781 q 109 644 198 781 q 37 380 37 532 q 159 57 37 153 q 321 4 227 4 q 528 129 463 4 q 563 278 563 197 q 475 486 563 430 q 399 507 439 507 q 281 444 324 507 q 256 365 256 407 m 589 905 q 559 907 574 905 l 559 1124 l 564 1124 q 678 1040 666 1124 q 680 1016 680 1028 q 589 905 670 911 z "},"ි":{"ha":0,"x_min":-705,"x_max":-69,"o":"m -705 930 q -583 1126 -705 1058 q -388 1171 -499 1171 q -127 1077 -216 1171 q -69 930 -69 1015 q -130 787 -69 846 q -176 754 -152 765 l -209 761 l -209 785 q -126 887 -148 812 q -119 930 -119 909 q -227 1086 -119 1035 q -388 1120 -296 1120 q -618 1032 -548 1120 q -655 930 -655 987 q -601 808 -655 859 q -566 785 -583 793 l -566 761 l -598 754 q -696 871 -669 787 q -705 930 -705 902 z "},"ී":{"ha":0,"x_min":-705,"x_max":-69,"o":"m -288 888 q -243 960 -288 937 q -208 968 -227 968 q -136 924 -157 968 q -127 888 -127 906 q -172 815 -127 837 q -208 807 -190 807 q -279 853 -258 807 q -288 888 -288 871 m -340 888 q -278 776 -340 815 q -209 757 -245 757 q -190 758 -197 757 l -190 758 l -187 758 q -71 907 -80 773 q -69 930 -69 920 q -191 1124 -69 1058 q -388 1171 -275 1171 q -647 1077 -557 1171 q -705 930 -705 1015 q -644 787 -705 846 q -598 754 -623 765 l -566 761 l -566 785 q -648 887 -627 812 q -655 930 -655 910 q -548 1088 -655 1035 q -388 1120 -480 1120 q -151 1034 -225 1120 q -118 971 -127 1005 q -209 1020 -151 1019 q -319 960 -281 1020 q -340 888 -340 926 z "},"ෳ":{"ha":385,"x_min":0,"x_max":378,"o":"m 0 480 q 68 669 0 628 q 170 690 107 690 l 170 640 q 61 570 83 640 q 50 480 50 536 q 106 387 53 388 q 130 431 125 387 q 157 525 141 502 q 235 557 184 557 q 378 301 378 556 q 210 4 377 5 q 91 71 133 4 q 84 80 85 79 l 125 104 q 148 76 146 77 q 210 54 172 54 q 328 301 328 57 q 235 507 327 506 q 186 460 194 507 q 182 430 183 450 q 152 349 175 365 q 106 336 133 336 q 0 480 1 339 z "},"ෟ":{"ha":385,"x_min":0,"x_max":378,"o":"m 0 480 q 68 669 0 628 q 170 690 107 690 l 170 640 q 61 570 83 640 q 50 480 50 536 q 106 387 53 388 q 130 431 125 387 q 157 525 141 502 q 235 557 184 557 q 378 301 378 556 q 210 4 377 5 q 91 71 133 4 q 84 80 85 79 l 125 104 q 148 76 146 77 q 210 54 172 54 q 328 301 328 57 q 235 507 327 506 q 186 460 194 507 q 182 430 183 450 q 152 349 175 365 q 106 336 133 336 q 0 480 1 339 z "},"ො":{"ha":1271,"x_min":37,"x_max":1194,"o":"m 307 365 q 355 446 307 419 q 399 457 377 457 l 400 457 q 479 410 452 457 q 491 365 491 388 q 442 283 491 311 q 399 273 420 273 q 317 321 345 273 q 307 365 307 343 m 256 365 q 319 248 256 292 q 336 239 328 243 q 399 224 368 224 q 510 290 471 224 q 513 294 511 293 l 513 278 q 438 94 513 156 q 321 54 389 54 q 115 205 174 54 q 87 380 87 279 q 176 651 87 547 q 346 731 248 730 q 514 637 442 730 l 555 669 q 374 780 490 766 q 346 781 359 781 q 109 644 198 781 q 37 380 37 532 q 159 57 37 153 q 321 4 227 4 q 528 129 463 4 q 563 278 563 197 q 475 486 563 430 q 399 507 439 507 q 281 444 324 507 q 256 365 256 407 m 917 703 l 954 673 q 1013 704 977 701 q 1130 548 1100 704 q 1143 391 1143 480 q 1054 88 1143 140 q 1013 77 1034 77 q 954 109 975 80 l 917 79 q 1013 27 952 27 q 1166 175 1119 27 q 1194 391 1194 263 q 1089 730 1194 652 q 1013 754 1054 754 q 917 703 951 753 z "},"ෝ":{"ha":1172,"x_min":37,"x_max":1103,"o":"m 307 365 q 355 446 307 419 q 399 457 377 457 l 400 457 q 479 410 452 457 q 491 365 491 388 q 442 283 491 311 q 399 273 420 273 q 317 321 345 273 q 307 365 307 343 m 256 365 q 319 248 256 292 q 336 239 328 243 q 399 224 368 224 q 510 290 471 224 q 513 294 511 293 l 513 278 q 438 94 513 156 q 321 54 389 54 q 115 205 174 54 q 87 380 87 279 q 176 651 87 547 q 346 731 248 730 q 514 637 442 730 l 555 669 q 374 780 490 766 q 346 781 359 781 q 109 644 198 781 q 37 380 37 532 q 159 57 37 153 q 321 4 227 4 q 528 129 463 4 q 563 278 563 197 q 475 486 563 430 q 399 507 439 507 q 281 444 324 507 q 256 365 256 407 m 956 905 q 926 907 941 905 l 926 1124 l 932 1124 q 1046 1040 1034 1124 q 1047 1016 1047 1028 q 956 905 1038 911 m 884 1171 l 884 743 q 826 697 849 730 l 863 667 q 922 699 886 696 q 1039 543 1009 699 q 1053 385 1053 475 q 963 83 1053 134 q 922 72 943 72 q 863 103 884 75 l 826 73 q 922 22 861 22 q 1076 170 1028 22 q 1103 385 1103 258 q 997 726 1103 648 q 932 749 966 746 l 932 859 q 956 857 941 857 q 1086 954 1061 857 q 1095 1016 1095 982 q 932 1171 1088 1169 l 884 1171 z "},"ෘ":{"ha":376,"x_min":0,"x_max":331,"o":"m 0 195 q 56 34 0 83 q 126 8 85 8 q 214 28 152 8 q 245 35 233 35 q 290 8 271 34 l 331 35 q 288 197 288 102 q 302 391 288 213 q 309 545 309 475 q 160 746 308 745 q 8 553 9 743 q 11 503 8 538 l 61 503 q 60 553 60 519 q 160 696 62 694 q 259 545 258 693 q 258 517 259 532 q 258 491 258 502 q 256 463 258 480 q 255 439 255 446 q 253 414 255 433 q 251 391 251 395 q 250 366 251 388 l 247 346 q 142 385 209 385 q 20 298 61 385 q 0 195 0 252 m 136 60 q 50 195 52 62 q 104 323 50 288 q 151 336 126 336 q 241 293 202 335 q 235 195 235 233 q 252 79 235 126 q 239 80 247 80 q 163 64 229 80 q 136 60 145 60 z "},"ෲ":{"ha":781,"x_min":0,"x_max":697,"o":"m 366 195 q 422 34 366 83 q 492 8 452 8 q 581 28 518 8 q 612 35 600 35 q 656 8 637 34 l 697 35 q 654 197 654 102 q 669 391 654 213 q 675 545 675 475 q 526 746 674 745 q 374 553 376 743 q 377 503 374 538 l 427 503 q 426 553 426 519 q 526 696 429 694 q 625 545 624 693 q 625 517 625 532 q 624 491 624 502 q 623 463 624 480 q 621 439 621 446 q 619 414 621 433 q 617 391 617 395 q 616 366 617 388 l 613 346 q 509 385 575 385 q 387 298 427 385 q 366 195 366 252 m 502 60 q 416 195 418 62 q 471 323 416 288 q 517 336 492 336 q 608 293 568 335 q 601 195 601 233 q 618 79 601 126 q 605 80 613 80 q 529 64 595 80 q 502 60 511 60 m 0 195 q 56 34 0 83 q 126 8 85 8 q 214 28 152 8 q 245 35 233 35 q 290 8 271 34 l 331 35 q 288 197 288 102 q 302 391 288 213 q 309 545 309 475 q 160 746 308 745 q 8 553 9 743 q 11 503 8 538 l 61 503 q 60 553 60 519 q 160 696 62 694 q 259 545 258 693 q 258 517 259 532 q 258 491 258 502 q 256 463 258 480 q 255 439 255 446 q 253 414 255 433 q 251 391 251 395 q 250 366 251 388 l 247 346 q 142 385 209 385 q 20 298 61 385 q 0 195 0 252 m 136 60 q 50 195 52 62 q 104 323 50 288 q 151 336 126 336 q 241 293 202 335 q 235 195 235 233 q 252 79 235 126 q 239 80 247 80 q 163 64 229 80 q 136 60 145 60 z "},"ු":{"ha":0,"x_min":-633,"x_max":-57,"o":"m -633 -168 q -534 -274 -631 -273 l -57 -274 l -57 305 l -100 274 l -107 218 l -107 -224 l -534 -224 q -583 -159 -582 -221 q -575 -94 -583 -126 l -624 -88 q -633 -168 -633 -136 z "},"ූ":{"ha":0,"x_min":-636,"x_max":-60,"o":"m -636 -168 q -581 -259 -636 -229 q -522 -274 -553 -274 q -384 -225 -476 -274 q -252 -178 -296 -178 q -110 -274 -172 -180 l -60 -274 l -60 305 l -103 274 l -110 218 l -110 -194 q -252 -127 -175 -127 q -388 -176 -297 -127 q -522 -224 -477 -224 q -585 -176 -574 -224 q -586 -159 -586 -167 q -578 -94 -586 -136 l -627 -88 q -636 -168 -636 -136 z "},"ඹ":{"ha":761,"x_min":45,"x_max":716,"o":"m 45 340 q 129 30 45 95 q 212 4 164 4 q 313 64 281 4 q 327 122 327 91 q 307 201 327 151 q 298 233 298 220 q 372 281 301 281 q 444 233 442 278 q 426 178 444 222 q 415 122 415 149 q 473 19 415 52 q 532 4 499 4 q 700 168 666 4 q 716 397 716 247 q 449 1005 716 936 q 358 1016 406 1016 q 153 930 240 1016 q 91 838 110 888 l 137 821 q 258 943 168 902 q 358 966 308 966 q 655 598 608 966 q 666 397 666 509 q 625 110 666 180 q 532 54 591 56 q 469 96 486 54 q 465 122 465 110 q 484 193 465 146 q 494 239 494 217 q 388 331 494 326 q 372 331 380 331 q 250 255 258 331 q 248 239 248 247 q 266 172 248 217 q 277 122 277 146 q 236 60 277 76 q 212 54 225 54 q 95 298 100 54 q 95 340 95 317 q 159 640 95 571 q 206 663 180 663 q 279 568 275 655 q 277 529 279 552 q 275 502 275 511 q 347 385 275 407 q 382 381 365 381 q 491 545 491 382 q 382 709 488 707 q 301 666 328 708 q 206 711 269 709 q 57 500 91 711 q 45 340 45 427 m 327 578 q 324 608 327 590 q 382 661 339 659 q 442 545 442 659 q 382 430 439 433 q 324 502 326 431 q 326 548 324 514 q 327 578 327 571 z "},"න":{"ha":907,"x_min":45,"x_max":875,"o":"m 636 54 q 524 106 557 54 q 517 121 519 114 q 548 266 548 179 q 423 524 548 505 q 403 525 412 525 q 369 521 385 525 q 397 589 382 559 q 498 724 449 692 q 597 751 541 751 q 791 598 734 751 q 825 369 825 507 q 677 58 825 94 q 636 54 656 54 m 45 296 q 138 58 45 138 q 296 4 203 4 q 486 76 418 5 q 636 4 538 8 q 875 369 873 7 q 712 773 875 685 q 597 802 661 802 q 385 673 464 800 q 274 795 363 769 q 224 802 250 802 q 92 736 138 802 q 65 643 65 697 q 180 464 65 517 q 241 445 209 452 q 288 438 259 441 q 182 317 244 328 q 164 316 172 316 q 98 345 109 317 q 99 357 98 349 q 100 369 100 365 l 50 369 q 45 296 45 335 m 296 54 q 118 180 168 54 q 96 282 100 227 q 164 266 126 266 q 311 369 259 266 q 351 469 327 403 q 391 479 373 479 q 491 351 471 479 q 498 266 498 313 q 372 65 498 104 q 296 54 336 54 m 250 487 q 111 643 113 521 q 179 747 111 720 q 224 755 201 755 q 334 684 304 755 q 346 616 346 654 l 346 595 q 302 480 332 563 q 250 487 278 480 z "},"ඳ":{"ha":812,"x_min":45,"x_max":769,"o":"m 392 -77 q 465 -227 392 -172 q 572 -262 513 -262 q 758 -160 692 -262 q 769 -142 764 -151 l 728 -113 q 572 -213 665 -209 q 461 -149 498 -213 q 442 -77 442 -115 q 465 4 444 -28 l 473 4 q 684 104 604 4 q 699 125 692 115 l 659 155 q 475 57 587 61 q 302 137 368 57 q 252 288 252 199 q 331 460 252 395 q 469 507 389 507 l 633 507 q 652 616 652 563 q 559 785 652 742 q 484 802 524 802 q 349 730 393 800 q 233 785 312 784 q 72 625 119 785 q 45 385 45 529 q 174 14 45 60 q 197 8 186 9 l 197 58 q 115 180 144 68 q 95 385 95 263 q 179 713 95 642 q 233 735 203 735 q 326 654 317 735 q 327 643 327 648 q 359 536 327 582 q 216 376 254 490 q 202 288 202 332 q 316 53 202 132 q 414 11 361 22 q 392 -77 392 -28 m 372 643 q 439 747 372 720 q 484 755 461 755 q 594 682 566 755 q 606 616 606 652 q 600 559 606 594 l 600 557 l 469 557 q 404 551 437 557 q 372 643 372 591 z "},"ඦ":{"ha":1008,"x_min":45,"x_max":964,"o":"m 560 616 l 560 545 l 453 545 q 372 532 412 545 q 326 643 326 576 q 393 747 326 720 q 438 755 415 755 q 548 682 519 755 q 560 616 560 652 m 715 545 l 606 545 l 606 616 q 684 747 606 719 q 730 755 707 755 q 827 703 796 755 q 842 643 842 675 q 796 532 841 575 q 715 545 754 545 m 286 304 q 368 475 286 427 q 452 495 404 495 l 713 495 q 865 389 827 495 q 879 304 879 350 q 761 85 879 156 q 583 41 686 41 q 331 152 411 41 q 286 304 286 217 m 237 304 q 368 49 237 134 q 583 -9 457 -9 q 871 114 777 -9 q 930 304 930 194 q 846 503 930 435 q 837 510 841 507 q 887 643 887 566 q 817 777 886 735 q 959 1005 940 910 q 964 1053 964 1028 l 916 1053 q 814 845 916 960 q 769 798 793 823 q 730 802 747 802 q 587 727 635 802 q 583 719 585 722 q 438 802 530 796 q 307 735 351 802 q 304 731 305 732 q 203 785 273 784 q 62 598 98 785 q 45 385 45 510 q 174 14 45 60 q 197 8 186 9 l 197 58 q 115 180 144 68 q 95 385 95 263 q 168 722 95 659 q 203 735 186 735 q 279 659 269 735 q 281 643 281 651 q 330 510 282 566 q 237 304 240 439 z "},"ඞ":{"ha":825,"x_min":45,"x_max":718,"o":"m 363 469 q 294 476 357 469 q 281 477 286 477 q 302 548 302 511 q 255 647 301 610 l 274 647 q 431 574 412 647 q 434 545 434 560 q 387 473 434 488 q 363 469 374 469 m 45 243 q 153 15 45 57 q 213 4 180 4 q 366 126 334 4 q 373 156 370 141 q 473 14 388 45 q 533 4 502 4 q 701 168 667 4 q 718 397 718 247 q 450 1005 718 936 q 359 1016 407 1016 q 155 930 241 1016 q 92 838 111 888 l 138 821 q 259 943 170 902 q 359 966 309 966 q 656 598 609 966 q 667 397 667 509 q 627 110 667 180 q 533 54 593 56 q 400 232 419 54 q 396 305 397 262 l 350 305 q 308 104 342 157 q 213 54 274 56 q 99 186 118 54 q 95 244 95 214 q 194 420 95 385 q 245 429 218 429 q 302 425 273 429 q 363 419 334 419 q 471 481 441 419 q 484 545 484 510 q 346 686 484 661 q 274 692 312 692 q 90 642 138 692 q 79 628 84 635 q 62 602 69 617 l 61 598 q 53 548 53 575 q 111 442 53 479 q 123 435 118 438 q 45 243 45 373 m 102 548 q 145 617 102 597 q 178 625 161 625 q 247 581 227 625 q 254 548 254 564 q 212 479 254 499 q 178 471 195 471 q 109 515 130 471 q 102 548 102 532 z "},"ණ":{"ha":1156,"x_min":45,"x_max":1111,"o":"m 883 61 q 742 134 785 61 q 724 170 735 146 q 671 239 697 225 q 637 248 655 247 q 651 382 651 315 q 650 431 651 415 q 650 467 650 442 q 648 506 648 492 q 713 652 648 642 q 728 654 722 654 q 814 454 814 651 l 814 361 l 864 361 l 864 454 q 937 651 864 633 q 956 654 947 654 q 1061 378 1061 652 q 1024 138 1061 205 q 883 61 981 62 m 80 20 l 129 11 q 194 41 156 41 q 292 24 205 41 q 359 18 330 18 q 617 184 547 18 q 623 199 620 193 q 670 157 650 199 q 715 76 700 92 q 883 11 769 11 q 1096 186 1058 11 q 1111 378 1111 252 q 956 704 1109 703 q 850 643 883 704 q 838 600 840 621 q 785 688 833 656 q 728 704 758 704 q 613 612 637 704 q 612 604 613 608 q 494 739 570 694 q 647 967 623 873 q 655 1029 655 998 l 606 1029 q 506 823 606 937 q 448 761 481 796 q 340 779 397 779 q 90 647 171 779 q 45 486 45 574 q 106 282 46 357 l 107 281 l 109 279 q 171 232 134 248 q 99 119 121 198 q 80 20 90 81 m 359 68 q 254 84 346 68 q 195 90 218 90 q 138 80 163 90 q 205 206 156 174 q 228 218 216 213 l 239 218 q 376 290 327 218 q 404 384 404 334 q 336 519 403 468 q 239 552 292 552 q 98 468 142 552 q 92 456 95 461 q 91 486 91 467 q 176 673 91 602 q 340 728 245 728 q 556 598 488 728 q 601 382 601 513 q 581 235 601 297 l 581 235 q 381 69 530 80 q 359 68 369 68 m 119 384 q 178 486 119 452 q 239 503 206 503 q 340 445 305 503 q 357 384 357 416 q 300 281 357 316 q 239 264 271 264 q 136 323 171 264 q 119 384 119 351 z "},"ඬ":{"ha":925,"x_min":45,"x_max":882,"o":"m 209 243 q 315 15 209 58 q 376 4 343 4 q 528 118 494 4 q 536 156 534 137 q 636 14 551 45 q 696 4 665 4 q 865 168 830 4 q 882 397 882 247 q 597 1009 882 951 q 522 1016 562 1016 q 319 932 406 1016 q 256 838 275 888 l 302 821 q 423 944 334 903 q 522 966 471 966 q 825 553 788 966 q 831 397 831 480 q 791 111 831 182 q 696 54 757 56 q 566 217 587 54 q 559 305 562 250 l 513 305 q 467 98 507 151 q 376 54 433 56 q 262 193 278 54 q 259 243 259 217 q 346 465 259 416 q 410 480 374 480 l 595 480 q 598 525 598 507 q 505 694 598 651 q 430 711 469 711 q 307 655 347 709 q 203 712 274 711 q 64 566 100 712 q 45 385 45 491 q 174 14 45 60 q 197 8 186 9 l 197 58 q 115 180 144 68 q 95 385 95 263 q 168 651 95 602 q 203 662 186 662 q 279 586 269 662 q 281 570 281 578 q 288 528 281 549 l 209 528 l 209 480 l 282 480 q 213 305 228 438 q 209 243 209 273 m 326 570 q 395 661 326 642 q 430 665 411 665 q 541 589 513 665 q 552 528 551 562 l 334 528 q 326 570 326 547 z "},"ඟ":{"ha":1067,"x_min":45,"x_max":1023,"o":"m 795 54 q 688 121 723 56 q 712 236 712 172 q 651 385 712 334 q 616 406 633 400 q 633 502 633 445 l 633 544 q 701 711 633 658 q 785 738 738 738 q 956 571 920 738 q 972 396 972 499 q 795 54 971 56 m 515 374 l 532 335 q 587 368 560 346 q 655 288 636 357 q 662 236 662 262 q 594 81 662 132 q 500 54 555 54 q 301 374 302 57 q 477 738 302 736 q 583 671 551 738 q 595 635 593 652 q 583 544 583 593 q 583 528 583 538 q 585 502 585 511 q 515 374 583 406 m 250 374 q 500 4 251 5 q 658 72 601 5 q 795 4 708 5 q 1023 396 1021 7 q 826 785 1023 755 q 785 788 806 788 q 627 700 684 787 q 477 788 581 787 q 324 713 378 787 q 218 781 294 780 q 69 620 113 781 q 45 381 45 524 q 174 9 45 56 q 197 4 186 5 l 197 54 q 95 358 99 71 q 95 381 95 370 q 202 730 95 703 q 218 731 210 731 q 290 661 281 731 q 292 655 292 658 q 250 374 250 552 z "},"ඤ":{"ha":1397,"x_min":45,"x_max":1438,"o":"m 1062 -77 q 1135 -228 1062 -175 q 1241 -262 1183 -262 q 1427 -160 1360 -262 q 1438 -142 1432 -151 l 1398 -113 q 1241 -213 1332 -208 q 1130 -146 1166 -213 q 1112 -77 1112 -114 q 1134 4 1114 -28 l 1143 4 q 1352 103 1271 4 q 1369 125 1362 114 l 1328 155 q 1143 57 1261 58 q 972 137 1036 57 q 922 288 922 199 q 1001 460 922 395 q 1139 507 1059 507 l 1303 507 q 1322 616 1322 563 q 1226 787 1322 743 q 1153 802 1192 802 q 1023 736 1067 802 q 1002 693 1009 716 q 829 776 928 770 q 604 659 712 774 q 494 793 586 764 q 438 802 467 802 q 307 735 351 802 q 304 731 305 732 q 203 785 273 784 q 62 598 98 785 q 45 385 45 510 q 174 14 45 60 q 197 8 186 9 l 197 58 q 115 180 144 68 q 95 385 95 263 q 168 722 95 659 q 203 735 186 735 q 279 665 269 735 q 281 643 281 654 q 403 463 281 515 q 437 450 419 456 l 277 250 l 311 210 q 320 214 315 214 q 332 176 332 213 l 332 142 q 420 5 332 19 q 446 4 434 4 q 553 72 528 4 q 560 107 560 90 q 608 23 562 53 q 674 4 637 4 q 831 266 831 5 q 701 563 831 507 q 631 576 667 576 q 597 571 610 576 l 609 587 q 829 726 719 724 q 975 652 924 726 q 1000 601 991 628 q 1028 536 1009 562 q 886 374 922 490 q 872 288 872 331 q 990 50 872 129 q 1082 11 1032 23 q 1062 -77 1062 -28 m 1040 643 q 1108 747 1040 720 q 1153 755 1130 755 q 1264 685 1233 755 q 1276 616 1276 654 q 1268 557 1276 600 l 1139 557 q 1073 551 1107 557 q 1040 643 1040 591 m 674 54 q 585 216 585 56 l 585 231 l 536 231 l 534 216 q 446 54 533 56 q 378 142 380 57 l 378 174 q 350 259 377 256 l 534 492 q 631 526 575 526 q 764 404 728 526 q 781 266 781 346 q 674 54 776 61 m 326 643 q 393 747 326 720 q 438 755 415 755 q 551 681 522 755 q 562 616 562 651 l 562 608 l 467 487 q 326 643 327 521 z "},"ඕ":{"ha":761,"x_min":45,"x_max":716,"o":"m 332 933 q 210 909 271 933 q 142 1012 145 954 q 227 1103 142 1073 q 369 1122 283 1122 q 586 1054 510 1122 q 628 966 627 1013 q 556 863 627 894 q 332 933 467 933 m 92 1012 q 163 887 94 941 q 96 841 125 865 l 129 802 q 286 879 213 868 q 332 883 308 883 q 643 613 578 883 q 666 397 666 521 q 625 110 666 180 q 532 54 591 56 q 400 225 419 54 q 395 305 396 255 l 349 305 q 307 104 340 157 q 212 54 273 56 q 95 298 100 54 q 95 340 95 317 q 159 640 95 571 q 206 663 180 663 q 279 568 275 655 q 277 529 279 552 q 275 502 275 511 q 347 385 275 407 q 382 381 365 381 q 491 545 491 382 q 382 709 488 707 q 301 666 328 708 q 206 711 269 709 q 57 500 91 711 q 45 340 45 427 q 129 30 45 95 q 212 4 164 4 q 365 126 332 4 q 372 156 369 141 q 449 24 381 62 q 532 4 486 4 q 700 168 666 4 q 716 397 716 247 q 593 829 715 694 q 678 966 677 878 q 567 1126 678 1066 q 369 1172 481 1172 q 106 1066 159 1172 q 92 1012 92 1040 m 327 578 q 324 608 327 590 q 382 661 339 659 q 442 545 442 659 q 382 430 439 433 q 324 502 326 431 q 326 548 324 514 q 327 578 327 571 z "},"ඔ":{"ha":761,"x_min":45,"x_max":716,"o":"m 45 340 q 129 30 45 95 q 212 4 164 4 q 365 126 332 4 q 372 156 369 141 q 449 24 381 62 q 532 4 486 4 q 700 168 666 4 q 716 397 716 247 q 449 1005 716 936 q 358 1016 406 1016 q 153 930 240 1016 q 91 838 110 888 l 137 821 q 258 943 168 902 q 358 966 308 966 q 655 598 608 966 q 666 397 666 509 q 625 110 666 180 q 532 54 591 56 q 400 225 419 54 q 395 305 396 255 l 349 305 q 307 104 340 157 q 212 54 273 56 q 95 298 100 54 q 95 340 95 317 q 159 640 95 571 q 206 663 180 663 q 279 568 275 655 q 277 529 279 552 q 275 502 275 511 q 347 385 275 407 q 382 381 365 381 q 491 545 491 382 q 382 709 488 707 q 301 666 328 708 q 206 711 269 709 q 57 500 91 711 q 45 340 45 427 m 327 578 q 324 608 327 590 q 382 661 339 659 q 442 545 442 659 q 382 430 439 433 q 324 502 326 431 q 326 548 324 514 q 327 578 327 571 z "},"ප":{"ha":783,"x_min":45,"x_max":739,"o":"m 369 616 l 369 545 l 262 545 q 179 532 220 545 q 134 643 134 575 q 201 747 134 720 q 245 755 222 755 q 358 681 330 755 q 369 616 369 651 m 522 545 l 415 545 l 415 616 q 494 749 415 720 q 537 755 514 755 q 636 701 606 755 q 650 643 650 674 q 605 530 648 578 q 522 545 566 545 m 95 304 q 178 475 95 427 q 262 495 214 495 l 522 495 q 674 391 635 495 q 689 304 689 351 q 570 85 689 156 q 392 41 495 41 q 140 152 220 41 q 95 304 95 217 m 45 304 q 176 49 45 133 q 392 -9 266 -9 q 678 113 583 -9 q 739 304 739 193 q 655 503 739 435 q 646 510 650 507 q 696 643 696 566 q 610 785 696 745 q 537 802 575 802 q 397 727 444 802 q 392 718 395 722 q 245 802 345 800 q 115 736 160 802 q 88 643 88 697 q 138 510 90 564 q 45 304 46 441 z "},"ඵ":{"ha":724,"x_min":45,"x_max":686,"o":"m 563 712 q 434 772 472 712 q 420 818 420 793 q 454 930 420 861 q 472 982 471 964 q 604 716 560 872 q 563 712 583 712 m 372 818 q 445 696 372 741 q 562 666 495 666 q 614 671 591 666 q 636 464 636 564 q 475 84 636 168 q 347 54 418 54 q 109 206 160 54 q 94 297 94 250 q 171 467 94 426 q 228 480 197 480 l 412 480 q 415 525 415 495 q 320 696 415 652 q 247 711 286 711 q 115 643 155 711 q 98 570 98 610 q 121 491 99 528 q 45 297 45 429 q 132 76 45 157 q 347 4 212 4 q 648 217 568 4 q 686 464 686 320 q 557 941 686 732 q 426 1095 499 1034 l 395 1058 q 411 1043 401 1053 q 429 1005 429 1025 q 400 926 429 987 q 372 818 372 865 m 142 570 q 212 661 142 642 q 247 665 228 665 q 357 591 328 665 q 369 526 368 563 l 228 526 q 159 513 187 526 q 142 570 142 538 z "},"ර":{"ha":652,"x_min":45,"x_max":608,"o":"m 45 357 q 160 58 45 151 q 324 4 229 4 q 557 149 480 4 q 608 374 608 245 q 568 570 608 487 q 377 713 505 700 q 351 715 363 715 q 244 693 288 715 q 442 932 400 848 q 473 1053 473 993 l 425 1053 q 324 846 425 960 q 225 743 292 810 q 45 357 45 564 m 95 357 l 95 359 q 163 575 96 486 q 351 666 233 665 q 522 548 467 666 q 557 374 557 475 q 465 110 557 198 q 324 54 406 54 q 129 184 187 54 q 95 357 95 258 z "},"ස":{"ha":788,"x_min":45,"x_max":745,"o":"m 568 549 l 425 549 l 425 616 q 503 749 425 720 q 547 755 524 755 q 646 701 616 755 q 659 643 659 674 q 623 540 658 583 q 568 549 598 549 m 378 616 l 378 549 l 171 549 q 142 643 142 591 q 210 747 142 720 q 255 755 232 755 q 368 681 339 755 q 378 616 378 651 m 109 263 q 195 486 109 437 q 259 500 224 500 l 566 500 q 692 317 675 500 q 694 263 694 290 q 618 69 694 114 q 562 54 593 54 q 429 232 448 54 q 425 305 426 262 l 378 305 q 336 104 370 157 q 241 54 302 56 q 119 168 149 54 q 109 263 109 212 m 58 263 q 149 31 58 94 q 241 4 190 4 q 395 126 362 4 q 401 156 399 141 q 502 14 416 45 q 562 4 530 4 q 726 134 682 4 q 745 263 745 191 q 678 499 745 422 q 661 517 669 510 q 704 643 704 572 q 618 787 704 746 q 547 802 585 802 q 403 720 448 802 q 401 718 401 719 q 255 802 354 800 q 125 736 170 802 q 98 643 98 697 q 121 549 98 593 l 45 549 l 45 500 l 132 500 q 62 326 77 458 q 58 263 58 293 z "},"ශ":{"ha":911,"x_min":45,"x_max":867,"o":"m 572 198 q 628 37 572 85 q 699 11 658 11 q 774 24 724 11 q 789 27 784 27 q 826 4 807 26 l 867 33 q 825 144 825 87 q 830 210 825 163 q 841 396 841 313 q 623 787 841 770 q 600 788 612 788 q 439 713 505 788 q 425 694 431 704 q 273 788 378 787 q 45 374 46 785 q 296 4 46 5 q 487 129 435 4 q 507 236 507 179 q 446 385 507 334 q 411 406 429 400 q 429 502 429 445 l 429 544 q 496 700 429 642 q 600 738 543 738 q 774 563 738 738 q 789 396 789 492 l 789 370 q 715 388 753 388 q 593 301 633 388 q 572 198 572 255 m 708 62 q 623 198 624 65 q 677 326 623 290 q 723 339 699 339 q 787 319 758 338 q 780 239 785 289 q 773 153 773 179 q 785 75 773 113 q 745 68 772 75 q 708 62 719 62 m 311 374 l 327 335 q 382 368 355 346 q 450 288 431 357 q 457 236 457 262 q 389 81 457 132 q 296 54 350 54 q 96 374 98 57 q 273 738 98 736 q 380 670 346 738 q 392 629 389 650 q 378 544 378 591 q 378 528 378 538 q 380 502 380 511 q 311 374 378 406 z "},"ෂ":{"ha":783,"x_min":45,"x_max":739,"o":"m 369 616 l 369 545 l 262 545 q 179 532 220 545 q 134 643 134 575 q 201 747 134 720 q 245 755 222 755 q 358 681 330 755 q 369 616 369 651 m 522 545 l 415 545 l 415 616 q 494 749 415 720 q 537 755 514 755 q 636 701 606 755 q 650 643 650 674 q 605 530 648 578 q 522 545 566 545 m 95 304 q 178 475 95 427 q 262 495 214 495 l 522 495 q 560 491 543 495 q 377 335 427 392 q 288 127 288 233 q 298 52 288 85 q 113 205 159 84 q 95 304 95 251 m 392 41 q 351 42 363 41 q 338 122 338 81 q 505 396 338 259 q 606 473 528 415 q 689 317 684 430 q 689 304 689 311 q 570 85 689 156 q 392 41 495 41 m 45 304 q 176 49 45 133 q 392 -9 266 -9 q 678 113 583 -9 q 739 304 739 193 q 655 503 739 435 q 646 510 650 507 q 696 643 696 566 q 610 785 696 745 q 537 802 575 802 q 397 727 444 802 q 392 718 395 722 q 245 802 345 800 q 115 736 160 802 q 88 643 88 697 q 138 510 90 564 q 45 304 46 441 z "},"ත":{"ha":906,"x_min":45,"x_max":875,"o":"m 45 250 l 79 210 q 83 212 80 210 q 87 212 85 212 q 113 175 111 210 q 208 27 113 71 q 324 4 258 4 q 491 66 431 5 q 635 4 541 5 q 875 369 873 7 q 712 773 875 685 q 597 802 661 802 q 382 671 498 802 q 372 659 377 665 q 263 793 354 764 q 208 802 236 802 q 76 736 122 802 q 49 643 49 697 q 171 463 49 515 q 205 450 187 456 l 45 250 m 635 54 q 521 109 555 56 q 555 266 555 174 q 431 544 555 499 q 378 553 406 553 q 347 549 361 553 l 377 587 q 514 726 463 694 q 597 751 556 751 q 791 598 734 751 q 825 369 825 507 q 703 69 825 126 q 635 54 670 54 m 324 54 q 168 140 195 54 q 163 175 163 157 q 117 259 161 244 l 288 475 q 378 503 327 503 q 491 391 461 503 q 505 266 505 338 q 377 61 505 98 q 324 54 350 54 m 95 643 q 163 747 95 720 q 208 755 184 755 q 317 682 289 755 q 330 616 330 652 l 330 608 l 235 487 q 95 643 96 521 z "},"ථ":{"ha":712,"x_min":45,"x_max":685,"o":"m 562 712 q 433 772 471 712 q 419 818 419 793 q 453 930 419 861 q 471 982 469 964 q 602 716 559 872 q 562 712 582 712 m 370 818 q 444 696 370 741 q 560 666 494 666 q 613 671 590 666 q 635 464 635 564 q 473 84 635 168 q 346 54 416 54 q 126 184 191 54 q 95 319 95 247 q 172 532 95 469 q 243 557 205 557 q 298 543 270 556 l 320 586 q 243 606 279 606 q 92 513 149 606 q 45 319 45 434 q 130 90 45 179 q 346 4 213 4 q 647 217 567 4 q 685 464 685 320 q 556 941 685 732 q 425 1095 498 1034 l 393 1058 q 410 1043 400 1053 q 427 1005 427 1025 q 399 926 427 987 q 370 818 370 865 z "},"ට":{"ha":697,"x_min":45,"x_max":652,"o":"m 45 319 q 140 567 45 490 q 243 606 187 606 q 320 586 281 605 l 298 543 q 243 557 269 557 q 125 469 167 557 q 95 319 95 406 q 171 117 95 193 q 328 54 233 54 q 571 256 509 54 q 601 480 601 350 q 327 966 600 964 q 152 878 218 966 q 121 821 133 850 l 75 838 q 252 1005 125 966 q 327 1016 290 1016 q 651 538 635 1016 q 652 480 652 510 q 479 42 652 144 q 328 4 412 4 q 84 149 160 4 q 45 319 45 227 z "},"ඨ":{"ha":766,"x_min":45,"x_max":730,"o":"m 601 712 q 473 770 511 712 q 458 818 458 793 q 494 932 458 863 q 511 981 510 964 q 636 715 595 876 q 601 712 612 712 m 410 818 q 484 696 410 741 q 601 666 536 666 q 647 670 624 666 q 680 343 680 526 q 640 106 680 165 q 537 54 605 56 q 404 232 423 54 q 400 305 401 262 l 354 305 q 304 94 347 146 q 217 54 270 54 q 102 205 125 54 q 95 290 95 245 q 126 449 95 378 q 243 556 170 547 q 256 557 250 557 q 312 543 283 556 l 334 586 q 256 606 293 606 q 104 511 167 606 q 84 475 94 492 q 45 290 45 393 q 130 33 45 100 q 217 4 168 4 q 370 126 338 4 q 377 156 374 141 q 477 14 392 45 q 537 4 506 4 q 715 156 681 4 q 730 343 730 221 q 551 1008 730 783 q 464 1095 511 1058 l 433 1058 q 450 1043 446 1047 q 468 1005 468 1025 q 439 926 468 987 q 410 818 410 865 z "},"උ":{"ha":732,"x_min":45,"x_max":688,"o":"m 45 180 q 149 -115 45 -8 q 372 -205 236 -205 q 662 -33 579 -205 q 688 39 678 3 l 637 47 q 511 -119 609 -65 q 372 -153 449 -153 q 138 -4 209 -153 q 99 180 99 77 q 235 467 99 384 q 380 507 298 507 l 544 507 q 563 616 563 563 q 469 785 563 742 q 395 802 434 802 q 264 736 309 802 q 237 643 237 697 q 267 540 237 583 q 66 332 118 488 q 45 180 45 263 m 282 643 q 350 747 282 720 q 395 755 372 755 q 505 682 476 755 q 517 616 517 652 q 510 559 517 594 l 510 557 l 380 557 q 313 552 342 557 q 282 643 282 591 z "},"ඌ":{"ha":1063,"x_min":45,"x_max":989,"o":"m 45 180 q 149 -115 45 -8 q 372 -205 236 -205 q 662 -33 579 -205 q 688 39 678 3 l 637 47 q 511 -119 609 -65 q 372 -153 449 -153 q 138 -4 209 -153 q 99 180 99 77 q 235 467 99 384 q 380 507 298 507 l 544 507 q 563 616 563 563 q 469 785 563 742 q 395 802 434 802 q 264 736 309 802 q 237 643 237 697 q 267 540 237 583 q 66 332 118 488 q 45 180 45 263 m 282 643 q 350 747 282 720 q 395 755 372 755 q 505 682 476 755 q 517 616 517 652 q 510 559 517 594 l 510 557 l 380 557 q 313 552 342 557 q 282 643 282 591 m 610 480 q 716 336 613 338 q 788 395 776 336 q 792 430 789 406 q 818 500 798 488 q 845 507 830 507 q 939 301 939 506 q 821 54 937 56 q 791 58 804 54 q 767 68 777 61 q 752 81 757 76 q 741 95 747 85 l 735 104 l 694 80 q 724 39 720 43 q 821 4 762 4 q 989 301 987 7 q 845 557 986 556 q 773 531 798 557 q 747 472 749 505 q 739 413 745 439 q 716 387 732 387 q 661 480 661 388 q 718 629 661 602 q 780 640 743 640 l 780 690 q 629 609 662 690 q 610 480 610 562 z "},"ව":{"ha":709,"x_min":45,"x_max":665,"o":"m 45 297 q 132 75 45 156 q 340 4 209 4 q 625 218 548 4 q 665 480 665 326 q 339 1016 656 1009 q 153 940 232 1016 q 87 838 110 897 l 133 821 q 258 949 168 913 q 339 966 297 966 q 613 480 612 963 q 456 81 613 167 q 340 54 404 54 q 109 205 159 54 q 94 297 94 250 q 171 467 94 426 q 228 480 197 480 l 412 480 q 415 525 415 495 q 320 696 415 652 q 247 711 286 711 q 115 643 155 711 q 98 570 98 610 q 121 491 99 528 q 45 297 45 429 m 142 570 q 212 661 142 642 q 247 665 228 665 q 357 591 328 665 q 369 526 368 563 l 228 526 q 159 513 187 526 q 142 570 142 538 z "},"ය":{"ha":774,"x_min":45,"x_max":731,"o":"m 555 549 l 422 549 q 411 616 411 589 q 490 749 411 720 q 533 755 510 755 q 632 701 602 755 q 646 643 646 674 q 609 540 644 583 q 555 549 585 549 m 45 324 q 202 5 45 27 q 228 4 216 4 q 381 126 349 4 q 388 156 385 141 q 488 14 403 45 q 548 4 517 4 q 712 134 669 4 q 731 263 731 191 q 665 499 731 422 q 647 517 655 510 q 692 643 692 574 q 606 785 692 745 q 533 802 571 802 q 391 722 435 802 q 369 662 376 694 q 366 636 366 646 q 271 658 320 658 q 92 547 153 658 q 45 324 45 461 m 548 54 q 415 232 434 54 q 411 305 412 262 l 365 305 q 315 94 358 146 q 228 54 281 54 q 95 324 95 57 q 212 595 95 543 q 271 608 240 608 q 368 578 328 606 q 388 500 373 543 l 552 500 q 678 317 662 500 q 681 263 681 290 q 605 69 681 114 q 548 54 579 54 z "},"෴":{"ha":2737,"x_min":45,"x_max":2692,"o":"m 2120 138 q 2201 27 2120 45 q 2235 23 2218 23 l 2593 23 q 2692 129 2691 26 q 2683 209 2692 163 l 2634 203 q 2642 138 2642 171 q 2593 73 2639 75 l 2235 73 q 2171 145 2173 76 q 2176 187 2171 164 l 2222 410 l 2171 410 q 2051 320 2161 362 q 1930 271 1942 278 q 1906 255 1915 263 l 1986 621 l 1935 621 l 1933 609 q 1799 522 1915 564 q 1671 468 1693 483 q 1666 464 1668 465 l 1747 833 l 1697 833 l 1687 787 q 1560 705 1671 745 q 1436 652 1457 667 l 1497 926 l 1447 926 l 1374 595 q 1290 659 1367 612 q 1211 730 1213 707 q 1213 742 1211 738 l 1218 768 l 1168 768 l 1082 382 q 1000 444 1078 399 q 911 517 916 494 q 913 529 911 525 l 917 549 l 867 549 l 792 212 q 709 273 788 228 q 621 346 625 323 q 621 354 621 347 q 623 363 623 361 l 628 391 l 578 391 l 549 237 q 469 77 526 114 q 378 54 433 54 l 144 54 q 95 119 96 57 q 103 184 95 142 l 54 190 q 45 110 45 142 q 144 4 47 5 l 378 4 q 566 115 515 4 q 600 237 585 160 l 608 281 q 694 224 618 269 q 773 140 772 176 q 770 117 773 132 l 764 84 l 814 84 l 895 454 q 982 396 907 441 q 1063 311 1062 347 q 1062 294 1063 300 l 1055 263 l 1105 263 l 1195 666 q 1276 609 1207 652 q 1356 522 1355 559 l 1356 513 l 1326 380 l 1377 380 l 1417 563 q 1534 644 1430 606 q 1653 693 1636 682 q 1668 704 1663 699 l 1575 282 l 1625 282 l 1647 380 q 1777 464 1666 423 q 1904 518 1883 503 q 1915 528 1911 524 l 1834 156 l 1884 156 l 1887 170 q 2014 255 1904 214 q 2139 309 2119 294 q 2154 321 2148 316 l 2125 187 q 2120 138 2120 164 z "},"ඏ":{"ha":1166,"x_min":45,"x_max":1123,"o":"m 892 129 q 936 198 892 178 q 968 206 952 206 q 1038 161 1017 206 q 1044 129 1044 146 q 1001 60 1044 80 q 968 53 985 53 q 901 95 921 53 q 892 129 892 113 m 1073 387 q 1063 209 1073 277 q 970 252 1025 251 q 925 244 947 252 q 930 304 930 270 q 844 506 930 439 q 838 510 840 509 q 887 643 887 566 l 887 644 q 964 736 902 728 q 1062 560 1036 736 q 1073 387 1073 484 m 560 616 l 560 545 l 453 545 q 372 532 412 545 q 326 643 326 576 q 393 747 326 720 q 438 755 415 755 q 548 682 519 755 q 560 616 560 652 m 715 545 l 606 545 l 606 616 q 684 747 606 719 q 730 755 707 755 q 827 703 796 755 q 842 643 842 675 q 796 532 841 575 q 715 545 754 545 m 288 304 q 369 475 288 427 q 453 495 406 495 l 715 495 q 867 388 830 495 q 880 304 880 349 q 761 85 880 156 q 583 41 686 41 q 334 152 412 41 q 288 304 288 217 m 237 304 q 243 244 237 269 q 198 252 220 252 q 104 210 140 251 q 95 387 95 278 q 168 723 95 661 q 203 736 186 736 q 278 666 266 736 q 281 644 281 655 l 281 643 q 330 510 282 566 q 237 304 240 439 m 45 387 q 100 49 45 123 q 198 4 136 4 q 305 64 267 4 q 317 91 313 77 q 583 -9 412 -9 q 850 91 757 -8 q 932 9 871 30 q 970 4 951 4 l 971 4 q 1097 110 1065 4 q 1123 387 1123 195 q 993 783 1123 743 q 964 787 979 787 q 863 732 895 785 q 730 802 815 798 q 587 727 635 802 q 583 719 585 722 q 438 802 530 796 q 309 739 354 802 q 305 732 307 735 q 203 787 271 785 q 62 600 98 787 q 45 387 45 511 m 123 129 q 165 198 123 178 q 199 206 182 206 q 269 161 247 206 q 275 129 275 145 q 233 61 275 81 q 199 53 216 53 q 130 98 149 53 q 123 129 123 113 z "},"ඐ":{"ha":1583,"x_min":45,"x_max":1548,"o":"m 892 144 q 936 213 892 193 q 968 221 952 221 q 1038 176 1017 221 q 1044 144 1044 160 q 1001 75 1044 95 q 968 68 985 68 q 901 110 921 68 q 892 144 892 127 m 1073 401 q 1063 224 1073 292 q 970 267 1025 266 q 925 259 947 267 q 930 319 930 285 q 841 522 930 457 q 837 525 838 524 q 887 658 887 581 l 887 659 q 949 750 888 739 q 964 751 958 751 q 1062 575 1036 751 q 1073 401 1073 499 m 560 631 l 560 560 l 453 560 q 370 545 408 560 q 326 658 326 593 q 393 762 326 735 q 438 770 415 770 q 548 697 519 770 q 560 631 560 667 m 713 560 l 606 560 l 606 631 q 688 764 606 736 q 730 770 708 770 q 827 718 796 770 q 842 658 842 690 q 796 547 841 590 q 713 560 754 560 m 286 319 q 368 488 286 441 q 453 510 404 510 l 713 510 q 868 401 830 510 q 880 319 880 363 q 761 100 880 171 q 583 56 686 56 q 332 165 412 56 q 286 319 286 232 m 236 319 q 241 260 236 283 q 198 267 218 267 q 104 224 140 266 q 95 401 95 293 q 168 738 95 675 q 203 751 186 751 q 278 681 266 751 q 281 659 281 670 l 281 658 q 330 525 282 581 q 236 319 237 456 m 45 401 q 98 68 45 141 q 198 19 133 19 q 305 79 267 19 q 317 106 313 92 q 583 5 412 5 q 850 106 757 7 q 932 24 871 45 q 970 19 951 19 l 971 19 q 1097 125 1065 19 q 1123 401 1123 210 q 993 798 1123 758 q 964 802 979 802 q 863 747 895 800 q 730 817 812 812 q 583 732 629 815 q 438 817 537 815 q 309 754 354 817 q 305 747 307 750 q 203 802 271 800 q 62 614 98 802 q 45 401 45 526 m 122 144 q 165 213 122 193 q 198 221 182 221 q 267 176 247 221 q 274 144 274 160 q 231 75 274 95 q 198 68 214 68 q 130 110 151 68 q 122 144 122 127 m 1169 480 q 1275 336 1172 338 q 1347 395 1335 336 q 1351 430 1348 406 q 1377 500 1356 488 q 1404 507 1389 507 q 1497 301 1497 506 q 1379 54 1496 56 q 1350 58 1363 54 q 1326 68 1336 61 q 1311 81 1316 76 q 1299 95 1306 85 l 1294 104 l 1253 80 q 1283 39 1279 43 q 1379 4 1321 4 q 1548 301 1546 7 q 1404 557 1545 556 q 1332 531 1356 557 q 1305 472 1308 505 q 1297 413 1303 439 q 1275 387 1291 387 q 1219 480 1219 388 q 1276 629 1219 602 q 1339 640 1302 640 l 1339 690 q 1188 609 1221 690 q 1169 480 1169 562 z "},"ඍ":{"ha":1160,"x_min":45,"x_max":1115,"o":"m 784 195 q 840 34 784 83 q 910 8 869 8 q 998 28 936 8 q 1029 35 1017 35 q 1074 8 1055 34 l 1115 35 q 1072 197 1072 102 q 1086 391 1072 213 q 1093 545 1093 475 q 944 746 1092 745 q 792 553 793 743 q 795 503 792 538 l 845 503 q 844 553 844 519 q 944 696 846 694 q 1043 545 1042 693 q 1042 517 1043 532 q 1042 491 1042 502 q 1040 463 1042 480 q 1039 439 1039 446 q 1037 414 1039 433 q 1035 391 1035 395 q 1034 366 1035 388 l 1031 346 q 926 385 993 385 q 804 298 845 385 q 784 195 784 252 m 920 60 q 834 195 836 62 q 888 323 834 288 q 935 336 910 336 q 1025 293 986 335 q 1019 195 1019 233 q 1036 79 1019 126 q 1023 80 1031 80 q 947 64 1013 80 q 920 60 929 60 m 365 616 l 365 549 l 221 549 q 167 540 189 549 q 130 643 130 583 q 198 747 130 720 q 243 755 220 755 q 353 682 324 755 q 365 616 365 652 m 555 549 l 411 549 l 411 616 q 490 749 411 720 q 533 755 510 755 q 632 701 602 755 q 646 643 646 674 q 609 540 644 583 q 555 549 585 549 m 95 263 q 178 490 95 448 q 224 500 199 500 l 552 500 q 678 317 662 500 q 681 263 681 290 q 605 69 681 114 q 548 54 579 54 q 415 232 434 54 q 411 305 412 262 l 365 305 q 315 94 358 146 q 228 54 281 54 q 106 168 136 54 q 95 263 95 212 m 45 263 q 136 31 45 94 q 228 4 176 4 q 381 126 349 4 q 388 156 385 141 q 488 14 403 45 q 548 4 517 4 q 712 134 669 4 q 731 263 731 191 q 665 499 731 422 q 647 517 655 510 q 692 643 692 574 q 606 785 692 745 q 533 802 571 802 q 389 720 434 802 q 388 718 388 719 q 243 802 342 800 q 111 736 157 802 q 84 643 84 697 q 129 517 85 572 q 45 282 52 449 q 45 263 45 273 z "},"ඎ":{"ha":1526,"x_min":45,"x_max":1481,"o":"m 1150 195 q 1206 34 1150 83 q 1276 8 1236 8 q 1364 28 1302 8 q 1396 35 1383 35 q 1440 8 1421 34 l 1481 35 q 1438 197 1438 102 q 1453 391 1438 213 q 1459 545 1459 475 q 1310 746 1458 745 q 1158 553 1160 743 q 1161 503 1158 538 l 1211 503 q 1210 553 1210 519 q 1310 696 1213 694 q 1409 545 1408 693 q 1409 517 1409 532 q 1408 491 1408 502 q 1407 463 1408 480 q 1405 439 1405 446 q 1403 414 1405 433 q 1401 391 1401 395 q 1400 366 1401 388 l 1397 346 q 1293 385 1359 385 q 1171 298 1211 385 q 1150 195 1150 252 m 1286 60 q 1200 195 1202 62 q 1255 323 1200 288 q 1301 336 1276 336 q 1392 293 1352 335 q 1385 195 1385 233 q 1402 79 1385 126 q 1389 80 1397 80 q 1313 64 1379 80 q 1286 60 1295 60 m 784 195 q 840 34 784 83 q 910 8 869 8 q 998 28 936 8 q 1029 35 1017 35 q 1074 8 1055 34 l 1115 35 q 1072 197 1072 102 q 1086 391 1072 213 q 1093 545 1093 475 q 944 746 1092 745 q 792 553 793 743 q 795 503 792 538 l 845 503 q 844 553 844 519 q 944 696 846 694 q 1043 545 1042 693 q 1042 517 1043 532 q 1042 491 1042 502 q 1040 463 1042 480 q 1039 439 1039 446 q 1037 414 1039 433 q 1035 391 1035 395 q 1034 366 1035 388 l 1031 346 q 926 385 993 385 q 804 298 845 385 q 784 195 784 252 m 920 60 q 834 195 836 62 q 888 323 834 288 q 935 336 910 336 q 1025 293 986 335 q 1019 195 1019 233 q 1036 79 1019 126 q 1023 80 1031 80 q 947 64 1013 80 q 920 60 929 60 m 365 616 l 365 549 l 221 549 q 167 540 189 549 q 130 643 130 583 q 198 747 130 720 q 243 755 220 755 q 353 682 324 755 q 365 616 365 652 m 555 549 l 411 549 l 411 616 q 490 749 411 720 q 533 755 510 755 q 632 701 602 755 q 646 643 646 674 q 609 540 644 583 q 555 549 585 549 m 95 263 q 178 490 95 448 q 224 500 199 500 l 552 500 q 678 317 662 500 q 681 263 681 290 q 605 69 681 114 q 548 54 579 54 q 415 232 434 54 q 411 305 412 262 l 365 305 q 315 94 358 146 q 228 54 281 54 q 106 168 136 54 q 95 263 95 212 m 45 263 q 136 31 45 94 q 228 4 176 4 q 381 126 349 4 q 388 156 385 141 q 488 14 403 45 q 548 4 517 4 q 712 134 669 4 q 731 263 731 191 q 665 499 731 422 q 647 517 655 510 q 692 643 692 574 q 606 785 692 745 q 533 802 571 802 q 389 720 434 802 q 388 718 388 719 q 243 802 342 800 q 111 736 157 802 q 84 643 84 697 q 129 517 85 572 q 45 282 52 449 q 45 263 45 273 z "},"/":{"ha":509,"x_min":41,"x_max":481,"o":"m 431 983 l 41 -94 l 94 -95 l 481 983 l 431 983 z "}," ":{"ha":404,"x_min":0,"x_max":0,"o":""},"£":{"ha":616,"x_min":27,"x_max":555,"o":"m 547 0 l 547 50 l 178 50 l 178 442 l 448 442 l 448 492 l 178 492 l 178 616 q 301 865 178 825 q 355 873 327 873 q 526 814 439 872 l 555 859 q 357 925 458 925 q 159 810 221 925 q 121 632 121 738 l 121 492 l 27 492 l 27 442 l 121 442 l 121 50 l 27 50 l 27 0 l 547 0 z "},"∑":{"ha":654,"x_min":37,"x_max":600,"o":"m 37 -237 l 600 -237 l 600 -187 l 109 -187 l 480 351 l 141 869 l 600 869 l 600 920 l 66 920 l 66 880 l 416 350 l 37 -199 l 37 -237 z "},"t":{"ha":407,"x_min":27,"x_max":387,"o":"m 387 22 l 369 60 q 294 38 327 38 q 199 149 209 38 q 198 178 198 164 l 198 631 l 370 631 l 370 678 l 198 678 l 198 861 l 144 861 l 144 678 l 27 678 l 27 631 l 144 631 l 144 161 q 228 1 144 37 q 283 -9 254 -9 q 387 22 332 -8 z "},"ť":{"ha":407,"x_min":27,"x_max":407,"o":"m 387 22 l 369 60 q 294 38 327 38 q 199 149 209 38 q 198 178 198 164 l 198 631 l 370 631 l 370 678 l 198 678 l 198 861 l 144 861 l 144 678 l 27 678 l 27 631 l 144 631 l 144 161 q 228 1 144 37 q 283 -9 254 -9 q 387 22 332 -8 m 407 891 q 368 949 407 941 q 358 951 362 951 q 313 916 323 951 q 312 899 312 907 q 349 849 313 861 q 297 734 342 798 l 316 715 q 403 861 387 777 q 407 891 406 878 z "},"þ":{"ha":648,"x_min":115,"x_max":597,"o":"m 316 38 q 170 77 248 38 l 170 399 q 259 609 170 544 q 354 640 304 640 q 495 553 442 640 q 538 370 538 480 q 437 81 538 168 q 316 38 385 38 m 170 -278 l 170 20 q 321 -9 245 -9 q 538 123 461 -9 q 597 370 597 227 q 490 643 597 559 q 362 688 433 688 q 170 562 239 686 l 170 983 l 115 983 l 115 -278 l 170 -278 z "},"¾":{"ha":1065,"x_min":14,"x_max":1024,"o":"m 958 0 l 958 141 l 1024 141 l 1024 184 l 958 184 l 958 552 l 902 552 l 644 174 l 650 140 l 906 141 l 906 0 l 958 0 m 194 355 q 355 429 302 355 q 384 524 384 471 q 302 647 384 608 q 251 663 279 658 q 353 755 332 685 q 357 788 357 772 q 274 907 357 871 q 191 925 236 925 q 35 849 90 925 q 27 838 30 844 l 69 817 q 191 882 110 880 q 293 830 263 882 q 304 785 304 810 q 241 697 304 726 q 160 681 206 681 l 125 681 l 125 639 l 183 639 q 324 563 294 639 q 331 524 331 544 q 254 410 331 439 q 191 399 225 399 q 42 457 110 400 l 14 422 q 194 355 96 355 m 304 -15 l 867 997 l 814 997 l 248 -14 l 304 -15 m 906 184 l 705 184 l 906 479 l 906 184 z "},"³":{"ha":431,"x_min":14,"x_max":384,"o":"m 194 355 q 355 429 302 355 q 384 524 384 471 q 302 647 384 608 q 251 663 279 658 q 353 755 332 685 q 357 788 357 772 q 274 907 357 871 q 191 925 236 925 q 35 849 90 925 q 27 838 30 844 l 69 817 q 191 882 110 880 q 293 830 263 882 q 304 785 304 810 q 241 697 304 726 q 160 681 206 681 l 125 681 l 125 639 l 183 639 q 324 563 294 639 q 331 524 331 544 q 254 410 331 439 q 191 399 225 399 q 42 457 110 400 l 14 422 q 194 355 96 355 z "},"˜":{"ha":481,"x_min":60,"x_max":422,"o":"m 321 873 q 244 901 297 873 q 172 922 205 921 q 60 869 113 921 l 88 841 q 168 873 125 873 q 245 846 194 873 q 323 825 288 825 q 422 879 377 826 l 393 909 q 321 873 361 873 z "},"™":{"ha":996,"x_min":27,"x_max":916,"o":"m 27 917 l 27 879 l 170 879 l 170 335 l 218 335 l 218 879 l 361 879 l 361 917 l 27 917 m 406 335 l 456 699 q 465 772 458 722 q 472 822 469 806 q 487 772 477 806 q 509 699 502 722 l 617 355 l 656 357 l 773 699 q 811 819 787 739 q 818 754 814 798 q 825 699 823 716 l 869 335 l 916 335 l 844 916 l 802 916 l 667 517 q 654 472 662 502 q 640 426 644 441 q 631 463 637 438 q 616 517 621 500 l 490 916 l 446 916 l 362 335 l 406 335 z "},"²":{"ha":464,"x_min":39,"x_max":387,"o":"m 387 366 l 387 414 l 125 414 l 236 541 q 267 575 247 553 q 369 712 350 665 q 378 762 378 738 q 294 903 378 859 q 206 925 254 925 q 42 840 102 924 l 84 815 q 203 882 129 880 q 311 823 277 882 q 326 762 326 796 q 255 627 326 707 q 206 574 244 614 l 39 392 l 39 366 l 387 366 z "},"u":{"ha":678,"x_min":113,"x_max":651,"o":"m 616 -9 q 651 -7 625 -9 l 648 35 q 627 34 639 34 q 562 88 572 34 q 557 140 557 109 l 557 678 l 503 678 l 503 279 q 411 65 503 130 q 316 34 368 34 q 179 133 213 34 q 167 216 167 170 l 167 678 l 113 678 l 113 212 q 239 1 113 42 q 313 -9 273 -9 q 495 102 435 -9 q 503 118 499 110 q 570 -3 510 16 q 616 -9 590 -9 z "},"ú":{"ha":678,"x_min":113,"x_max":651,"o":"m 616 -9 q 651 -7 625 -9 l 648 35 q 627 34 639 34 q 562 88 572 34 q 557 140 557 109 l 557 678 l 503 678 l 503 279 q 411 65 503 130 q 316 34 368 34 q 179 133 213 34 q 167 216 167 170 l 167 678 l 113 678 l 113 212 q 239 1 113 42 q 313 -9 273 -9 q 495 102 435 -9 q 503 118 499 110 q 570 -3 510 16 q 616 -9 590 -9 m 491 920 l 450 968 l 266 825 l 294 787 l 491 920 z "},"û":{"ha":678,"x_min":113,"x_max":651,"o":"m 616 -9 q 651 -7 625 -9 l 648 35 q 627 34 639 34 q 562 88 572 34 q 557 140 557 109 l 557 678 l 503 678 l 503 279 q 411 65 503 130 q 316 34 368 34 q 179 133 213 34 q 167 216 167 170 l 167 678 l 113 678 l 113 212 q 239 1 113 42 q 313 -9 273 -9 q 495 102 435 -9 q 503 118 499 110 q 570 -3 510 16 q 616 -9 590 -9 m 347 962 l 179 817 l 208 781 l 343 888 l 481 780 l 511 819 l 347 962 z "},"ü":{"ha":678,"x_min":113,"x_max":651,"o":"m 616 -9 q 651 -7 625 -9 l 648 35 q 627 34 639 34 q 562 88 572 34 q 557 140 557 109 l 557 678 l 503 678 l 503 279 q 411 65 503 130 q 316 34 368 34 q 179 133 213 34 q 167 216 167 170 l 167 678 l 113 678 l 113 212 q 239 1 113 42 q 313 -9 273 -9 q 495 102 435 -9 q 503 118 499 110 q 570 -3 510 16 q 616 -9 590 -9 m 271 873 q 240 922 271 913 q 228 924 233 924 q 184 886 193 924 q 183 873 183 879 q 217 825 183 833 q 228 823 222 823 q 270 861 262 823 q 271 873 271 868 m 498 873 q 464 922 498 914 q 453 924 458 924 q 411 886 419 924 q 410 873 410 879 q 441 825 410 834 q 453 823 448 823 q 496 861 488 823 q 498 873 498 868 z "},"ù":{"ha":678,"x_min":113,"x_max":651,"o":"m 616 -9 q 651 -7 625 -9 l 648 35 q 627 34 639 34 q 562 88 572 34 q 557 140 557 109 l 557 678 l 503 678 l 503 279 q 411 65 503 130 q 316 34 368 34 q 179 133 213 34 q 167 216 167 170 l 167 678 l 113 678 l 113 212 q 239 1 113 42 q 313 -9 273 -9 q 495 102 435 -9 q 503 118 499 110 q 570 -3 510 16 q 616 -9 590 -9 m 217 920 l 258 968 l 442 825 l 414 787 l 217 920 z "},"ű":{"ha":675,"x_min":113,"x_max":651,"o":"m 616 -9 q 651 -7 625 -9 l 648 35 q 627 34 639 34 q 562 88 572 34 q 557 140 557 109 l 557 678 l 503 678 l 503 279 q 411 65 503 130 q 316 34 368 34 q 179 133 213 34 q 167 216 167 170 l 167 678 l 113 678 l 113 212 q 239 1 113 42 q 313 -9 273 -9 q 495 102 435 -9 q 503 118 499 110 q 570 -3 510 16 q 616 -9 590 -9 m 393 933 l 349 979 l 175 822 l 206 787 l 393 933 m 616 933 l 571 979 l 397 822 l 429 787 l 616 933 z "},"ū":{"ha":678,"x_min":113,"x_max":651,"o":"m 616 -9 q 651 -7 625 -9 l 648 35 q 627 34 639 34 q 562 88 572 34 q 557 140 557 109 l 557 678 l 503 678 l 503 279 q 411 65 503 130 q 316 34 368 34 q 179 133 213 34 q 167 216 167 170 l 167 678 l 113 678 l 113 212 q 239 1 113 42 q 313 -9 273 -9 q 495 102 435 -9 q 503 118 499 110 q 570 -3 510 16 q 616 -9 590 -9 m 175 898 l 175 850 l 507 850 l 507 898 l 175 898 z "},"_":{"ha":678,"x_min":-1,"x_max":680,"o":"m -1 -233 l -1 -278 l 680 -278 l 680 -233 l -1 -233 z "}," ":{"ha":258,"x_min":0,"x_max":0,"o":""},"­":{"ha":814,"x_min":64,"x_max":377,"o":"m 64 387 l 64 339 l 377 339 l 377 387 l 64 387 z "},"µ":{"ha":681,"x_min":115,"x_max":654,"o":"m 170 -278 l 167 58 q 316 -9 220 -9 q 498 102 438 -9 q 506 118 502 110 q 572 -3 513 16 q 618 -9 593 -9 q 654 -7 628 -9 l 651 35 q 629 34 642 34 q 564 88 575 34 q 560 140 560 109 l 560 678 l 506 678 l 506 279 q 414 65 506 130 q 319 34 370 34 q 182 133 216 34 q 170 216 170 170 l 170 678 l 115 678 l 115 -278 l 170 -278 z "},"Ģ":{"ha":760,"x_min":54,"x_max":685,"o":"m 685 69 l 685 426 l 400 426 l 400 376 l 628 376 l 628 100 q 419 42 509 42 q 170 197 250 42 q 117 456 117 301 q 235 804 117 692 q 408 872 308 872 q 631 711 557 869 l 685 732 q 439 924 609 909 q 411 925 425 925 q 137 776 235 925 q 54 456 54 650 q 203 60 54 180 q 414 -11 292 -11 q 685 69 536 -9 m 437 -126 q 397 -68 437 -76 q 388 -66 392 -66 q 343 -102 353 -66 q 342 -118 342 -110 q 378 -168 343 -156 q 327 -283 372 -220 l 346 -302 q 433 -156 416 -240 q 437 -126 435 -140 z "},"ģ":{"ha":608,"x_min":60,"x_max":576,"o":"m 307 267 q 178 336 225 267 q 146 450 146 385 q 233 623 146 574 q 305 642 267 642 q 433 570 388 642 q 464 450 464 519 q 380 286 464 334 q 307 267 345 267 m 307 688 q 142 608 205 688 q 95 450 95 543 q 190 254 96 316 q 111 160 119 225 q 110 148 110 153 q 170 60 110 87 q 174 58 172 58 q 60 -107 61 -14 q 165 -262 60 -214 q 300 -288 224 -288 q 534 -193 463 -288 q 572 -77 572 -142 q 465 76 572 33 q 347 95 414 95 l 228 94 q 164 136 179 94 q 160 156 160 146 q 217 228 160 206 q 232 233 225 232 q 305 221 266 221 q 469 301 410 221 q 515 450 515 362 q 437 642 514 575 l 576 640 l 576 688 l 362 680 q 307 688 335 688 m 300 -240 q 130 -168 175 -240 q 114 -107 114 -140 q 227 47 115 -15 l 240 47 l 347 50 q 503 -19 461 53 q 518 -77 518 -46 q 404 -225 518 -187 q 300 -240 358 -240 m 244 849 q 283 791 244 799 q 293 789 289 789 q 336 823 327 789 q 339 841 339 831 q 302 891 336 879 q 354 1006 309 941 l 335 1025 q 247 879 264 963 q 244 849 244 863 z "},"Ķ":{"ha":697,"x_min":115,"x_max":690,"o":"m 686 35 q 637 66 659 33 q 632 75 635 71 l 381 487 l 661 916 l 600 916 l 335 507 l 172 507 l 172 916 l 115 916 l 115 0 l 172 0 l 172 460 l 334 460 l 587 47 q 666 -9 623 -8 q 690 -7 677 -9 l 686 35 m 407 -126 q 368 -68 407 -76 q 358 -66 362 -66 q 313 -102 323 -66 q 312 -118 312 -110 q 349 -168 313 -156 q 297 -283 342 -220 l 316 -302 q 403 -156 387 -240 q 407 -126 406 -140 z "},"ķ":{"ha":578,"x_min":115,"x_max":571,"o":"m 547 -9 q 571 -7 559 -9 l 567 34 l 555 34 q 524 58 538 34 q 514 75 519 65 l 336 387 l 543 678 l 481 678 l 302 420 l 170 420 l 170 983 l 115 983 l 115 0 l 170 0 l 170 376 l 283 376 l 469 49 q 547 -9 505 -8 m 372 -126 q 332 -68 372 -76 q 323 -66 327 -66 q 278 -102 288 -66 q 277 -118 277 -110 q 313 -168 278 -156 q 262 -283 307 -220 l 281 -302 q 368 -156 351 -240 q 372 -126 370 -140 z "},"Ļ":{"ha":540,"x_min":115,"x_max":526,"o":"m 526 0 l 526 50 l 172 50 l 172 916 l 115 916 l 115 0 l 526 0 m 380 -126 q 340 -68 380 -76 q 331 -66 335 -66 q 286 -102 296 -66 q 285 -118 285 -110 q 321 -168 286 -156 q 270 -283 315 -220 l 289 -302 q 376 -156 359 -240 q 380 -126 378 -140 z "},"ļ":{"ha":308,"x_min":115,"x_max":293,"o":"m 221 -8 q 293 8 255 -8 l 278 49 q 228 37 250 37 q 170 118 171 39 l 170 983 l 115 983 l 115 111 q 184 -3 115 20 q 221 -8 202 -8 m 241 -126 q 202 -68 241 -76 q 193 -66 197 -66 q 148 -102 157 -66 q 146 -118 146 -110 q 183 -168 148 -156 q 132 -283 176 -220 l 151 -302 q 237 -156 221 -240 q 241 -126 240 -140 z "},"Ņ":{"ha":829,"x_min":115,"x_max":713,"o":"m 713 0 l 713 916 l 656 916 l 656 117 l 171 925 l 115 916 l 115 0 l 172 0 l 172 811 l 661 -9 l 713 0 m 463 -126 q 423 -68 463 -76 q 414 -66 418 -66 q 369 -102 378 -66 q 368 -118 368 -110 q 404 -168 369 -156 q 353 -283 397 -220 l 372 -302 q 458 -156 442 -240 q 463 -126 461 -140 z "},"ņ":{"ha":671,"x_min":118,"x_max":623,"o":"m 620 35 q 560 69 571 30 q 556 121 556 88 l 556 467 q 435 675 556 633 q 359 688 401 688 q 170 555 228 686 l 168 678 l 118 678 l 118 0 l 172 0 l 172 395 q 264 613 172 548 q 357 643 308 643 q 492 536 463 643 q 502 458 502 500 l 502 113 q 575 -8 502 3 q 594 -9 585 -9 q 623 -7 605 -9 l 620 35 m 392 -126 q 353 -68 392 -76 q 343 -66 347 -66 q 298 -102 308 -66 q 297 -118 297 -110 q 334 -168 298 -156 q 282 -283 327 -220 l 301 -302 q 388 -156 372 -240 q 392 -126 391 -140 z "},"Ŗ":{"ha":677,"x_min":115,"x_max":650,"o":"m 172 0 l 172 414 l 311 414 q 357 415 342 414 l 543 47 q 621 -9 574 -8 q 650 -7 636 -9 l 646 35 l 640 35 q 589 75 606 38 l 412 425 q 608 598 570 458 q 617 677 617 635 q 415 910 617 876 q 311 918 368 918 q 115 916 179 918 l 115 0 l 172 0 m 301 868 q 536 773 490 868 q 555 669 555 731 q 298 464 552 465 l 172 464 l 172 864 q 301 868 296 868 m 395 -126 q 355 -68 395 -76 q 346 -66 350 -66 q 301 -102 311 -66 q 300 -118 300 -110 q 336 -168 301 -156 q 285 -283 330 -220 l 304 -302 q 391 -156 374 -240 q 395 -126 393 -140 z "},"ŗ":{"ha":385,"x_min":109,"x_max":385,"o":"m 170 0 l 170 406 q 243 605 170 540 q 332 639 283 639 q 378 632 353 639 l 385 680 q 338 688 361 688 q 186 597 244 688 q 167 560 175 579 l 165 678 l 115 678 l 115 0 l 170 0 m 220 -126 q 180 -68 220 -76 q 171 -66 175 -66 q 126 -102 136 -66 q 125 -118 125 -110 q 161 -168 126 -156 q 110 -283 155 -220 l 129 -302 q 216 -156 199 -240 q 220 -126 218 -140 z "},"Ş":{"ha":643,"x_min":61,"x_max":547,"o":"m 281 -255 q 416 -183 381 -255 q 429 -130 429 -157 q 353 -11 429 -53 q 342 -5 347 -8 q 519 117 468 15 q 544 229 544 167 q 425 441 544 363 q 292 511 404 454 q 160 620 189 564 q 142 696 142 655 q 232 850 142 802 q 330 875 278 875 q 486 793 433 875 q 498 773 492 783 l 547 798 q 382 921 502 901 q 335 925 358 925 q 144 849 218 925 q 83 696 83 785 q 197 496 83 571 q 328 427 214 486 q 465 313 434 374 q 484 229 484 275 q 387 60 484 106 q 294 41 345 41 q 91 113 195 42 l 61 66 q 290 -9 170 -9 l 292 -9 q 382 -113 373 -49 q 384 -125 384 -119 q 327 -199 384 -178 q 273 -209 302 -209 q 232 -205 254 -209 l 229 -250 q 281 -255 255 -255 z "},"ş":{"ha":511,"x_min":56,"x_max":450,"o":"m 210 -255 q 346 -183 311 -255 q 358 -130 358 -157 q 285 -12 358 -54 q 277 -8 281 -9 q 422 79 377 3 q 446 171 446 121 q 345 332 446 270 q 275 369 323 346 q 155 450 182 415 q 130 522 130 481 q 205 629 130 600 q 262 640 232 640 q 396 576 350 640 q 404 563 400 570 l 450 587 q 296 686 403 673 q 266 688 281 688 q 110 621 165 688 q 76 522 76 578 q 175 365 76 426 q 244 330 197 353 q 366 248 338 283 q 392 171 392 214 q 319 53 392 87 q 254 38 288 38 q 80 99 168 39 l 56 56 q 217 -8 130 3 q 313 -125 305 -57 q 256 -199 313 -178 q 202 -209 232 -209 q 161 -205 183 -209 l 159 -250 q 210 -255 184 -255 z "},"Ţ":{"ha":553,"x_min":12,"x_max":538,"o":"m 239 -255 q 374 -183 339 -255 q 387 -130 387 -157 q 304 0 385 -53 l 304 867 l 538 867 l 538 917 l 12 917 l 12 867 l 247 867 l 247 0 q 342 -125 340 -58 q 285 -199 342 -178 q 231 -209 260 -209 q 190 -205 212 -209 l 187 -250 q 239 -255 213 -255 z "},"ţ":{"ha":418,"x_min":27,"x_max":387,"o":"m 209 -255 q 346 -184 311 -255 q 358 -133 358 -160 q 285 -9 357 -57 q 387 22 332 -8 l 369 60 q 294 38 327 38 q 199 149 209 38 q 198 178 198 164 l 198 631 l 370 631 l 370 678 l 198 678 l 198 861 l 144 861 l 144 678 l 27 678 l 27 631 l 144 631 l 144 161 q 218 5 145 45 q 312 -125 305 -54 q 244 -203 312 -187 q 201 -209 224 -209 q 160 -205 182 -209 l 157 -250 q 209 -255 183 -255 z "},"Ș":{"ha":612,"x_min":61,"x_max":547,"o":"m 544 229 q 425 441 544 363 q 292 511 404 454 q 160 620 189 564 q 142 696 142 655 q 232 850 142 802 q 330 875 278 875 q 486 793 433 875 q 498 773 492 783 l 547 798 q 382 921 502 901 q 335 925 358 925 q 144 849 218 925 q 83 696 83 785 q 197 496 83 571 q 328 427 214 486 q 465 313 434 374 q 484 229 484 275 q 387 60 484 106 q 294 41 345 41 q 91 113 195 42 l 61 66 q 290 -9 170 -9 q 499 83 429 -9 q 544 229 544 144 m 376 -126 q 336 -68 376 -76 q 327 -66 331 -66 q 282 -102 292 -66 q 281 -118 281 -110 q 317 -168 282 -156 q 266 -283 311 -220 l 285 -302 q 372 -156 355 -240 q 376 -126 374 -140 z "},"ș":{"ha":511,"x_min":56,"x_max":450,"o":"m 446 171 q 345 332 446 270 q 275 369 323 346 q 155 450 182 415 q 130 522 130 481 q 205 629 130 600 q 262 640 232 640 q 396 576 350 640 q 404 563 400 570 l 450 587 q 296 686 403 673 q 266 688 281 688 q 110 621 165 688 q 76 522 76 578 q 175 365 76 426 q 244 330 197 353 q 366 248 338 283 q 392 171 392 214 q 319 53 392 87 q 254 38 288 38 q 80 99 168 39 l 56 56 q 251 -9 146 -9 q 410 61 353 -9 q 446 171 446 107 m 343 -126 q 304 -68 343 -76 q 294 -66 298 -66 q 250 -102 259 -66 q 248 -118 248 -110 q 285 -168 250 -156 q 233 -283 278 -220 l 252 -302 q 339 -156 323 -240 q 343 -126 342 -140 z "},"Ț":{"ha":553,"x_min":12,"x_max":538,"o":"m 12 917 l 12 867 l 247 867 l 247 0 l 304 0 l 304 867 l 538 867 l 538 917 l 12 917 m 326 -126 q 286 -68 326 -76 q 277 -66 281 -66 q 232 -102 241 -66 q 231 -118 231 -110 q 267 -168 232 -156 q 216 -283 260 -220 l 235 -302 q 321 -156 305 -240 q 326 -126 324 -140 z "},"ț":{"ha":407,"x_min":27,"x_max":387,"o":"m 387 22 l 369 60 q 294 38 327 38 q 199 149 209 38 q 198 178 198 164 l 198 631 l 370 631 l 370 678 l 198 678 l 198 861 l 144 861 l 144 678 l 27 678 l 27 631 l 144 631 l 144 161 q 228 1 144 37 q 283 -9 254 -9 q 387 22 332 -8 m 298 -126 q 259 -68 298 -76 q 250 -66 254 -66 q 205 -102 214 -66 q 203 -118 203 -110 q 240 -168 205 -156 q 189 -283 233 -220 l 208 -302 q 294 -156 278 -240 q 298 -126 297 -140 z "},"ˉ":{"ha":481,"x_min":75,"x_max":407,"o":"m 75 898 l 75 850 l 407 850 l 407 898 l 75 898 z "},"₺":{"ha":764,"x_min":34,"x_max":703,"o":"m 703 435 l 642 435 q 465 66 632 132 q 353 47 415 47 q 218 49 273 47 l 218 338 l 458 426 l 458 476 l 218 388 l 218 499 l 458 586 l 458 636 l 218 549 l 218 916 l 161 916 l 161 528 l 34 481 l 34 433 l 161 479 l 161 368 l 34 320 l 34 270 l 161 317 l 161 0 q 353 -4 286 -4 q 697 355 656 -4 q 703 435 701 393 z "},"₽":{"ha":681,"x_min":27,"x_max":620,"o":"m 308 868 q 547 743 509 868 q 557 662 557 708 q 377 457 557 490 q 292 450 338 450 l 179 450 l 179 864 q 308 868 302 868 m 450 254 l 450 301 l 179 301 l 179 403 l 331 403 q 578 521 500 403 q 620 674 620 587 q 406 913 620 882 q 317 918 363 918 q 122 916 186 918 l 122 450 l 27 450 l 27 403 l 122 403 l 122 301 l 27 301 l 27 254 l 122 254 l 122 0 l 179 0 l 179 254 l 450 254 z "},"ℓ":{"ha":410,"x_min":14,"x_max":406,"o":"m 372 841 q 278 1020 372 994 q 241 1025 260 1025 q 113 803 114 1023 l 114 331 q 14 225 62 269 l 46 187 q 115 256 81 220 l 115 163 q 195 4 115 45 q 256 -9 224 -9 q 406 62 338 -8 l 376 96 q 262 38 319 38 q 174 121 190 38 q 170 164 170 141 l 170 323 q 359 726 316 519 q 372 841 372 788 m 167 803 q 241 978 168 977 q 320 836 320 975 q 203 464 320 669 q 168 406 186 434 l 167 803 z "},"Ω":{"ha":852,"x_min":75,"x_max":777,"o":"m 334 0 l 334 56 q 153 328 194 133 q 141 460 141 391 q 255 803 141 692 q 430 872 327 872 q 674 689 605 872 q 711 460 711 593 q 589 111 711 237 q 514 54 553 77 l 518 0 l 777 0 l 777 50 l 589 50 q 747 290 699 132 q 773 460 773 374 q 631 859 773 741 q 431 925 549 925 q 152 762 250 925 q 79 460 79 637 q 190 117 79 258 q 256 50 221 77 l 75 50 l 75 0 l 334 0 z "},"∆":{"ha":777,"x_min":14,"x_max":764,"o":"m 764 0 l 429 920 l 350 920 l 14 0 l 764 0 m 681 47 l 92 47 l 387 872 l 681 47 z "},"∕":{"ha":718,"x_min":39,"x_max":658,"o":"m 95 -15 l 39 -14 l 605 997 l 658 997 l 95 -15 z "},"∙":{"ha":461,"x_min":122,"x_max":339,"o":"m 339 399 q 283 498 339 467 q 231 511 259 511 q 134 453 164 511 q 122 399 122 427 q 178 301 122 332 q 231 288 202 288 q 326 345 296 288 q 339 399 339 370 z "},"ų":{"ha":681,"x_min":115,"x_max":661,"o":"m 661 -248 l 658 -208 q 614 -213 637 -213 q 519 -159 538 -213 q 515 -133 515 -145 q 624 -18 515 -61 q 654 -7 639 -12 l 651 35 q 629 34 642 34 q 564 88 575 34 q 560 140 560 109 l 560 678 l 506 678 l 506 279 q 414 65 506 130 q 319 34 370 34 q 182 133 216 34 q 170 216 170 170 l 170 678 l 115 678 l 115 212 q 241 1 115 42 q 316 -9 275 -9 q 498 102 438 -9 q 506 118 502 110 q 566 -1 511 20 q 581 -5 574 -4 q 467 -121 486 -49 q 464 -145 464 -134 q 530 -241 464 -213 q 602 -255 563 -255 q 661 -248 629 -255 z "},"ů":{"ha":678,"x_min":113,"x_max":651,"o":"m 616 -9 q 651 -7 625 -9 l 648 35 q 627 34 639 34 q 562 88 572 34 q 557 140 557 109 l 557 678 l 503 678 l 503 279 q 411 65 503 130 q 316 34 368 34 q 179 133 213 34 q 167 216 167 170 l 167 678 l 113 678 l 113 212 q 239 1 113 42 q 313 -9 273 -9 q 495 102 435 -9 q 503 118 499 110 q 570 -3 510 16 q 616 -9 590 -9 m 471 882 q 397 1001 471 971 q 347 1010 373 1010 q 239 951 273 1010 q 221 880 221 920 q 297 761 221 788 q 345 753 320 753 q 453 811 418 753 q 471 882 471 842 m 266 880 q 319 967 266 948 q 345 971 332 971 q 416 924 396 971 q 426 880 426 903 q 373 795 426 814 q 346 791 359 791 q 275 837 297 791 q 266 880 266 857 z "},"v":{"ha":551,"x_min":5,"x_max":545,"o":"m 292 0 l 545 678 l 490 678 l 275 90 l 64 678 l 5 678 l 251 0 l 292 0 z "},"ඃ":{"ha":307,"x_min":45,"x_max":263,"o":"m 91 206 q 127 151 91 168 q 153 144 140 144 q 210 182 193 144 q 216 206 216 194 q 180 262 216 244 q 153 269 167 269 q 98 232 115 269 q 91 206 91 220 m 45 206 q 100 301 45 270 q 153 315 125 315 q 250 259 218 315 q 263 206 263 235 q 209 113 263 144 q 153 98 183 98 q 60 151 92 98 q 45 206 45 178 m 91 549 q 127 494 91 511 q 153 487 141 487 q 210 525 193 487 q 216 549 216 537 q 180 605 216 587 q 153 612 167 612 q 98 575 115 612 q 91 549 91 563 m 45 549 q 98 643 45 610 q 153 658 125 658 q 248 604 217 658 q 263 549 263 579 q 209 456 263 487 q 153 441 183 441 q 60 494 92 441 q 45 549 45 521 z "},"w":{"ha":917,"x_min":5,"x_max":910,"o":"m 259 0 l 457 597 l 650 0 l 685 0 l 910 678 l 857 678 l 671 92 l 486 678 l 431 674 l 245 92 l 61 678 l 5 678 l 224 0 l 259 0 z "},"x":{"ha":553,"x_min":11,"x_max":540,"o":"m 536 35 l 532 35 q 490 65 510 35 q 486 71 487 69 l 305 339 l 532 678 l 473 678 l 277 381 l 83 678 l 15 678 l 243 342 l 11 0 l 69 0 l 271 298 l 437 47 q 514 -9 477 -8 q 540 -7 522 -9 l 536 35 z "},"y":{"ha":529,"x_min":-85,"x_max":534,"o":"m 479 678 l 266 92 l 56 678 l -4 678 l 239 12 q 123 -205 174 -159 q 38 -240 85 -240 q -65 -212 -9 -239 l -85 -255 q 38 -288 -20 -288 q 220 -146 146 -288 q 263 -46 241 -104 l 534 678 l 479 678 z "},"ý":{"ha":529,"x_min":-85,"x_max":534,"o":"m 479 678 l 266 92 l 56 678 l -4 678 l 239 12 q 123 -205 174 -159 q 38 -240 85 -240 q -65 -212 -9 -239 l -85 -255 q 38 -288 -20 -288 q 220 -146 146 -288 q 263 -46 241 -104 l 534 678 l 479 678 m 420 920 l 380 968 l 195 825 l 224 787 l 420 920 z "},"ÿ":{"ha":529,"x_min":-85,"x_max":534,"o":"m 479 678 l 266 92 l 56 678 l -4 678 l 239 12 q 123 -205 174 -159 q 38 -240 85 -240 q -65 -212 -9 -239 l -85 -255 q 38 -288 -20 -288 q 220 -146 146 -288 q 263 -46 241 -104 l 534 678 l 479 678 m 201 873 q 170 922 201 913 q 157 924 163 924 q 114 886 122 924 q 113 873 113 879 q 146 825 113 833 q 157 823 152 823 q 199 861 191 823 q 201 873 201 868 m 427 873 q 393 922 427 914 q 382 924 388 924 q 340 886 349 924 q 339 873 339 879 q 370 825 339 834 q 382 823 377 823 q 426 861 418 823 q 427 873 427 868 z "},"¥":{"ha":699,"x_min":34,"x_max":637,"o":"m 570 197 l 570 244 l 359 244 l 359 346 l 570 346 l 570 393 l 382 393 l 637 916 l 578 916 l 418 582 q 335 396 374 492 q 252 585 294 494 l 96 916 l 34 916 l 281 393 l 92 393 l 92 346 l 302 346 l 302 244 l 92 244 l 92 197 l 302 197 l 302 0 l 359 0 l 359 197 l 570 197 z "},"z":{"ha":540,"x_min":45,"x_max":492,"o":"m 119 47 l 492 644 l 492 678 l 58 678 l 58 631 l 423 631 l 45 34 l 45 0 l 492 0 l 492 47 l 119 47 z "},"ź":{"ha":540,"x_min":45,"x_max":492,"o":"m 119 47 l 492 644 l 492 678 l 58 678 l 58 631 l 423 631 l 45 34 l 45 0 l 492 0 l 492 47 l 119 47 m 441 920 l 400 968 l 216 825 l 244 787 l 441 920 z "},"ž":{"ha":540,"x_min":45,"x_max":492,"o":"m 119 47 l 492 644 l 492 678 l 58 678 l 58 631 l 423 631 l 45 34 l 45 0 l 492 0 l 492 47 l 119 47 m 288 780 l 456 925 l 427 960 l 292 853 l 153 962 l 123 922 l 288 780 z "},"ż":{"ha":540,"x_min":45,"x_max":492,"o":"m 119 47 l 492 644 l 492 678 l 58 678 l 58 631 l 423 631 l 45 34 l 45 0 l 492 0 l 492 47 l 119 47 m 335 875 q 301 924 335 916 q 290 925 296 925 q 247 887 255 925 q 245 875 245 880 q 279 825 245 833 q 290 823 285 823 q 334 861 327 823 q 335 875 335 869 z "},"‍":{"ha":0,"x_min":-241,"x_max":243,"o":"m -26 12 l 23 12 l 23 783 l 197 663 l 228 708 l 49 831 l 243 966 l 212 1010 l 1 865 l -210 1010 l -241 966 l -47 831 l -227 708 l -197 663 l -26 781 l -26 12 z "},"‌":{"ha":0,"x_min":-24,"x_max":23,"o":"m -24 3 l -24 1000 l 23 1000 l 23 3 l -24 3 z "}}}
